<svg width="100%" viewBox="0 0 24 24" fill="currentColor" xmlns="http://www.w3.org/2000/svg">
<path fill-rule="evenodd" clip-rule="evenodd" d="M8 1.25C8.41421 1.25 8.75 1.58579 8.75 2V5C8.75 5.41421 8.41421 5.75 8 5.75C7.58579 5.75 7.25 5.41421 7.25 5V2C7.25 1.58579 7.58579 1.25 8 1.25Z" fill="currentColor"></path>
<path fill-rule="evenodd" clip-rule="evenodd" d="M16 1.25C16.4142 1.25 16.75 1.58579 16.75 2V5C16.75 5.41421 16.4142 5.75 16 5.75C15.5858 5.75 15.25 5.41421 15.25 5V2C15.25 1.58579 15.5858 1.25 16 1.25Z" fill="currentColor"></path>
<path opacity="0.4" d="M21.5 8.37V17.13C21.5 17.29 21.49 17.45 21.48 17.6H2.52C2.51 17.45 2.5 17.29 2.5 17.13V8.37C2.5 5.68 4.68 3.5 7.37 3.5H16.63C19.32 3.5 21.5 5.68 21.5 8.37Z" fill="currentColor"></path>
<path d="M7.8902 14.8368H10.9403C11.6105 14.8368 11.8534 14.5648 11.8534 14.0791V14.0014C11.8534 13.5449 11.6105 13.2826 10.9403 13.2826H8.45359C8.49245 13.2341 8.55073 13.1758 8.60901 13.1175C8.91013 12.7872 9.49296 12.6124 10.0952 12.3792C10.9791 12.0393 11.8048 11.6507 11.8048 10.4462C11.8048 9.17373 10.9014 8.42578 9.25011 8.42578C8.44388 8.42578 7.81249 8.59091 7.3948 8.89204C6.9674 9.18345 6.74398 9.58171 6.74398 10.0577C6.74398 10.9999 7.99705 10.9416 7.99705 10.9222C8.09419 10.4365 8.47302 9.95083 9.12384 9.95083C9.65809 9.95083 9.92036 10.1451 9.92036 10.5434C9.92036 10.9319 9.36668 11.097 8.63815 11.437C7.80278 11.8256 6.71484 12.4375 6.71484 13.5352V13.9043C6.71484 14.7105 6.97711 14.8368 7.8902 14.8368Z" fill="currentColor"></path>
<path d="M13.9437 14.9242C14.2934 14.9242 14.6528 14.7591 14.9442 14.254L16.6733 11.1553C16.887 10.7862 17.2852 10.2034 17.2852 9.66913V9.56228C17.2852 9.05717 17.1298 8.56177 15.9739 8.56177H12.9918C12.4284 8.56177 12.137 8.74633 12.137 9.28058V9.38743C12.137 9.94111 12.4284 10.1451 12.9918 10.1451H15.2065L12.8558 14.2637C12.7781 14.39 13.322 14.9242 13.9437 14.9242Z" fill="currentColor"></path>
<path d="M21.48 17.6001C21.24 20.0701 19.16 22.0001 16.63 22.0001H7.37002C4.84002 22.0001 2.76002 20.0701 2.52002 17.6001H21.48Z" fill="currentColor"></path>
</svg>