<svg width="1105" height="42" viewBox="0 0 1105 42" fill="none" xmlns="http://www.w3.org/2000/svg">
<path fill-rule="evenodd" clip-rule="evenodd" d="M5.09712 25.966C7.78597 25.966 9.96572 23.7862 9.96572 21.0974C9.96572 18.4085 7.78597 16.2288 5.09712 16.2288C2.40826 16.2288 0.228516 18.4085 0.228516 21.0974C0.228516 23.7862 2.40826 25.966 5.09712 25.966Z" fill="#ED6A5F"/>
<path fill-rule="evenodd" clip-rule="evenodd" d="M21.3256 25.966C24.0145 25.966 26.1942 23.7862 26.1942 21.0974C26.1942 18.4085 24.0145 16.2288 21.3256 16.2288C18.6368 16.2288 16.457 18.4085 16.457 21.0974C16.457 23.7862 18.6368 25.966 21.3256 25.966Z" fill="#F5BF4F"/>
<path fill-rule="evenodd" clip-rule="evenodd" d="M37.5546 25.966C40.2435 25.966 42.4232 23.7862 42.4232 21.0974C42.4232 18.4085 40.2435 16.2288 37.5546 16.2288C34.8658 16.2288 32.686 18.4085 32.686 21.0974C32.686 23.7862 34.8658 25.966 37.5546 25.966Z" fill="#61C554"/>
<path opacity="0.7" d="M65.73 27.33H77.3825C78.7969 27.33 79.4974 26.6295 79.4974 25.242V17.0179C79.4974 15.6304 78.7969 14.9299 77.3825 14.9299H65.73C64.3223 14.9299 63.615 15.6237 63.615 17.0179V25.242C63.615 26.6363 64.3223 27.33 65.73 27.33ZM65.7435 26.2456C65.0699 26.2456 64.6994 25.8886 64.6994 25.1881V17.0718C64.6994 16.3713 65.0699 16.0143 65.7435 16.0143H68.7475V26.2456H65.7435ZM77.369 16.0143C78.0358 16.0143 78.413 16.3713 78.413 17.0718V25.1881C78.413 25.8886 78.0358 26.2456 77.369 26.2456H69.805V16.0143H77.369ZM67.4475 18.5132C67.6563 18.5132 67.8315 18.3313 67.8315 18.136C67.8315 17.9339 67.6563 17.7588 67.4475 17.7588H66.0061C65.8041 17.7588 65.6222 17.9339 65.6222 18.136C65.6222 18.3313 65.8041 18.5132 66.0061 18.5132H67.4475ZM67.4475 20.2577C67.6563 20.2577 67.8315 20.0758 67.8315 19.8738C67.8315 19.6717 67.6563 19.5033 67.4475 19.5033H66.0061C65.8041 19.5033 65.6222 19.6717 65.6222 19.8738C65.6222 20.0758 65.8041 20.2577 66.0061 20.2577H67.4475ZM67.4475 21.9955C67.6563 21.9955 67.8315 21.8271 67.8315 21.625C67.8315 21.423 67.6563 21.2478 67.4475 21.2478H66.0061C65.8041 21.2478 65.6222 21.423 65.6222 21.625C65.6222 21.8271 65.8041 21.9955 66.0061 21.9955H67.4475Z" fill="#AFB5BC"/>
<rect opacity="0.1" x="85.1431" y="13.6799" width="0.811434" height="14.6058" fill="#AFB5BC"/>
<path opacity="0.6" d="M93.0101 22.6057C93.2257 22.6026 93.3905 22.5265 93.568 22.3521L95.828 20.032C95.9547 19.9052 96.0118 19.7625 96.0118 19.5819C96.0118 19.2205 95.717 18.9226 95.362 18.9226C95.1813 18.9226 95.0134 18.9955 94.8771 19.1381L93.0165 21.0811L91.1464 19.1381C91.0101 18.9986 90.8421 18.9226 90.6582 18.9226C90.3032 18.9226 90.0085 19.2205 90.0085 19.5819C90.0085 19.7594 90.0687 19.902 90.1923 20.032L92.4554 22.3521C92.6329 22.5296 92.8009 22.6057 93.0101 22.6057Z" fill="#AFB5BC"/>
<path opacity="0.7" d="M120.272 26.7844C120.387 26.8989 120.535 26.9663 120.71 26.9663C121.06 26.9663 121.323 26.7036 121.323 26.3534C121.323 26.185 121.256 26.0301 121.148 25.9156L116.244 21.1199L121.148 16.3242C121.256 16.2097 121.323 16.048 121.323 15.8863C121.323 15.5361 121.06 15.2667 120.71 15.2667C120.535 15.2667 120.387 15.334 120.272 15.4485L114.938 20.6686C114.81 20.7763 114.736 20.9447 114.736 21.1199C114.736 21.2882 114.803 21.4432 114.931 21.5711L120.272 26.7844Z" fill="#AFB5BC"/>
<path opacity="0.7" d="M1020.92 27.9901C1024.68 27.9901 1027.79 24.8783 1027.79 21.1199C1027.79 17.3682 1024.67 14.2496 1020.92 14.2496C1017.16 14.2496 1014.05 17.3682 1014.05 21.1199C1014.05 24.8783 1017.17 27.9901 1020.92 27.9901ZM1020.92 26.8451C1017.74 26.8451 1015.2 24.299 1015.2 21.1199C1015.2 17.9474 1017.74 15.3947 1020.92 15.3947C1024.09 15.3947 1026.64 17.9474 1026.65 21.1199C1026.65 24.299 1024.1 26.8451 1020.92 26.8451ZM1020.92 24.6021C1021.07 24.6021 1021.19 24.5348 1021.32 24.4068L1023.6 22.1302C1023.69 22.0426 1023.74 21.9214 1023.74 21.7799C1023.74 21.5038 1023.52 21.295 1023.25 21.295C1023.1 21.295 1022.98 21.3489 1022.89 21.4432L1022.06 22.2851L1021.37 23.1068L1021.43 21.6789V18.163C1021.43 17.8733 1021.22 17.6578 1020.92 17.6578C1020.63 17.6578 1020.42 17.8733 1020.42 18.163V21.6789L1020.47 23.0934L1019.8 22.2851L1018.96 21.4432C1018.87 21.3556 1018.75 21.295 1018.6 21.295C1018.32 21.295 1018.11 21.5038 1018.11 21.7799C1018.11 21.9214 1018.15 22.0426 1018.25 22.1302L1020.53 24.4068C1020.67 24.5415 1020.78 24.6021 1020.92 24.6021Z" fill="#AFB5BC"/>
<path opacity="0.7" d="M1057.02 22.9519C1057.31 22.9519 1057.55 22.7094 1057.55 22.4265V15.5092L1057.51 14.4988L1057.96 14.977L1058.99 16.0682C1059.08 16.176 1059.22 16.2299 1059.35 16.2299C1059.63 16.2299 1059.84 16.0278 1059.84 15.7516C1059.84 15.6102 1059.78 15.5024 1059.68 15.4014L1057.4 13.2056C1057.27 13.0709 1057.15 13.0237 1057.02 13.0237C1056.88 13.0237 1056.76 13.0709 1056.63 13.2056L1054.35 15.4014C1054.25 15.5024 1054.19 15.6102 1054.19 15.7516C1054.19 16.0278 1054.39 16.2299 1054.68 16.2299C1054.8 16.2299 1054.95 16.176 1055.05 16.0682L1056.07 14.977L1056.52 14.4988L1056.48 15.5092V22.4265C1056.48 22.7094 1056.73 22.9519 1057.02 22.9519ZM1053.15 28.2258H1060.88C1062.29 28.2258 1062.99 27.5253 1062.99 26.1378V19.4158C1062.99 18.0282 1062.29 17.3277 1060.88 17.3277H1059V18.4122H1060.86C1061.53 18.4122 1061.91 18.7759 1061.91 19.4764V26.0772C1061.91 26.7777 1061.53 27.1414 1060.86 27.1414H1053.17C1052.49 27.1414 1052.12 26.7777 1052.12 26.0772V19.4764C1052.12 18.7759 1052.49 18.4122 1053.17 18.4122H1055.03V17.3277H1053.15C1051.75 17.3277 1051.04 18.0282 1051.04 19.4158V26.1378C1051.04 27.5253 1051.75 28.2258 1053.15 28.2258Z" fill="#AFB5BC"/>
<path opacity="0.7" d="M1092.07 26.7979C1092.4 26.7979 1092.68 26.5352 1092.68 26.2119V21.7328H1097.03C1097.35 21.7328 1097.63 21.4566 1097.63 21.1266C1097.63 20.7965 1097.35 20.5271 1097.03 20.5271H1092.68V16.0413C1092.68 15.718 1092.4 15.4553 1092.07 15.4553C1091.74 15.4553 1091.47 15.718 1091.47 16.0413V20.5271H1087.11C1086.79 20.5271 1086.51 20.7965 1086.51 21.1266C1086.51 21.4566 1086.79 21.7328 1087.11 21.7328H1091.47V26.2119C1091.47 26.5352 1091.74 26.7979 1092.07 26.7979Z" fill="#AFB5BC"/>
<rect x="357.702" y="9.7373" width="389.488" height="22.7201" rx="4.8686" fill="#F1F1F1" fill-opacity="0.2"/>
<path opacity="0.7" d="M732.796 27.118C736.112 27.118 738.858 24.3723 738.858 21.056C738.858 17.7457 736.106 14.994 732.79 14.994C729.48 14.994 726.734 17.7457 726.734 21.056C726.734 24.3723 729.486 27.118 732.796 27.118ZM730.704 21.0619C730.704 21.5314 730.288 21.9475 729.813 21.9475C729.337 21.9475 728.933 21.5314 728.933 21.0619C728.933 20.5865 729.325 20.1705 729.813 20.1705C730.288 20.1705 730.704 20.5924 730.704 21.0619ZM733.67 21.0619C733.67 21.5314 733.265 21.9475 732.79 21.9475C732.315 21.9475 731.91 21.5314 731.91 21.0619C731.91 20.5865 732.309 20.1705 732.79 20.1705C733.265 20.1705 733.67 20.5924 733.67 21.0619ZM736.647 21.0619C736.647 21.5314 736.249 21.9475 735.768 21.9475C735.292 21.9475 734.882 21.5314 734.882 21.0619C734.882 20.5865 735.286 20.1705 735.768 20.1705C736.249 20.1705 736.647 20.5924 736.647 21.0619Z" fill="#AFB5BC"/>
<path fill-rule="evenodd" clip-rule="evenodd" d="M489.608 18.6403V21.6609V22.2969V22.6148H490.244L489.608 23.5369L488.972 24.459L488.336 23.5369L487.7 22.6148H488.368V22.2969V21.6609V18.6403C488.368 17.0822 489.64 15.7786 491.23 15.7786H497.939C499.497 15.7786 500.8 17.0504 500.8 18.6403H499.56C499.56 17.75 498.829 17.0504 497.97 17.0504H491.198C490.339 17.0186 489.608 17.75 489.608 18.6403ZM500.133 19.4988L500.769 20.4209L501.405 21.343H500.769V21.6609V21.9471V25.3175C500.769 26.8756 499.497 28.1792 497.907 28.1792H491.198C489.64 28.1792 488.336 26.9074 488.336 25.3175H489.608C489.608 26.2078 490.339 26.9074 491.198 26.9074H497.907C498.797 26.9074 499.497 26.176 499.497 25.3175V21.9789V21.6927V21.3748H498.861L499.497 20.4527L500.133 19.4988ZM493.455 24.8407H492.342C492.215 24.8407 492.088 24.7135 492.088 24.5545V21.2795C492.088 21.1523 492.183 21.0251 492.342 21.0251H493.455C493.582 21.0251 493.709 21.1205 493.709 21.2795V24.5863C493.709 24.7135 493.614 24.8407 493.455 24.8407ZM495.649 24.8406H496.762C496.921 24.8406 497.016 24.7134 497.016 24.5862V19.4034C497.016 19.2444 496.889 19.149 496.762 19.149H495.649C495.49 19.149 495.395 19.2762 495.395 19.4034V24.5862C495.395 24.7134 495.522 24.8406 495.649 24.8406Z" fill="url(#paint0_linear_2350_34397)"/>
<path d="M512.328 25.8308C513.105 25.8308 513.837 25.3981 514.181 24.7381H514.203V25.731H515.118V21.7427C515.118 20.5945 514.264 19.8623 512.911 19.8623C511.546 19.8623 510.692 20.6278 510.625 21.6262H511.557C511.679 21.0605 512.145 20.711 512.888 20.711C513.687 20.711 514.153 21.1326 514.153 21.837V22.3196L512.5 22.4139C511.169 22.4916 510.409 23.1128 510.409 24.1002C510.409 25.1374 511.18 25.8308 512.328 25.8308ZM512.545 25.0099C511.851 25.0099 511.391 24.6493 511.391 24.1002C511.391 23.5566 511.835 23.2127 512.611 23.1627L514.153 23.0684V23.5399C514.153 24.372 513.454 25.0099 512.545 25.0099ZM519.316 19.8623C518.478 19.8623 517.807 20.2894 517.452 20.9384H517.43V19.9622H516.515V27.6557H517.48V24.7935H517.502C517.846 25.4259 518.511 25.8308 519.338 25.8308C520.791 25.8308 521.784 24.6549 521.784 22.8466C521.784 21.0383 520.786 19.8623 519.316 19.8623ZM519.127 24.9821C518.14 24.9821 517.474 24.1334 517.474 22.8466C517.474 21.5652 518.14 20.711 519.127 20.711C520.153 20.711 520.797 21.543 520.797 22.8466C520.797 24.1556 520.153 24.9821 519.127 24.9821ZM525.732 19.8623C524.894 19.8623 524.223 20.2894 523.868 20.9384H523.846V19.9622H522.931V27.6557H523.896V24.7935H523.918C524.262 25.4259 524.928 25.8308 525.754 25.8308C527.207 25.8308 528.2 24.6549 528.2 22.8466C528.2 21.0383 527.202 19.8623 525.732 19.8623ZM525.543 24.9821C524.556 24.9821 523.89 24.1334 523.89 22.8466C523.89 21.5652 524.556 20.711 525.543 20.711C526.57 20.711 527.213 21.543 527.213 22.8466C527.213 24.1556 526.57 24.9821 525.543 24.9821ZM529.83 25.7864C530.185 25.7864 530.462 25.5091 530.462 25.1541C530.462 24.7991 530.185 24.5217 529.83 24.5217C529.475 24.5217 529.197 24.7991 529.197 25.1541C529.197 25.5091 529.475 25.7864 529.83 25.7864ZM531.969 21.5541C531.969 22.3862 532.496 22.8909 533.583 23.1516L534.499 23.3735C535.159 23.5344 535.386 23.7729 535.386 24.1889C535.386 24.7103 534.903 25.0431 534.121 25.0431C533.339 25.0431 532.895 24.727 532.779 24.0669H531.814C531.925 25.1485 532.768 25.8308 534.121 25.8308C535.408 25.8308 536.357 25.1208 536.357 24.1168C536.357 23.2903 535.935 22.8355 534.77 22.5526L533.855 22.3307C533.212 22.1754 532.918 21.9036 532.918 21.5042C532.918 20.9994 533.384 20.65 534.088 20.65C534.798 20.65 535.242 21.0216 535.314 21.6262H536.235C536.196 20.6056 535.353 19.8623 534.088 19.8623C532.84 19.8623 531.969 20.5668 531.969 21.5541ZM542.268 19.9622H541.303V23.3513C541.303 24.3331 540.737 24.9766 539.8 24.9766C538.907 24.9766 538.469 24.4718 538.469 23.5344V19.9622H537.503V23.7063C537.503 25.0154 538.241 25.8308 539.5 25.8308C540.388 25.8308 540.987 25.4592 541.331 24.7935H541.353V25.731H542.268V19.9622ZM543.692 25.731H544.657V22.1366C544.657 21.3212 545.145 20.7831 545.894 20.7831C546.127 20.7831 546.333 20.8108 546.41 20.8386V19.9012C546.333 19.8901 546.188 19.8623 546.022 19.8623C545.345 19.8623 544.813 20.2673 544.624 20.9051H544.602V19.9622H543.692V25.731ZM547.901 25.731H548.866V20.7554H550.042V19.9622H548.86V19.3243C548.86 18.7529 549.11 18.4756 549.631 18.4756C549.792 18.4756 549.953 18.4922 550.07 18.5089V17.7268C549.931 17.7046 549.698 17.6824 549.482 17.6824C548.417 17.6824 547.901 18.2093 547.901 19.3187V19.9622H547.096V20.7554H547.901V25.731ZM554.761 24.078C554.6 24.6216 554.062 24.9932 553.33 24.9932C552.292 24.9932 551.643 24.2666 551.643 23.1627V23.1073H555.781V22.7412C555.781 20.9939 554.822 19.8623 553.263 19.8623C551.671 19.8623 550.65 21.0771 550.65 22.8688C550.65 24.6826 551.654 25.8308 553.307 25.8308C554.567 25.8308 555.543 25.0875 555.709 24.078H554.761ZM553.246 20.6999C554.156 20.6999 554.761 21.3877 554.783 22.3529H551.649C551.71 21.3933 552.342 20.6999 553.246 20.6999ZM556.928 25.731H557.893V22.1366C557.893 21.3212 558.381 20.7831 559.13 20.7831C559.363 20.7831 559.568 20.8108 559.646 20.8386V19.9012C559.568 19.8901 559.424 19.8623 559.258 19.8623C558.581 19.8623 558.048 20.2673 557.86 20.9051H557.838V19.9622H556.928V25.731ZM560.504 21.5541C560.504 22.3862 561.031 22.8909 562.118 23.1516L563.034 23.3735C563.694 23.5344 563.921 23.7729 563.921 24.1889C563.921 24.7103 563.439 25.0431 562.656 25.0431C561.874 25.0431 561.431 24.727 561.314 24.0669H560.349C560.46 25.1485 561.303 25.8308 562.656 25.8308C563.943 25.8308 564.892 25.1208 564.892 24.1168C564.892 23.2903 564.47 22.8355 563.305 22.5526L562.39 22.3307C561.747 22.1754 561.453 21.9036 561.453 21.5042C561.453 20.9994 561.919 20.65 562.623 20.65C563.333 20.65 563.777 21.0216 563.849 21.6262H564.77C564.731 20.6056 563.888 19.8623 562.623 19.8623C561.375 19.8623 560.504 20.5668 560.504 21.5541ZM569.894 24.078C569.733 24.6216 569.195 24.9932 568.462 24.9932C567.425 24.9932 566.776 24.2666 566.776 23.1627V23.1073H570.914V22.7412C570.914 20.9939 569.955 19.8623 568.396 19.8623C566.804 19.8623 565.783 21.0771 565.783 22.8688C565.783 24.6826 566.787 25.8308 568.44 25.8308C569.699 25.8308 570.676 25.0875 570.842 24.078H569.894ZM568.379 20.6999C569.289 20.6999 569.894 21.3877 569.916 22.3529H566.782C566.843 21.3933 567.475 20.6999 568.379 20.6999ZM574.452 25.8308C576.044 25.8308 577.12 24.6826 577.12 22.8466C577.12 21.005 576.044 19.8623 574.452 19.8623C572.854 19.8623 571.778 21.005 571.778 22.8466C571.778 24.6826 572.854 25.8308 574.452 25.8308ZM574.452 24.9821C573.431 24.9821 572.76 24.2056 572.76 22.8466C572.76 21.4876 573.431 20.711 574.452 20.711C575.472 20.711 576.138 21.4876 576.138 22.8466C576.138 24.2056 575.472 24.9821 574.452 24.9821ZM578.749 25.7864C579.104 25.7864 579.381 25.5091 579.381 25.1541C579.381 24.7991 579.104 24.5217 578.749 24.5217C578.394 24.5217 578.117 24.7991 578.117 25.1541C578.117 25.5091 578.394 25.7864 578.749 25.7864ZM585.448 21.8537C585.326 20.8164 584.466 19.8623 583.024 19.8623C581.432 19.8623 580.373 21.0272 580.373 22.8466C580.373 24.7048 581.438 25.8308 583.035 25.8308C584.344 25.8308 585.309 25.021 585.459 23.8727H584.511C584.344 24.5661 583.828 24.9821 583.041 24.9821C582.042 24.9821 581.354 24.1889 581.354 22.8466C581.354 21.5375 582.031 20.711 583.03 20.711C583.878 20.711 584.366 21.2269 584.505 21.8537H585.448ZM588.908 25.8308C590.5 25.8308 591.576 24.6826 591.576 22.8466C591.576 21.005 590.5 19.8623 588.908 19.8623C587.31 19.8623 586.234 21.005 586.234 22.8466C586.234 24.6826 587.31 25.8308 588.908 25.8308ZM588.908 24.9821C587.887 24.9821 587.216 24.2056 587.216 22.8466C587.216 21.4876 587.887 20.711 588.908 20.711C589.928 20.711 590.594 21.4876 590.594 22.8466C590.594 24.2056 589.928 24.9821 588.908 24.9821ZM592.722 25.731H593.688V22.1144C593.688 21.3156 594.242 20.7166 595.008 20.7166C595.723 20.7166 596.189 21.1714 596.189 21.8648V25.731H597.154V22.0644C597.154 21.2823 597.692 20.7166 598.458 20.7166C599.218 20.7166 599.656 21.1825 599.656 21.9702V25.731H600.621V21.7483C600.621 20.6056 599.884 19.8623 598.741 19.8623C597.931 19.8623 597.254 20.2728 596.933 20.9606H596.91C596.661 20.2617 596.078 19.8623 595.291 19.8623C594.514 19.8623 593.926 20.2728 593.654 20.883H593.632V19.9622H592.722V25.731Z" fill="#AFB5BC"/>
<path opacity="0.7" d="M607.822 26.979H613.13C613.835 26.979 614.184 26.6351 614.184 25.8641V21.7372C614.184 21.0105 613.874 20.6611 613.247 20.6223V19.2799C613.247 17.3274 611.977 16.2624 610.473 16.2624C608.97 16.2624 607.7 17.3274 607.7 19.2799V20.6333C607.106 20.6944 606.763 21.0438 606.763 21.7372V25.8641C606.763 26.6351 607.112 26.979 607.822 26.979ZM608.388 19.2133C608.388 17.7656 609.303 16.9114 610.473 16.9114C611.644 16.9114 612.565 17.7656 612.565 19.2133V20.6223L608.388 20.6278V19.2133Z" fill="#AFB5BC"/>
<defs>
<linearGradient id="paint0_linear_2350_34397" x1="487.7" y1="28.1792" x2="503.293" y2="24.9776" gradientUnits="userSpaceOnUse">
<stop stop-color="#FF4087"/>
<stop offset="1" stop-color="#FFC056"/>
</linearGradient>
</defs>
</svg>
