<svg width="100%" style="" viewBox="0 0 20 20" fill="currentColor" xmlns="http://www.w3.org/2000/svg">
<path d="M15.8333 2.22925C16 2.22925 16.1667 2.31258 16.25 2.39592C16.5 2.64592 16.5 3.06258 16.25 3.31258L4.58333 14.9792C4.33333 15.2292 3.91667 15.2292 3.66667 14.9792C3.41667 14.7292 3.41667 14.3126 3.66667 14.0626L15.3333 2.39592C15.5 2.22925 15.6667 2.22925 15.8333 2.22925Z" fill="currentColor"></path>
<path d="M7.25 2.22917H15.8333C16.1667 2.22917 16.5 2.47917 16.5 2.89583V11.3958C16.5 11.7292 16.25 12.0625 15.8333 12.0625C15.4167 12.0625 15.1667 11.8125 15.1667 11.3958V3.47917H7.25C6.91667 3.47917 6.58333 3.22917 6.58333 2.8125C6.58333 2.39583 6.91667 2.22917 7.25 2.22917Z" fill="currentColor"></path>
<path d="M2.91667 19.0001H17.0833C17.4167 19.0001 17.75 18.7501 17.75 18.3334C17.75 17.9167 17.5 17.6667 17.0833 17.6667H2.91667C2.58333 17.6667 2.25 17.9167 2.25 18.3334C2.25 18.7501 2.58333 19.0001 2.91667 19.0001Z" fill="currentColor"></path>
</svg>