<svg width="100%" style="" viewBox="0 0 17 16" fill="none" xmlns="http://www.w3.org/2000/svg">
<path opacity="0.4" d="M8.50001 3.5333V14.22C8.38668 14.22 8.26668 14.2 8.17334 14.1466L8.14668 14.1333C6.86668 13.4333 4.63334 12.7 3.18668 12.5066L2.99334 12.48C2.35334 12.4 1.83334 11.8 1.83334 11.16V3.10663C1.83334 2.3133 2.48001 1.7133 3.27334 1.77996C4.67334 1.8933 6.79334 2.59996 7.98001 3.33996L8.14668 3.43996C8.24668 3.49996 8.37334 3.5333 8.50001 3.5333Z" fill="#7934CB"></path>
<path d="M15.1667 3.11327V11.1599C15.1667 11.7999 14.6467 12.3999 14.0067 12.4799L13.7867 12.5066C12.3333 12.6999 10.0933 13.4399 8.81333 14.1466C8.72667 14.1999 8.62 14.2199 8.5 14.2199V3.53327C8.62667 3.53327 8.75333 3.49994 8.85333 3.43994L8.96667 3.3666C10.1533 2.61994 12.28 1.9066 13.68 1.7866H13.72C14.5133 1.71994 15.1667 2.31327 15.1667 3.11327Z" fill="#7934CB"></path>
<path d="M5.66666 6.15991H4.16666C3.89332 6.15991 3.66666 5.93325 3.66666 5.65991C3.66666 5.38658 3.89332 5.15991 4.16666 5.15991H5.66666C5.93999 5.15991 6.16666 5.38658 6.16666 5.65991C6.16666 5.93325 5.93999 6.15991 5.66666 6.15991Z" fill="#7934CB"></path>
<path d="M6.16666 8.15991H4.16666C3.89332 8.15991 3.66666 7.93325 3.66666 7.65991C3.66666 7.38658 3.89332 7.15991 4.16666 7.15991H6.16666C6.43999 7.15991 6.66666 7.38658 6.66666 7.65991C6.66666 7.93325 6.43999 8.15991 6.16666 8.15991Z" fill="#7934CB"></path>
</svg>