<svg width="100%" viewBox="0 0 24 24" fill="currentColor" xmlns="http://www.w3.org/2000/svg">
<rect opacity="0.4" x="2.51807" y="4.9043" width="17.9637" height="14.0226" rx="2" fill="currentColor"></rect>
<rect x="1.46338" y="16.0435" width="20.0723" height="2.88308" rx="1" fill="currentColor"></rect>
<path d="M11.6041 11.8791C11.3649 11.8791 11.1666 11.6808 11.1666 11.4416V8.11663C11.1374 6.5358 11.7266 5.04247 12.8232 3.92247C13.9199 2.8083 15.3899 2.1958 16.9707 2.1958C20.2024 2.1958 22.8332 4.82663 22.8332 8.0583V11.3833C22.8332 11.6225 22.6349 11.8208 22.3957 11.8208C22.1566 11.8208 21.9582 11.6225 21.9582 11.3833V8.0583C21.9582 5.3108 19.7241 3.0708 16.9707 3.0708C15.6232 3.0708 14.3749 3.58997 13.4474 4.53497C12.5141 5.4858 12.0182 6.75163 12.0416 8.10497V11.4358C12.0416 11.6808 11.8491 11.8791 11.6041 11.8791Z" fill="currentColor"></path>
<path d="M13.4648 8.2627H13.389C12.164 8.2627 11.1665 9.2602 11.1665 10.4852V11.5819C11.1665 12.8069 12.164 13.8044 13.389 13.8044H13.4648C14.6898 13.8044 15.6873 12.8069 15.6873 11.5819V10.4852C15.6873 9.2602 14.6898 8.2627 13.4648 8.2627Z" fill="currentColor"></path>
<path d="M20.6108 8.2627H20.535C19.31 8.2627 18.3125 9.2602 18.3125 10.4852V11.5819C18.3125 12.8069 19.31 13.8044 20.535 13.8044H20.6108C21.8358 13.8044 22.8333 12.8069 22.8333 11.5819V10.4852C22.8333 9.2602 21.8358 8.2627 20.6108 8.2627Z" fill="currentColor"></path>
</svg>