<svg width="32" height="32" viewBox="0 0 32 32" fill="none" xmlns="http://www.w3.org/2000/svg">
<g filter="url(#filter0_iii_21624_45)">
<path d="M27.8056 2.16652C29.4922 3.11099 30.0937 5.24385 29.1493 6.9304L17.6392 27.4842C16.3944 29.7069 13.4166 30.2152 11.505 28.5312L2.7819 20.8465C1.33145 19.5688 1.19148 17.3571 2.46925 15.9067C3.74702 14.4562 5.95867 14.3163 7.40911 15.594L12.8816 20.415C13.1205 20.6255 13.4927 20.562 13.6483 20.2841L23.0417 3.51018C23.9862 1.82363 26.1191 1.22205 27.8056 2.16652Z" fill="url(#paint0_linear_21624_45)"/>
<path d="M27.8056 2.16652C29.4922 3.11099 30.0937 5.24385 29.1493 6.9304L17.6392 27.4842C16.3944 29.7069 13.4166 30.2152 11.505 28.5312L2.7819 20.8465C1.33145 19.5688 1.19148 17.3571 2.46925 15.9067C3.74702 14.4562 5.95867 14.3163 7.40911 15.594L12.8816 20.415C13.1205 20.6255 13.4927 20.562 13.6483 20.2841L23.0417 3.51018C23.9862 1.82363 26.1191 1.22205 27.8056 2.16652Z" fill="url(#paint1_radial_21624_45)"/>
</g>
<g filter="url(#filter1_f_21624_45)">
<path d="M25.4695 6.86464L15.2076 25.0112C14.8966 25.5611 14.16 25.6884 13.6825 25.2749L6.46906 19.0282" stroke="url(#paint2_linear_21624_45)" stroke-width="1.5" stroke-linecap="round"/>
</g>
<defs>
<filter id="filter0_iii_21624_45" x="1.09546" y="0.719666" width="30.5007" height="29.3107" filterUnits="userSpaceOnUse" color-interpolation-filters="sRGB">
<feFlood flood-opacity="0" result="BackgroundImageFix"/>
<feBlend mode="normal" in="SourceGraphic" in2="BackgroundImageFix" result="shape"/>
<feColorMatrix in="SourceAlpha" type="matrix" values="0 0 0 0 0 0 0 0 0 0 0 0 0 0 0 0 0 0 127 0" result="hardAlpha"/>
<feOffset dx="2" dy="-1"/>
<feGaussianBlur stdDeviation="1.5"/>
<feComposite in2="hardAlpha" operator="arithmetic" k2="-1" k3="1"/>
<feColorMatrix type="matrix" values="0 0 0 0 0.176471 0 0 0 0 0.521569 0 0 0 0 0.309804 0 0 0 1 0"/>
<feBlend mode="normal" in2="shape" result="effect1_innerShadow_21624_45"/>
<feColorMatrix in="SourceAlpha" type="matrix" values="0 0 0 0 0 0 0 0 0 0 0 0 0 0 0 0 0 0 127 0" result="hardAlpha"/>
<feOffset dy="-1"/>
<feGaussianBlur stdDeviation="1.5"/>
<feComposite in2="hardAlpha" operator="arithmetic" k2="-1" k3="1"/>
<feColorMatrix type="matrix" values="0 0 0 0 0.25098 0 0 0 0 0.490196 0 0 0 0 0.462745 0 0 0 1 0"/>
<feBlend mode="normal" in2="effect1_innerShadow_21624_45" result="effect2_innerShadow_21624_45"/>
<feColorMatrix in="SourceAlpha" type="matrix" values="0 0 0 0 0 0 0 0 0 0 0 0 0 0 0 0 0 0 127 0" result="hardAlpha"/>
<feOffset dx="-0.5" dy="0.5"/>
<feGaussianBlur stdDeviation="0.5"/>
<feComposite in2="hardAlpha" operator="arithmetic" k2="-1" k3="1"/>
<feColorMatrix type="matrix" values="0 0 0 0 0.356863 0 0 0 0 0.905882 0 0 0 0 0.560784 0 0 0 1 0"/>
<feBlend mode="normal" in2="effect2_innerShadow_21624_45" result="effect3_innerShadow_21624_45"/>
</filter>
<filter id="filter1_f_21624_45" x="3.71906" y="4.1145" width="24.5005" height="24.1547" filterUnits="userSpaceOnUse" color-interpolation-filters="sRGB">
<feFlood flood-opacity="0" result="BackgroundImageFix"/>
<feBlend mode="normal" in="SourceGraphic" in2="BackgroundImageFix" result="shape"/>
<feGaussianBlur stdDeviation="1" result="effect1_foregroundBlur_21624_45"/>
</filter>
<linearGradient id="paint0_linear_21624_45" x1="15.5958" y1="5.28593" x2="15.5958" y2="38.4618" gradientUnits="userSpaceOnUse">
<stop stop-color="#5AD98F"/>
<stop offset="1" stop-color="#51C685"/>
</linearGradient>
<radialGradient id="paint1_radial_21624_45" cx="0" cy="0" r="1" gradientUnits="userSpaceOnUse" gradientTransform="translate(27.3674 3.80858) rotate(136.966) scale(2.14727 2.50684)">
<stop stop-color="#80FFB3"/>
<stop offset="1" stop-color="#80FFB3" stop-opacity="0"/>
</radialGradient>
<linearGradient id="paint2_linear_21624_45" x1="26.4781" y1="11.6676" x2="4.20645" y2="11.6676" gradientUnits="userSpaceOnUse">
<stop stop-color="#66F39D"/>
<stop offset="1" stop-color="#60E496"/>
</linearGradient>
</defs>
</svg>
