<svg width="236" height="234" viewBox="0 0 236 234" fill="none" xmlns="http://www.w3.org/2000/svg">
<rect width="234.942" height="233.215" transform="translate(0.610352)" fill="white"/>
<g clip-path="url(#clip0_2362_35110)">
<path d="M170.478 114.214L165.886 111.724C163.87 101.876 159.054 93.0686 152.296 86.119C148.488 82.1798 144.083 78.8723 139.192 76.2709V73.3722C139.192 71.8485 136.28 70.4735 131.576 69.5073C127.17 68.5782 121.197 68.0208 114.626 68.0208C112.312 68.0208 110.071 68.0951 107.906 68.2066C97.602 68.8383 90.0605 70.9195 90.0605 73.335V76.2338C86.7751 77.9804 83.7138 80.0615 80.8764 82.4399C72.1029 89.8726 65.7935 100.092 63.3668 111.724L58.7747 114.214C56.684 115.329 55.564 117.67 55.9747 119.975L60.1561 143.35C60.5667 145.728 62.5081 147.512 64.8975 147.81L71.9162 148.664C75.7243 152.752 80.5404 155.948 86.1031 158.29C93.5699 161.448 102.343 163.121 111.789 163.381C112.722 163.418 113.693 163.418 114.626 163.418C121.832 163.418 128.701 162.637 134.973 161.04C143.187 158.921 150.355 155.354 155.768 150.225C156.403 149.631 157.038 148.999 157.635 148.33L164.243 147.698C166.707 147.475 168.686 145.654 169.134 143.201L173.278 119.937C173.688 117.67 172.568 115.329 170.478 114.214Z" fill="url(#paint0_linear_2362_35110)"/>
<path d="M114.627 150.67C102.157 150.67 91.9278 148.106 85.0583 143.238C78.3756 138.518 75.1274 131.643 75.1274 122.241C75.1274 100.537 92.8611 82.885 114.664 82.885C136.467 82.885 154.201 100.537 154.201 122.241C154.201 131.643 150.953 138.481 144.27 143.238C137.326 148.106 127.096 150.67 114.627 150.67Z" fill="white"/>
<path d="M114.625 141.604C106.86 141.604 99.6542 137.07 96.2568 130.083L102.529 127.11C104.806 131.793 109.436 134.729 114.625 134.729C119.814 134.729 124.481 131.83 126.721 127.11L132.993 130.083C129.596 137.07 122.391 141.604 114.625 141.604Z" fill="#180A29"/>
</g>
<defs>
<linearGradient id="paint0_linear_2362_35110" x1="86.1336" y1="155.296" x2="150.011" y2="85.4352" gradientUnits="userSpaceOnUse">
<stop stop-color="#FF61D3"/>
<stop offset="0.5" stop-color="#B318FF"/>
<stop offset="1" stop-color="#00F0FF"/>
</linearGradient>
<clipPath id="clip0_2362_35110">
<rect width="117.471" height="117.471" fill="white" transform="translate(55.8906 57.0078)"/>
</clipPath>
</defs>
</svg>
