<svg xmlns="http://www.w3.org/2000/svg" viewBox="0 0 878 932" width="878" height="932" preserveAspectRatio="xMidYMid meet" style="width: 100%; height: 100%; transform: translate3d(0px, 0px, 0px);"><defs><clipPath id="__lottie_element_41"><rect width="878" height="932" x="0" y="0"></rect></clipPath></defs><g clip-path="url(#__lottie_element_41)"><g transform="matrix(1,0,0,1,436,482)" opacity="1" style="display: block;"><g opacity="1" transform="matrix(1,0,0,1,0,0)"><path stroke-linecap="round" stroke-linejoin="round" fill-opacity="0" stroke="rgb(0,0,0)" stroke-opacity="1" stroke-width="50" d=" M-131.56100463867188,131.76199340820312 C-159.7689971923828,118.68299865722656 -189.44400024414062,116.53700256347656 -217.63099670410156,144.7239990234375 C-217.63099670410156,144.7239990234375 -252.68099975585938,179.77499389648438 -252.68099975585938,179.77499389648438 C-280.1289978027344,207.22300720214844 -290.01300048828125,246.48399353027344 -263.2879943847656,274.6369934082031 C-163.92599487304688,379.3110046386719 -17.586999893188477,384.24200439453125 62.81800079345703,305.510009765625 C133,236.78799438476562 247.8000030517578,114.36599731445312 320.7340087890625,47.59299850463867 C394.40399169921875,-19.854000091552734 408.3800048828125,-158.375 293.9939880371094,-272.7460021972656 C262.47100830078125,-304.2650146484375 223.75100708007812,-293.8299865722656 196.30299377441406,-266.3819885253906 C196.30299377441406,-266.3819885253906 163.37399291992188,-233.4530029296875 163.37399291992188,-233.4530029296875 C140.02999877929688,-210.10899353027344 139.49099731445312,-180.5489959716797 147.2449951171875,-149.83700561523438 C160.13699340820312,-98.77100372314453 220.43299865722656,-61.96699905395508 119.16799926757812,27.983999252319336 C119.16799926757812,27.983999252319336 43.80500030517578,103.34600067138672 43.80500030517578,103.34600067138672 C-40.73699951171875,190.6929931640625 -76.12100219726562,157.46800231933594 -131.56100463867188,131.76199340820312z"></path></g></g><g transform="matrix(1,0,0,1,436,482)" opacity="1" style="display: none;"><g opacity="1" transform="matrix(1,0,0,1,0,0)"><path stroke-linecap="round" stroke-linejoin="round" fill-opacity="0" stroke="rgb(0,0,0)" stroke-opacity="1" stroke-width="21.114588589591893" d=" M-277.2380065917969,-71.89544677734375 C-277.2389831542969,-97.80744934082031 -268.11517333984375,-177.70098876953125 -215.73013305664062,-237.37033081054688 C-140.43287658691406,-323.7794494628906 -49.55255889892578,-324.25341796875 -23.641557693481445,-324.25341796875"></path></g></g><g transform="matrix(1,0,0,1,436,482)" opacity="1" style="display: none;"><g opacity="1" transform="matrix(1,0,0,1,0,0)"><path stroke-linecap="round" stroke-linejoin="round" fill-opacity="0" stroke="rgb(0,0,0)" stroke-opacity="1" stroke-width="5.724918609308141" d=" M-157.46571350097656,-71.1866683959961 C-157.46670532226562,-97.09867095947266 -148.2952117919922,-134.05189514160156 -121.08905792236328,-163.29441833496094 C-88.94573211669922,-198.29586791992188 -50.01728057861328,-204.59469604492188 -24.106281280517578,-204.59469604492188"></path></g></g><g transform="matrix(1,0,0,1,436,482)" opacity="1" style="display: block;"><g opacity="1" transform="matrix(1,0,0,1,0,0)"><path stroke-linecap="round" stroke-linejoin="round" fill-opacity="0" stroke="rgb(0,0,0)" stroke-opacity="1" stroke-width="8.155396331270175" d=" M-125.427001953125,-71.3499984741211 C-125.4280014038086,-97.26200103759766 -115.54299926757812,-123.1729965209961 -95.77300262451172,-142.9429931640625 C-76.00399780273438,-162.71200561523438 -50.09299850463867,-172.5970001220703 -24.18199920654297,-172.5970001220703"></path></g></g></g></svg>