<svg width="347" height="80" viewBox="0 0 347 80" fill="none" xmlns="http://www.w3.org/2000/svg">
<g clip-path="url(#clip0_106_11755)">
<path fill-rule="evenodd" clip-rule="evenodd" d="M91.8193 36.6498L95.6525 38.7378C97.3978 39.6728 98.3327 41.6362 97.9899 43.5372L94.5306 63.0464C94.1566 65.1032 92.5049 66.6303 90.448 66.8173L84.9318 67.3471C84.4332 67.9081 83.9034 68.4379 83.3736 68.9365C78.8547 73.2372 72.8711 76.2291 66.0148 78.0055C60.7791 79.3455 55.0448 80 49.03 80C48.2509 80 47.4406 80 46.6615 79.9688C38.7768 79.7507 31.4531 78.3483 25.2201 75.6993C20.5766 73.7359 16.5563 71.0557 13.3775 67.6276L7.51853 66.9108C5.52399 66.6615 3.90342 65.1656 3.56061 63.171L0.0701529 43.5684C-0.27266 41.6362 0.662283 39.6728 2.40751 38.7378L6.24078 36.6498C8.26649 26.8952 13.5333 18.3249 20.8571 12.0919C23.2256 10.0974 25.7811 8.35216 28.5236 6.88742V4.45656C28.5236 2.43085 34.8189 0.685625 43.4204 0.155824C45.2279 0.0623296 47.0978 0 49.03 0C54.515 0 59.5014 0.467472 63.1788 1.24659C67.1056 2.05688 69.5364 3.20997 69.5364 4.48773V6.91858C73.619 9.10012 77.2965 11.8738 80.4753 15.1772C86.1161 21.0051 90.1364 28.3911 91.8193 36.6498ZM24.3478 63.0774C30.0821 67.16 38.6213 69.3103 49.0303 69.3103C59.4393 69.3103 67.9785 67.16 73.7751 63.0774C79.3536 59.0883 82.065 53.354 82.065 45.4693C82.065 27.2691 67.2617 12.4658 49.0615 12.4658C30.8612 12.4658 16.058 27.2691 16.058 45.4693C16.058 53.354 18.7693 59.1195 24.3478 63.0774Z" fill="url(#paint0_linear_106_11755)"/>
<path d="M49.0301 61.7063C42.5478 61.7063 36.533 57.9042 33.697 52.0452L38.9327 49.552C40.8338 53.4788 44.6982 55.9408 49.0301 55.9408C53.362 55.9408 57.2576 53.51 59.1275 49.552L64.3631 52.0452C61.5271 57.9042 55.5124 61.7063 49.0301 61.7063Z" fill="#121826"/>
<path d="M137.557 62.651C134.559 62.651 131.785 62.0693 129.235 60.906C126.729 59.698 124.671 58.0201 123.06 55.8725L128.027 49.8993C130.622 53.4787 133.731 55.2685 137.355 55.2685C142.232 55.2685 144.671 52.3825 144.671 46.6107V22.3154V15H153.396V46.1409C153.396 51.6443 152.053 55.783 149.369 58.557C146.684 61.2864 142.747 62.651 137.557 62.651Z" fill="white"/>
<path d="M176.002 25.7383C181.281 25.7383 185.308 27.0134 188.082 29.5638C190.901 32.0693 192.311 35.8725 192.311 40.9732V61.9799H184.391V57.6174C183.362 59.1834 181.886 60.3915 179.962 61.2416C178.082 62.047 175.801 62.4497 173.116 62.4497C170.431 62.4497 168.082 62.0022 166.069 61.1074C164.056 60.1678 162.49 58.8926 161.371 57.2819C160.297 55.6264 159.76 53.7696 159.76 51.7114C159.76 48.4899 160.946 45.9172 163.317 43.9933C165.733 42.0246 169.514 41.0403 174.66 41.0403H183.921V40.5034C183.921 37.9978 183.161 36.0738 181.639 34.7315C180.163 33.3893 177.948 32.7181 174.995 32.7181C172.982 32.7181 170.991 33.0313 169.022 33.6577C167.098 34.2841 165.465 35.1566 164.123 36.2752L160.834 30.1678C162.713 28.736 164.973 27.6398 167.613 26.8792C170.252 26.1186 173.049 25.7383 176.002 25.7383ZM174.861 56.3423C176.964 56.3423 178.821 55.8725 180.431 54.9329C182.087 53.9485 183.25 52.5615 183.921 50.7718V46.6107H175.264C170.431 46.6107 168.015 48.1991 168.015 51.3758C168.015 52.8971 168.619 54.1051 169.827 55C171.035 55.8949 172.713 56.3423 174.861 56.3423Z" fill="white"/>
<path d="M214.151 62.4497C211.243 62.4497 208.402 62.0693 205.627 61.3087C202.853 60.5481 200.639 59.5861 198.983 58.4228L202.205 52.047C203.815 53.1208 205.739 53.9933 207.976 54.6644C210.258 55.2908 212.495 55.604 214.688 55.604C219.699 55.604 222.205 54.2841 222.205 51.6443C222.205 50.3915 221.556 49.519 220.258 49.0268C219.006 48.5347 216.97 48.0649 214.151 47.6174C211.198 47.17 208.782 46.6555 206.903 46.0738C205.068 45.4922 203.457 44.4855 202.07 43.0537C200.728 41.5772 200.057 39.5414 200.057 36.9463C200.057 33.5459 201.466 30.8389 204.285 28.8255C207.149 26.7673 210.997 25.7383 215.829 25.7383C218.29 25.7383 220.751 26.0291 223.211 26.6107C225.672 27.1477 227.686 27.8859 229.252 28.8255L226.03 35.2013C222.988 33.4116 219.565 32.5168 215.762 32.5168C213.301 32.5168 211.422 32.8971 210.124 33.6577C208.871 34.3736 208.245 35.3356 208.245 36.5436C208.245 37.8859 208.916 38.8479 210.258 39.4295C211.645 39.9664 213.771 40.481 216.634 40.9732C219.498 41.4206 221.847 41.9351 223.681 42.5168C225.516 43.0984 227.082 44.0828 228.379 45.4698C229.721 46.8568 230.393 48.8255 230.393 51.3758C230.393 54.7315 228.938 57.4161 226.03 59.4295C223.122 61.443 219.162 62.4497 214.151 62.4497Z" fill="white"/>
<path d="M257.483 25.7383C260.973 25.7383 264.083 26.4989 266.812 28.0201C269.586 29.5414 271.756 31.689 273.322 34.4631C274.888 37.2371 275.671 40.4362 275.671 44.0604C275.671 47.6846 274.888 50.906 273.322 53.7248C271.756 56.4989 269.586 58.6465 266.812 60.1678C264.083 61.689 260.973 62.4497 257.483 62.4497C252.651 62.4497 248.825 60.8389 246.007 57.6174V75H237.617V26.1409H245.604V30.8389C246.991 29.1387 248.691 27.8635 250.705 27.0134C252.763 26.1633 255.022 25.7383 257.483 25.7383ZM256.543 55.2685C259.631 55.2685 262.159 54.2394 264.127 52.1812C266.141 50.123 267.147 47.4161 267.147 44.0604C267.147 40.7047 266.141 37.9978 264.127 35.9396C262.159 33.8814 259.631 32.8524 256.543 32.8524C254.53 32.8524 252.718 33.3221 251.107 34.2617C249.496 35.1566 248.221 36.4541 247.282 38.1544C246.342 39.8546 245.872 41.8233 245.872 44.0604C245.872 46.2975 246.342 48.2662 247.282 49.9664C248.221 51.6667 249.496 52.9866 251.107 53.9262C252.718 54.821 254.53 55.2685 256.543 55.2685Z" fill="white"/>
<path d="M317.318 44.2617C317.318 44.8434 317.274 45.6711 317.184 46.745H289.063C289.556 49.3848 290.831 51.4877 292.889 53.0537C294.992 54.5749 297.587 55.3356 300.674 55.3356C304.611 55.3356 307.855 54.038 310.406 51.443L314.902 56.6107C313.292 58.5347 311.256 59.9888 308.795 60.9732C306.334 61.9575 303.56 62.4497 300.473 62.4497C296.535 62.4497 293.068 61.6667 290.07 60.1007C287.072 58.5347 284.746 56.3647 283.09 53.5906C281.479 50.7718 280.674 47.5951 280.674 44.0604C280.674 40.5705 281.457 37.4385 283.023 34.6644C284.634 31.8456 286.849 29.6532 289.667 28.0872C292.486 26.5213 295.663 25.7383 299.198 25.7383C302.688 25.7383 305.797 26.5213 308.526 28.0872C311.301 29.6085 313.448 31.7785 314.969 34.5973C316.535 37.3714 317.318 40.5928 317.318 44.2617ZM299.198 32.4497C296.513 32.4497 294.231 33.255 292.352 34.8658C290.518 36.4318 289.399 38.5347 288.996 41.1745H309.332C308.974 38.5794 307.878 36.4765 306.043 34.8658C304.209 33.255 301.927 32.4497 299.198 32.4497Z" fill="white"/>
<path d="M333.363 31.3758C335.779 27.6174 340.03 25.7383 346.115 25.7383V33.7248C345.399 33.5906 344.75 33.5235 344.169 33.5235C340.903 33.5235 338.352 34.4855 336.518 36.4094C334.683 38.2886 333.766 41.0179 333.766 44.5973V61.9799H325.377V26.1409H333.363V31.3758Z" fill="white"/>
</g>
<defs>
<linearGradient id="paint0_linear_106_11755" x1="25.2456" y1="73.1891" x2="78.8342" y2="14.8488" gradientUnits="userSpaceOnUse">
<stop stop-color="#FF61D3"/>
<stop offset="0.5" stop-color="#B318FF"/>
<stop offset="1" stop-color="#00F0FF"/>
</linearGradient>
<clipPath id="clip0_106_11755">
<rect width="347" height="80" fill="white"/>
</clipPath>
</defs>
</svg>
