<svg width="44" height="39" viewBox="0 0 44 39" fill="none" xmlns="http://www.w3.org/2000/svg">
<g clip-path="url(#clip0_5945_914)">
<path d="M25 28.5H28.5C29 28.5 29.3 28.1 29.3 27.7V11.4C29.3 10.9 28.9 10.6 28.5 10.6H25C24.5 10.6 24.2 11 24.2 11.4V27.7C24.2 28.1 24.6 28.5 25 28.5ZM6 9V18.5V20.5V21.5H8L6 24.4L4 27.3L2 24.4L0 21.5H2.1V20.5V18.5V9C2.1 4.1 6.1 0 11.1 0H32.2C37.1 0 41.2 4 41.2 9H37.3C37.3 6.2 35 4 32.3 4H11C8.3 3.9 6 6.2 6 9ZM39.1 11.7L41.1 14.6L43.1 17.5H41.1V18.5V19.4V30C41.1 34.9 37.1 39 32.1 39H11C6.1 39 2 35 2 30H6C6 32.8 8.3 35 11 35H32.1C34.9 35 37.1 32.7 37.1 30V19.5V18.6V17.6H35.1L37.1 14.7L39.1 11.7ZM14.6 28.5H18.1C18.6 28.5 18.9 28.1 18.9 27.7V17.3C18.9 16.8 18.5 16.5 18.1 16.5H14.6C14.1 16.5 13.8 16.9 13.8 17.3V27.6C13.8 28.1 14.2 28.5 14.6 28.5Z" fill="url(#paint0_linear_5945_914)"/>
</g>
<defs>
<linearGradient id="paint0_linear_5945_914" x1="2.71327e-07" y1="39" x2="49.0402" y2="28.9309" gradientUnits="userSpaceOnUse">
<stop stop-color="#FF4087"/>
<stop offset="1" stop-color="#FFC056"/>
</linearGradient>
<clipPath id="clip0_5945_914">
<rect width="43.1" height="39" fill="white"/>
</clipPath>
</defs>
</svg>
