<svg width="100%" height="100%" style="" viewBox="0 0 26 23" fill="currentColor" xmlns="http://www.w3.org/2000/svg">
<path opacity="0.4" d="M5.17145 6.46664L25.1425 7.54204L24.6263 17.1282C24.5669 18.2311 23.6247 19.0771 22.5217 19.0177L6.54483 18.1574C5.44185 18.098 4.59587 17.1557 4.65526 16.0528L5.17145 6.46664Z" fill="currentColor"></path>
<path d="M5.36499 2.87183C5.42439 1.76886 6.36667 0.922872 7.46964 0.982265L23.4465 1.84258C24.5495 1.90197 25.3955 2.84425 25.3361 3.94723L25.1425 7.54202L5.17142 6.46663L5.36499 2.87183Z" fill="currentColor"></path>
<rect opacity="0.5" x="0.431519" y="14.4889" width="20.1681" height="2" rx="1" transform="rotate(-2.3676 0.431519 14.4889)" fill="currentColor"></rect>
<rect x="0.818176" y="8.59933" width="7.3775" height="13.7971" rx="2" transform="rotate(-2.3676 0.818176 8.59933)" fill="currentColor"></rect>
<rect x="12.3397" y="8.12296" width="7.3775" height="13.7971" rx="2" transform="rotate(-2.3676 12.3397 8.12296)" fill="currentColor"></rect>
</svg>