<svg xmlns="http://www.w3.org/2000/svg" viewBox="0 0 738 830" width="738" height="830" preserveAspectRatio="xMidYMid meet" style="width: 100%; height: 100%; transform: translate3d(0px, 0px, 0px);"><defs><clipPath id="__lottie_element_42"><rect width="738" height="830" x="0" y="0"></rect></clipPath><filter id="__lottie_element_50" filterUnits="objectBoundingBox" x="0%" y="0%" width="100%" height="100%"><feComponentTransfer in="SourceGraphic"><feFuncA type="table" tableValues="1.0 0.0"></feFuncA></feComponentTransfer></filter><mask id="__lottie_element_49" mask-type="alpha"><g filter="url(#__lottie_element_50)"><rect width="738" height="830" x="0" y="0" fill="#ffffff" opacity="0"></rect><g transform="matrix(1,0,0,1,368,372)" opacity="1" style="display: none;"><g opacity="1" transform="matrix(1,0,0,1,-16,-16)"><path fill="rgb(0,0,0)" fill-opacity="1" d=" M207,-120 C207,-120 207,225 207,225 C207,225 -238,225 -238,225 C-238,225 -238,-120 -238,-120 C-238,-120 207,-120 207,-120z"></path><path stroke-linecap="butt" stroke-linejoin="miter" fill-opacity="0" stroke-miterlimit="4" stroke="rgb(0,0,0)" stroke-opacity="1" stroke-width="1" d=" M207,-120 C207,-120 207,225 207,225 C207,225 -238,225 -238,225 C-238,225 -238,-120 -238,-120 C-238,-120 207,-120 207,-120z"></path></g></g></g></mask><filter id="__lottie_element_103" filterUnits="objectBoundingBox" x="0%" y="0%" width="100%" height="100%"><feComponentTransfer in="SourceGraphic"><feFuncA type="table" tableValues="1.0 0.0"></feFuncA></feComponentTransfer></filter><mask id="__lottie_element_102" mask-type="alpha"><g filter="url(#__lottie_element_103)"><rect width="738" height="830" x="0" y="0" fill="#ffffff" opacity="0"></rect><g transform="matrix(1,0,0,1,368,372)" opacity="1" style="display: block;"><g opacity="1" transform="matrix(1,0,0,1,-16,-16)"><path fill="rgb(0,0,0)" fill-opacity="1" d=" M207,-120 C207,-120 206,213 206,213 C206,213 -239,213 -239,213 C-239,213 -238,-120 -238,-120 C-238,-120 207,-120 207,-120z"></path><path stroke-linecap="butt" stroke-linejoin="miter" fill-opacity="0" stroke-miterlimit="4" stroke="rgb(0,0,0)" stroke-opacity="1" stroke-width="1" d=" M207,-120 C207,-120 206,213 206,213 C206,213 -239,213 -239,213 C-239,213 -238,-120 -238,-120 C-238,-120 207,-120 207,-120z"></path></g></g></g></mask></defs><g clip-path="url(#__lottie_element_42)"><g transform="matrix(1,0,0,1,368,372)" opacity="1" style="display: block;"><g opacity="1" transform="matrix(1,0,0,1,0,0)"><path fill="rgb(0,0,0)" fill-opacity="1" d=" M231.03700256347656,-54.19599914550781 C231.03700256347656,-54.19599914550781 231.03700256347656,-276.14898681640625 231.03700256347656,-276.14898681640625 C231.03700256347656,-282.7409973144531 232.46200561523438,-289.00299072265625 235,-294.6579895019531 C235,-294.6579895019531 235,-363.5539855957031 235,-363.5539855957031 C235,-363.5539855957031 -276.1390075683594,-363.5539855957031 -276.1390075683594,-363.5539855957031 C-299.6520080566406,-363.5539855957031 -321.6619873046875,-354.45599365234375 -338.1159973144531,-337.9360046386719 C-354.49798583984375,-321.48699951171875 -363.5249938964844,-299.5679931640625 -363.5329895019531,-276.2170104980469 C-363.5740051269531,-153.9980010986328 -363.5360107421875,-29.757999420166016 -363.5,90.39199829101562 C-363.4750061035156,174.42100524902344 -363.4490051269531,258.4419860839844 -363.4490051269531,342.4490051269531 C-363.4540100097656,348.31298828125 -361.13299560546875,353.739990234375 -356.91400146484375,357.7279968261719 C-352.9519958496094,361.4739990234375 -347.7799987792969,363.5360107421875 -342.3489990234375,363.5360107421875 C-337.5880126953125,363.5360107421875 -333.0719909667969,361.9440002441406 -329.2749938964844,358.9209899902344 C-329.2749938964844,358.9209899902344 -273.3810119628906,314.23699951171875 -273.3810119628906,314.23699951171875 C-273.3810119628906,314.23699951171875 -217.47900390625,358.927001953125 -217.47900390625,358.927001953125 C-213.76400756835938,361.8919982910156 -209.10000610351562,363.52398681640625 -204.3470001220703,363.52398681640625 C-199.593994140625,363.52398681640625 -194.92999267578125,361.8909912109375 -191.2100067138672,358.9209899902344 C-191.2100067138672,358.9209899902344 -135.31100463867188,314.2330017089844 -135.31100463867188,314.2330017089844 C-135.31100463867188,314.2330017089844 -79.3280029296875,358.927001953125 -79.3280029296875,358.927001953125 C-75.61299896240234,361.8919982910156 -70.9489974975586,363.52398681640625 -66.19599914550781,363.52398681640625 C-61.44300079345703,363.52398681640625 -56.779998779296875,361.8919982910156 -53.058998107910156,358.9209899902344 C-53.058998107910156,358.9209899902344 2.8359999656677246,314.23699951171875 2.8359999656677246,314.23699951171875 C2.8359999656677246,314.23699951171875 58.74599838256836,358.9339904785156 58.74599838256836,358.9339904785156 C62.457000732421875,361.8890075683594 67.11399841308594,363.5159912109375 71.85700225830078,363.5159912109375 C76.60199737548828,363.5159912109375 81.25800323486328,361.88800048828125 84.98400115966797,358.9209899902344 C84.98400115966797,358.9209899902344 140.87899780273438,314.23699951171875 140.87899780273438,314.23699951171875 C140.87899780273438,314.23699951171875 196.77000427246094,358.9179992675781 196.77000427246094,358.9179992675781 C200.5590057373047,361.95001220703125 205.08799743652344,363.5539855957031 209.8679962158203,363.5539855957031 C215.4510040283203,363.5539855957031 220.9219970703125,361.27899169921875 224.8769989013672,357.3139953613281 C228.81900024414062,353.3630065917969 230.98300170898438,348.0790100097656 230.97000122070312,342.46099853515625 C231.00999450683594,227.91900634765625 231.05099487304688,103.01100158691406 231.05299377441406,-12.185999870300293 C231.05299377441406,-12.185999870300293 231.03700256347656,-54.19599914550781 231.03700256347656,-54.19599914550781z M188.92100524902344,-276.1499938964844 C188.91700744628906,-170.48699951171875 188.8979949951172,-76.6520004272461 188.8780059814453,15.303000450134277 C188.85899353027344,108.26699829101562 188.84100341796875,199.30599975585938 188.83799743652344,298.7030029296875 C188.83799743652344,298.7030029296875 154.02999877929688,270.7909851074219 154.02999877929688,270.7909851074219 C150.31399536132812,267.822998046875 145.6510009765625,266.18798828125 140.89599609375,266.18798828125 C136.14100646972656,266.18798828125 131.4770050048828,267.822998046875 127.75700378417969,270.7950134277344 C127.75700378417969,270.7950134277344 71.77999877929688,315.5580139160156 71.77999877929688,315.5580139160156 C71.77999877929688,315.5580139160156 15.878000259399414,270.7900085449219 15.878000259399414,270.7900085449219 C12.161999702453613,267.822998046875 7.498000144958496,266.18798828125 2.74399995803833,266.18798828125 C-2.009999990463257,266.18798828125 -6.675000190734863,267.822998046875 -10.399999618530273,270.79901123046875 C-10.399999618530273,270.79901123046875 -66.28900146484375,315.5539855957031 -66.28900146484375,315.5539855957031 C-66.28900146484375,315.5539855957031 -122.197998046875,270.7820129394531 -122.197998046875,270.7820129394531 C-125.91000366210938,267.82598876953125 -130.5659942626953,266.197998046875 -135.31100463867188,266.197998046875 C-140.05599975585938,266.197998046875 -144.71299743652344,267.82598876953125 -148.44400024414062,270.79901123046875 C-148.44400024414062,270.79901123046875 -204.33200073242188,315.5539855957031 -204.33200073242188,315.5539855957031 C-204.33200073242188,315.5539855957031 -260.2300109863281,270.7900085449219 -260.2300109863281,270.7900085449219 C-263.9460144042969,267.822998046875 -268.6109924316406,266.18798828125 -273.364990234375,266.18798828125 C-278.1189880371094,266.18798828125 -282.7829895019531,267.822998046875 -286.5069885253906,270.7980041503906 C-286.5069885253906,270.7980041503906 -321.3970031738281,298.72900390625 -321.3970031738281,298.72900390625 C-321.4339904785156,107.1050033569336 -321.4339904785156,-84.53900146484375 -321.4339904785156,-276.2139892578125 C-321.4339904785156,-304.14599609375 -297.9230041503906,-321.43499755859375 -276.1390075683594,-321.43499755859375 C-276.1390075683594,-321.43499755859375 201.38800048828125,-321.43499755859375 201.38800048828125,-321.43499755859375 C193.25799560546875,-308.0459899902344 188.92100524902344,-292.5190124511719 188.92100524902344,-276.1499938964844z"></path><path stroke-linecap="butt" stroke-linejoin="miter" fill-opacity="0" stroke-miterlimit="10" stroke="rgb(0,0,0)" stroke-opacity="1" stroke-width="1" d=" M231.03700256347656,-54.19599914550781 C231.03700256347656,-54.19599914550781 231.03700256347656,-276.14898681640625 231.03700256347656,-276.14898681640625 C231.03700256347656,-282.7409973144531 232.46200561523438,-289.00299072265625 235,-294.6579895019531 C235,-294.6579895019531 235,-363.5539855957031 235,-363.5539855957031 C235,-363.5539855957031 -276.1390075683594,-363.5539855957031 -276.1390075683594,-363.5539855957031 C-299.6520080566406,-363.5539855957031 -321.6619873046875,-354.45599365234375 -338.1159973144531,-337.9360046386719 C-354.49798583984375,-321.48699951171875 -363.5249938964844,-299.5679931640625 -363.5329895019531,-276.2170104980469 C-363.5740051269531,-153.9980010986328 -363.5360107421875,-29.757999420166016 -363.5,90.39199829101562 C-363.4750061035156,174.42100524902344 -363.4490051269531,258.4419860839844 -363.4490051269531,342.4490051269531 C-363.4540100097656,348.31298828125 -361.13299560546875,353.739990234375 -356.91400146484375,357.7279968261719 C-352.9519958496094,361.4739990234375 -347.7799987792969,363.5360107421875 -342.3489990234375,363.5360107421875 C-337.5880126953125,363.5360107421875 -333.0719909667969,361.9440002441406 -329.2749938964844,358.9209899902344 C-329.2749938964844,358.9209899902344 -273.3810119628906,314.23699951171875 -273.3810119628906,314.23699951171875 C-273.3810119628906,314.23699951171875 -217.47900390625,358.927001953125 -217.47900390625,358.927001953125 C-213.76400756835938,361.8919982910156 -209.10000610351562,363.52398681640625 -204.3470001220703,363.52398681640625 C-199.593994140625,363.52398681640625 -194.92999267578125,361.8909912109375 -191.2100067138672,358.9209899902344 C-191.2100067138672,358.9209899902344 -135.31100463867188,314.2330017089844 -135.31100463867188,314.2330017089844 C-135.31100463867188,314.2330017089844 -79.3280029296875,358.927001953125 -79.3280029296875,358.927001953125 C-75.61299896240234,361.8919982910156 -70.9489974975586,363.52398681640625 -66.19599914550781,363.52398681640625 C-61.44300079345703,363.52398681640625 -56.779998779296875,361.8919982910156 -53.058998107910156,358.9209899902344 C-53.058998107910156,358.9209899902344 2.8359999656677246,314.23699951171875 2.8359999656677246,314.23699951171875 C2.8359999656677246,314.23699951171875 58.74599838256836,358.9339904785156 58.74599838256836,358.9339904785156 C62.457000732421875,361.8890075683594 67.11399841308594,363.5159912109375 71.85700225830078,363.5159912109375 C76.60199737548828,363.5159912109375 81.25800323486328,361.88800048828125 84.98400115966797,358.9209899902344 C84.98400115966797,358.9209899902344 140.87899780273438,314.23699951171875 140.87899780273438,314.23699951171875 C140.87899780273438,314.23699951171875 196.77000427246094,358.9179992675781 196.77000427246094,358.9179992675781 C200.5590057373047,361.95001220703125 205.08799743652344,363.5539855957031 209.8679962158203,363.5539855957031 C215.4510040283203,363.5539855957031 220.9219970703125,361.27899169921875 224.8769989013672,357.3139953613281 C228.81900024414062,353.3630065917969 230.98300170898438,348.0790100097656 230.97000122070312,342.46099853515625 C231.00999450683594,227.91900634765625 231.05099487304688,103.01100158691406 231.05299377441406,-12.185999870300293 C231.05299377441406,-12.185999870300293 231.03700256347656,-54.19599914550781 231.03700256347656,-54.19599914550781z M188.92100524902344,-276.1499938964844 C188.91700744628906,-170.48699951171875 188.8979949951172,-76.6520004272461 188.8780059814453,15.303000450134277 C188.85899353027344,108.26699829101562 188.84100341796875,199.30599975585938 188.83799743652344,298.7030029296875 C188.83799743652344,298.7030029296875 154.02999877929688,270.7909851074219 154.02999877929688,270.7909851074219 C150.31399536132812,267.822998046875 145.6510009765625,266.18798828125 140.89599609375,266.18798828125 C136.14100646972656,266.18798828125 131.4770050048828,267.822998046875 127.75700378417969,270.7950134277344 C127.75700378417969,270.7950134277344 71.77999877929688,315.5580139160156 71.77999877929688,315.5580139160156 C71.77999877929688,315.5580139160156 15.878000259399414,270.7900085449219 15.878000259399414,270.7900085449219 C12.161999702453613,267.822998046875 7.498000144958496,266.18798828125 2.74399995803833,266.18798828125 C-2.009999990463257,266.18798828125 -6.675000190734863,267.822998046875 -10.399999618530273,270.79901123046875 C-10.399999618530273,270.79901123046875 -66.28900146484375,315.5539855957031 -66.28900146484375,315.5539855957031 C-66.28900146484375,315.5539855957031 -122.197998046875,270.7820129394531 -122.197998046875,270.7820129394531 C-125.91000366210938,267.82598876953125 -130.5659942626953,266.197998046875 -135.31100463867188,266.197998046875 C-140.05599975585938,266.197998046875 -144.71299743652344,267.82598876953125 -148.44400024414062,270.79901123046875 C-148.44400024414062,270.79901123046875 -204.33200073242188,315.5539855957031 -204.33200073242188,315.5539855957031 C-204.33200073242188,315.5539855957031 -260.2300109863281,270.7900085449219 -260.2300109863281,270.7900085449219 C-263.9460144042969,267.822998046875 -268.6109924316406,266.18798828125 -273.364990234375,266.18798828125 C-278.1189880371094,266.18798828125 -282.7829895019531,267.822998046875 -286.5069885253906,270.7980041503906 C-286.5069885253906,270.7980041503906 -321.3970031738281,298.72900390625 -321.3970031738281,298.72900390625 C-321.4339904785156,107.1050033569336 -321.4339904785156,-84.53900146484375 -321.4339904785156,-276.2139892578125 C-321.4339904785156,-304.14599609375 -297.9230041503906,-321.43499755859375 -276.1390075683594,-321.43499755859375 C-276.1390075683594,-321.43499755859375 201.38800048828125,-321.43499755859375 201.38800048828125,-321.43499755859375 C193.25799560546875,-308.0459899902344 188.92100524902344,-292.5190124511719 188.92100524902344,-276.1499938964844z"></path></g></g><g mask="url(#__lottie_element_49)" style="display: none;"><g transform="matrix(1,0,0,1,368,372)" opacity="1"><g opacity="1" transform="matrix(1,0,0,1,0,0)"><path fill="rgb(0,0,0)" fill-opacity="1" d=" M276.2439880371094,-363.5539855957031 C276.2439880371094,-363.5539855957031 -276.1390075683594,-363.5539855957031 -276.1390075683594,-363.5539855957031 C-299.6520080566406,-363.5539855957031 -321.6619873046875,-354.45599365234375 -338.1159973144531,-337.9360046386719 C-354.49798583984375,-321.48699951171875 -363.5249938964844,-299.5679931640625 -363.5329895019531,-276.2170104980469 C-363.5610046386719,-193.78599548339844 -363.552001953125,-110.44000244140625 -363.5329895019531,-28.04599952697754 C-363.5299987792969,-16.417999267578125 -354.10400390625,-7 -342.47601318359375,-7 C-342.47601318359375,-7 -342.47601318359375,-7 -342.47601318359375,-7 C-330.84600830078125,-7 -321.4200134277344,-16.711000442504883 -321.4209899902344,-28.340999603271484 C-321.4259948730469,-111.05799865722656 -321.4339904785156,-193.48399353027344 -321.4339904785156,-276.2139892578125 C-321.4339904785156,-304.14599609375 -297.9230041503906,-321.43499755859375 -276.1390075683594,-321.43499755859375 C-276.1390075683594,-321.43499755859375 170.5279998779297,-321.43499755859375 170.5279998779297,-321.43499755859375 C184.0850067138672,-321.43499755859375 221.97300720214844,-336.84100341796875 219.03399658203125,-323.6059875488281 C217.63699340820312,-317.3179931640625 216.86399841308594,-310.8030090332031 216.92100524902344,-304.1499938964844 C217,-295 217,-313 216.94500732421875,-303.0589904785156 C216.88099670410156,-291.4280090332031 198.3719940185547,-254 210.0030059814453,-254 C210.0030059814453,-254 210.01699829101562,-254 210.01699829101562,-254 C221.64700317382812,-254 231.07400512695312,-263.427001953125 231.07400512695312,-275.0570068359375 C231.07400512695312,-275.0570068359375 231.03700256347656,-276.14898681640625 231.03700256347656,-276.14898681640625 C231.03700256347656,-301.1189880371094 251.30999755859375,-321.43499755859375 276.22900390625,-321.43499755859375 C301.2070007324219,-321.43499755859375 321.5270080566406,-301.1189880371094 321.5270080566406,-276.14898681640625 C321.5270080566406,-276.14898681640625 322.14300537109375,-66.20999908447266 322.14300537109375,-66.20999908447266 C322.1340026855469,-54.58599853515625 312.7070007324219,-45.167999267578125 301.0830078125,-45.16999816894531 C301.0830078125,-45.16999816894531 -185.75,-45.242000579833984 -185.75,-45.242000579833984 C-197.427001953125,-45.24399948120117 -206.8730010986328,-54.74599838256836 -206.8040008544922,-66.4229965209961 C-206.8040008544922,-66.4229965209961 -206.9770050048828,-66.56700134277344 -206.9770050048828,-66.56700134277344 C-206,-65 -216.58700561523438,-65.31800079345703 -228.31300354003906,-65.24800109863281 C-239.55299377441406,-65.18199920654297 -251.0399932861328,-65.08200073242188 -251.0399932861328,-64.95500183105469 C-251.04200744628906,-54.30500030517578 -250,-65 -249.43099975585938,-23.524999618530273 C-249.27099609375,-11.897000312805176 -239.97799682617188,-2.4839999675750732 -228.3489990234375,-2.496999979019165 C-228.3489990234375,-2.496999979019165 343.14599609375,-3.1559998989105225 343.14599609375,-3.1559998989105225 C354.92401123046875,-3.1559998989105225 364.1499938964844,-12.383000373840332 364.1499938964844,-24.16200065612793 C364.1499938964844,-24.16200065612793 363.5509948730469,-276.14898681640625 363.5509948730469,-276.14898681640625 C363.5509948730469,-324.343994140625 324.385009765625,-363.5539855957031 276.2439880371094,-363.5539855957031z"></path><path stroke-linecap="round" stroke-linejoin="round" fill-opacity="0" stroke="rgb(0,0,0)" stroke-opacity="1" stroke-width="1" d=" M276.2439880371094,-363.5539855957031 C276.2439880371094,-363.5539855957031 -276.1390075683594,-363.5539855957031 -276.1390075683594,-363.5539855957031 C-299.6520080566406,-363.5539855957031 -321.6619873046875,-354.45599365234375 -338.1159973144531,-337.9360046386719 C-354.49798583984375,-321.48699951171875 -363.5249938964844,-299.5679931640625 -363.5329895019531,-276.2170104980469 C-363.5610046386719,-193.78599548339844 -363.552001953125,-110.44000244140625 -363.5329895019531,-28.04599952697754 C-363.5299987792969,-16.417999267578125 -354.10400390625,-7 -342.47601318359375,-7 C-342.47601318359375,-7 -342.47601318359375,-7 -342.47601318359375,-7 C-330.84600830078125,-7 -321.4200134277344,-16.711000442504883 -321.4209899902344,-28.340999603271484 C-321.4259948730469,-111.05799865722656 -321.4339904785156,-193.48399353027344 -321.4339904785156,-276.2139892578125 C-321.4339904785156,-304.14599609375 -297.9230041503906,-321.43499755859375 -276.1390075683594,-321.43499755859375 C-276.1390075683594,-321.43499755859375 170.5279998779297,-321.43499755859375 170.5279998779297,-321.43499755859375 C184.0850067138672,-321.43499755859375 221.97300720214844,-336.84100341796875 219.03399658203125,-323.6059875488281 C217.63699340820312,-317.3179931640625 216.86399841308594,-310.8030090332031 216.92100524902344,-304.1499938964844 C217,-295 217,-313 216.94500732421875,-303.0589904785156 C216.88099670410156,-291.4280090332031 198.3719940185547,-254 210.0030059814453,-254 C210.0030059814453,-254 210.01699829101562,-254 210.01699829101562,-254 C221.64700317382812,-254 231.07400512695312,-263.427001953125 231.07400512695312,-275.0570068359375 C231.07400512695312,-275.0570068359375 231.03700256347656,-276.14898681640625 231.03700256347656,-276.14898681640625 C231.03700256347656,-301.1189880371094 251.30999755859375,-321.43499755859375 276.22900390625,-321.43499755859375 C301.2070007324219,-321.43499755859375 321.5270080566406,-301.1189880371094 321.5270080566406,-276.14898681640625 C321.5270080566406,-276.14898681640625 322.14300537109375,-66.20999908447266 322.14300537109375,-66.20999908447266 C322.1340026855469,-54.58599853515625 312.7070007324219,-45.167999267578125 301.0830078125,-45.16999816894531 C301.0830078125,-45.16999816894531 -185.75,-45.242000579833984 -185.75,-45.242000579833984 C-197.427001953125,-45.24399948120117 -206.8730010986328,-54.74599838256836 -206.8040008544922,-66.4229965209961 C-206.8040008544922,-66.4229965209961 -206.9770050048828,-66.56700134277344 -206.9770050048828,-66.56700134277344 C-206,-65 -216.58700561523438,-65.31800079345703 -228.31300354003906,-65.24800109863281 C-239.55299377441406,-65.18199920654297 -251.0399932861328,-65.08200073242188 -251.0399932861328,-64.95500183105469 C-251.04200744628906,-54.30500030517578 -250,-65 -249.43099975585938,-23.524999618530273 C-249.27099609375,-11.897000312805176 -239.97799682617188,-2.4839999675750732 -228.3489990234375,-2.496999979019165 C-228.3489990234375,-2.496999979019165 343.14599609375,-3.1559998989105225 343.14599609375,-3.1559998989105225 C354.92401123046875,-3.1559998989105225 364.1499938964844,-12.383000373840332 364.1499938964844,-24.16200065612793 C364.1499938964844,-24.16200065612793 363.5509948730469,-276.14898681640625 363.5509948730469,-276.14898681640625 C363.5509948730469,-324.343994140625 324.385009765625,-363.5539855957031 276.2439880371094,-363.5539855957031z"></path></g></g></g><g mask="url(#__lottie_element_102)" style="display: block;"><g transform="matrix(1,0,0,1,368,372)" opacity="1"><g opacity="1" transform="matrix(1,0,0,1,0,0)"><path fill="rgb(0,0,0)" fill-opacity="1" d=" M276.2439880371094,-363.5539855957031 C276.2439880371094,-363.5539855957031 -276.1390075683594,-363.5539855957031 -276.1390075683594,-363.5539855957031 C-299.6520080566406,-363.5539855957031 -321.6619873046875,-354.45599365234375 -338.1159973144531,-337.9360046386719 C-354.49798583984375,-321.48699951171875 -363.5249938964844,-299.5679931640625 -363.5329895019531,-276.2170104980469 C-363.5610046386719,-193.78599548339844 -363.552001953125,-110.44000244140625 -363.5329895019531,-28.04599952697754 C-363.5299987792969,-16.417999267578125 -354.10400390625,-7 -342.47601318359375,-7 C-342.47601318359375,-7 -342.47601318359375,-7 -342.47601318359375,-7 C-330.84600830078125,-7 -321.4200134277344,-16.711000442504883 -321.4209899902344,-28.340999603271484 C-321.4259948730469,-111.05799865722656 -321.4339904785156,-193.48399353027344 -321.4339904785156,-276.2139892578125 C-321.4339904785156,-304.14599609375 -297.9230041503906,-321.43499755859375 -276.1390075683594,-321.43499755859375 C-276.1390075683594,-321.43499755859375 170.5279998779297,-321.43499755859375 170.5279998779297,-321.43499755859375 C184.0850067138672,-321.43499755859375 219.97300720214844,-334.84100341796875 217.03399658203125,-321.6059875488281 C215.63699340820312,-315.3179931640625 214.92100524902344,-308.8030090332031 214.92100524902344,-302.1499938964844 C214.91900634765625,-256.65301513671875 188.91400146484375,-187.6820068359375 188.9080047607422,-146.0590057373047 C188.906005859375,-134.42799377441406 198.3350067138672,-125 209.96600341796875,-125 C209.96600341796875,-125 209.97999572753906,-125 209.97999572753906,-125 C221.61000061035156,-125 231.03700256347656,-134.427001953125 231.03700256347656,-146.0570068359375 C231.03700256347656,-146.0570068359375 231.03700256347656,-276.14898681640625 231.03700256347656,-276.14898681640625 C231.03700256347656,-301.1189880371094 251.30999755859375,-321.43499755859375 276.22900390625,-321.43499755859375 C301.2070007324219,-321.43499755859375 321.5270080566406,-301.1189880371094 321.5270080566406,-276.14898681640625 C321.5270080566406,-276.14898681640625 322.14300537109375,-66.20999908447266 322.14300537109375,-66.20999908447266 C322.1340026855469,-54.58599853515625 312.7070007324219,-45.167999267578125 301.0830078125,-45.16999816894531 C301.0830078125,-45.16999816894531 -185.75,-45.242000579833984 -185.75,-45.242000579833984 C-197.427001953125,-45.24399948120117 -206.8730010986328,-54.74599838256836 -206.8040008544922,-66.4229965209961 C-206.8040008544922,-66.4229965209961 -206.9770050048828,-66.56700134277344 -206.9770050048828,-66.56700134277344 C-206,-65 -216.58700561523438,-65.31800079345703 -228.31300354003906,-65.24800109863281 C-239.55299377441406,-65.18199920654297 -251.0399932861328,-65.08200073242188 -251.0399932861328,-64.95500183105469 C-251.04200744628906,-54.30500030517578 -250,-65 -249.43099975585938,-23.524999618530273 C-249.27099609375,-11.897000312805176 -239.97799682617188,-2.4839999675750732 -228.3489990234375,-2.496999979019165 C-228.3489990234375,-2.496999979019165 343.14599609375,-3.1559998989105225 343.14599609375,-3.1559998989105225 C354.92401123046875,-3.1559998989105225 364.1499938964844,-12.383000373840332 364.1499938964844,-24.16200065612793 C364.1499938964844,-24.16200065612793 363.5509948730469,-276.14898681640625 363.5509948730469,-276.14898681640625 C363.5509948730469,-324.343994140625 324.385009765625,-363.5539855957031 276.2439880371094,-363.5539855957031z"></path><path stroke-linecap="round" stroke-linejoin="round" fill-opacity="0" stroke="rgb(0,0,0)" stroke-opacity="1" stroke-width="1" d=" M276.2439880371094,-363.5539855957031 C276.2439880371094,-363.5539855957031 -276.1390075683594,-363.5539855957031 -276.1390075683594,-363.5539855957031 C-299.6520080566406,-363.5539855957031 -321.6619873046875,-354.45599365234375 -338.1159973144531,-337.9360046386719 C-354.49798583984375,-321.48699951171875 -363.5249938964844,-299.5679931640625 -363.5329895019531,-276.2170104980469 C-363.5610046386719,-193.78599548339844 -363.552001953125,-110.44000244140625 -363.5329895019531,-28.04599952697754 C-363.5299987792969,-16.417999267578125 -354.10400390625,-7 -342.47601318359375,-7 C-342.47601318359375,-7 -342.47601318359375,-7 -342.47601318359375,-7 C-330.84600830078125,-7 -321.4200134277344,-16.711000442504883 -321.4209899902344,-28.340999603271484 C-321.4259948730469,-111.05799865722656 -321.4339904785156,-193.48399353027344 -321.4339904785156,-276.2139892578125 C-321.4339904785156,-304.14599609375 -297.9230041503906,-321.43499755859375 -276.1390075683594,-321.43499755859375 C-276.1390075683594,-321.43499755859375 170.5279998779297,-321.43499755859375 170.5279998779297,-321.43499755859375 C184.0850067138672,-321.43499755859375 219.97300720214844,-334.84100341796875 217.03399658203125,-321.6059875488281 C215.63699340820312,-315.3179931640625 214.92100524902344,-308.8030090332031 214.92100524902344,-302.1499938964844 C214.91900634765625,-256.65301513671875 188.91400146484375,-187.6820068359375 188.9080047607422,-146.0590057373047 C188.906005859375,-134.42799377441406 198.3350067138672,-125 209.96600341796875,-125 C209.96600341796875,-125 209.97999572753906,-125 209.97999572753906,-125 C221.61000061035156,-125 231.03700256347656,-134.427001953125 231.03700256347656,-146.0570068359375 C231.03700256347656,-146.0570068359375 231.03700256347656,-276.14898681640625 231.03700256347656,-276.14898681640625 C231.03700256347656,-301.1189880371094 251.30999755859375,-321.43499755859375 276.22900390625,-321.43499755859375 C301.2070007324219,-321.43499755859375 321.5270080566406,-301.1189880371094 321.5270080566406,-276.14898681640625 C321.5270080566406,-276.14898681640625 322.14300537109375,-66.20999908447266 322.14300537109375,-66.20999908447266 C322.1340026855469,-54.58599853515625 312.7070007324219,-45.167999267578125 301.0830078125,-45.16999816894531 C301.0830078125,-45.16999816894531 -185.75,-45.242000579833984 -185.75,-45.242000579833984 C-197.427001953125,-45.24399948120117 -206.8730010986328,-54.74599838256836 -206.8040008544922,-66.4229965209961 C-206.8040008544922,-66.4229965209961 -206.9770050048828,-66.56700134277344 -206.9770050048828,-66.56700134277344 C-206,-65 -216.58700561523438,-65.31800079345703 -228.31300354003906,-65.24800109863281 C-239.55299377441406,-65.18199920654297 -251.0399932861328,-65.08200073242188 -251.0399932861328,-64.95500183105469 C-251.04200744628906,-54.30500030517578 -250,-65 -249.43099975585938,-23.524999618530273 C-249.27099609375,-11.897000312805176 -239.97799682617188,-2.4839999675750732 -228.3489990234375,-2.496999979019165 C-228.3489990234375,-2.496999979019165 343.14599609375,-3.1559998989105225 343.14599609375,-3.1559998989105225 C354.92401123046875,-3.1559998989105225 364.1499938964844,-12.383000373840332 364.1499938964844,-24.16200065612793 C364.1499938964844,-24.16200065612793 363.5509948730469,-276.14898681640625 363.5509948730469,-276.14898681640625 C363.5509948730469,-324.343994140625 324.385009765625,-363.5539855957031 276.2439880371094,-363.5539855957031z"></path></g></g></g><g transform="matrix(1,0,0,1,368,372)" opacity="1" style="display: none;"><g opacity="1" transform="matrix(1,0,0,1,0,0)"><path stroke-linecap="round" stroke-linejoin="miter" fill-opacity="0" stroke-miterlimit="10" stroke="rgb(0,0,0)" stroke-opacity="1" stroke-width="40" d=" M-88.38800048828125,-187.8280029296875 C-88.38800048828125,-187.8280029296875 111,-187.8280029296875 111,-187.8280029296875"></path></g></g><g transform="matrix(1,0,0,1,368,372)" opacity="1" style="display: none;"><g opacity="1" transform="matrix(1,0,0,1,0,0)"><path stroke-linecap="round" stroke-linejoin="miter" fill-opacity="0" stroke-miterlimit="10" stroke="rgb(0,0,0)" stroke-opacity="1" stroke-width="40" d=" M-88.38800048828125,-110.48699951171875 C-88.38800048828125,-110.48699951171875 111,-110.48699951171875 111,-110.48699951171875"></path></g></g><g transform="matrix(1,0,0,1,368,372)" opacity="1" style="display: none;"><g opacity="1" transform="matrix(1,0,0,1,0,0)"><path stroke-linecap="round" stroke-linejoin="miter" fill-opacity="0" stroke-miterlimit="10" stroke="rgb(0,0,0)" stroke-opacity="1" stroke-width="40" d=" M-88.38800048828125,-33.145999908447266 C-88.38800048828125,-33.145999908447266 111,-33.145999908447266 111,-33.145999908447266"></path></g></g><g transform="matrix(1,0,0,1,367.9530029296875,371)" opacity="1" style="display: none;"><g opacity="1" transform="matrix(1,0,0,1,0,0)"><path stroke-linecap="round" stroke-linejoin="miter" fill-opacity="0" stroke-miterlimit="10" stroke="rgb(0,0,0)" stroke-opacity="1" stroke-width="40" d=" M-246.1060028076172,44.194000244140625 C-246.1060028076172,44.194000244140625 111,44.194000244140625 111,44.194000244140625"></path></g></g><g transform="matrix(1,0,0,1,368,373.3399963378906)" opacity="1" style="display: none;"><g opacity="1" transform="matrix(1,0,0,1,0,0)"><path stroke-linecap="round" stroke-linejoin="miter" fill-opacity="0" stroke-miterlimit="10" stroke="rgb(0,0,0)" stroke-opacity="1" stroke-width="40" d=" M-246.1060028076172,121.53500366210938 C-246.1060028076172,121.53500366210938 111,121.53500366210938 111,121.53500366210938"></path></g></g><g transform="matrix(1,0,0,1,367.9530029296875,372)" opacity="1" style="display: none;"><g opacity="1" transform="matrix(1,0,0,1,0,0)"><path stroke-linecap="round" stroke-linejoin="miter" fill-opacity="0" stroke-miterlimit="10" stroke="rgb(0,0,0)" stroke-opacity="1" stroke-width="40" d=" M-246.1060028076172,198.875 C-246.1060028076172,198.875 111,198.875 111,198.875"></path></g></g><g transform="matrix(1,0,0,1,368,372)" opacity="1" style="display: block;"><g opacity="1" transform="matrix(1,0,0,1,0,0)"><path stroke-linecap="round" stroke-linejoin="miter" fill-opacity="0" stroke-miterlimit="10" stroke="rgb(0,0,0)" stroke-opacity="1" stroke-width="40" d=" M111,-187.8280029296875 C111,-187.8280029296875 -88.38800048828125,-187.8280029296875 -88.38800048828125,-187.8280029296875"></path></g></g><g transform="matrix(1,0,0,1,368,372)" opacity="1" style="display: block;"><g opacity="1" transform="matrix(1,0,0,1,0,0)"><path stroke-linecap="round" stroke-linejoin="miter" fill-opacity="0" stroke-miterlimit="10" stroke="rgb(0,0,0)" stroke-opacity="1" stroke-width="40" d=" M-88.38800048828125,-110.48699951171875 C-88.38800048828125,-110.48699951171875 111,-110.48699951171875 111,-110.48699951171875"></path></g></g><g transform="matrix(1,0,0,1,368,372)" opacity="1" style="display: block;"><g opacity="1" transform="matrix(1,0,0,1,0,0)"><path stroke-linecap="round" stroke-linejoin="miter" fill-opacity="0" stroke-miterlimit="10" stroke="rgb(0,0,0)" stroke-opacity="1" stroke-width="40" d=" M111,-33.145999908447266 C111,-33.145999908447266 -88.38800048828125,-33.145999908447266 -88.38800048828125,-33.145999908447266"></path></g></g><g transform="matrix(1,0,0,1,367.9530029296875,371)" opacity="1" style="display: block;"><g opacity="1" transform="matrix(1,0,0,1,0,0)"><path stroke-linecap="round" stroke-linejoin="miter" fill-opacity="0" stroke-miterlimit="10" stroke="rgb(0,0,0)" stroke-opacity="1" stroke-width="40" d=" M-246.1060028076172,44.194000244140625 C-246.1060028076172,44.194000244140625 111,44.194000244140625 111,44.194000244140625"></path></g></g><g transform="matrix(1,0,0,1,368,373.3399963378906)" opacity="1" style="display: block;"><g opacity="1" transform="matrix(1,0,0,1,0,0)"><path stroke-linecap="round" stroke-linejoin="miter" fill-opacity="0" stroke-miterlimit="10" stroke="rgb(0,0,0)" stroke-opacity="1" stroke-width="40" d=" M111,121.53500366210938 C111,121.53500366210938 -246.1060028076172,121.53500366210938 -246.1060028076172,121.53500366210938"></path></g></g><g transform="matrix(1,0,0,1,367.9530029296875,372)" opacity="1" style="display: block;"><g opacity="1" transform="matrix(1,0,0,1,0,0)"><path stroke-linecap="round" stroke-linejoin="miter" fill-opacity="0" stroke-miterlimit="10" stroke="rgb(0,0,0)" stroke-opacity="1" stroke-width="40" d=" M-246.1060028076172,198.875 C-246.1060028076172,198.875 111,198.875 111,198.875"></path></g></g><g transform="matrix(1,0,0,1,368,372)" opacity="1" style="display: block;"><g opacity="1" transform="matrix(1,0,0,1,0,0)"><path fill="rgb(0,0,0)" fill-opacity="1" d=" M-198.76800537109375,9.99899959564209 C-210.76699829101562,9.99899959564209 -219.81500244140625,0.9309999942779541 -219.81500244140625,-11.093999862670898 C-219.81500244140625,-11.093999862670898 -219.81500244140625,-15.78600025177002 -219.81500244140625,-15.78600025177002 C-239.79200744628906,-22.68400001525879 -254.47000122070312,-38.26300048828125 -261.58099365234375,-60.38399887084961 C-263.7380065917969,-66.94000244140625 -262.7760009765625,-73.79199981689453 -258.9209899902344,-79.11900329589844 C-254.9510040283203,-84.6050033569336 -248.16799926757812,-88.01300048828125 -241.218994140625,-88.01300048828125 C-231.92100524902344,-88.01300048828125 -224.36000061035156,-82.34700012207031 -221.48599243164062,-73.22599792480469 C-217.54200744628906,-60.95600128173828 -209.90699768066406,-54.7130012512207 -198.16900634765625,-54.19900131225586 C-185.51100158691406,-54.402000427246094 -175.6269989013672,-63.65700149536133 -175.6269989013672,-75.35700225830078 C-175.6269989013672,-78.06700134277344 -176.03799438476562,-78.78700256347656 -176.04200744628906,-78.79299926757812 C-176.04299926757812,-78.79499816894531 -176.32699584960938,-79.14399719238281 -177.5279998779297,-79.72000122070312 C-182.5449981689453,-82.12999725341797 -195.87100219726562,-83.49600219726562 -200.88800048828125,-84.01000213623047 C-200.88800048828125,-84.01000213623047 -203.5330047607422,-84.2750015258789 -203.5330047607422,-84.2750015258789 C-214.33599853515625,-85.35099792480469 -226.5800018310547,-86.56999969482422 -238.28799438476562,-92.19400024414062 C-254.64300537109375,-100.0479965209961 -264.02398681640625,-115.49299621582031 -264.02398681640625,-134.56900024414062 C-264.02398681640625,-161.92100524902344 -245.86700439453125,-185.9810028076172 -219.81500244140625,-194.56300354003906 C-219.81500244140625,-194.56300354003906 -219.81500244140625,-198.83200073242188 -219.81500244140625,-198.83200073242188 C-219.81500244140625,-210.8679962158203 -210.76699829101562,-219.94500732421875 -198.76800537109375,-219.94500732421875 C-186.7689971923828,-219.94500732421875 -177.7209930419922,-210.8679962158203 -177.7209930419922,-198.83200073242188 C-177.7209930419922,-198.83200073242188 -177.7209930419922,-194.1699981689453 -177.7209930419922,-194.1699981689453 C-158.05099487304688,-187.5229949951172 -143.0590057373047,-171.6439971923828 -135.9550018310547,-149.54100036621094 C-133.7969970703125,-142.98599243164062 -134.75999450683594,-136.13299560546875 -138.61500549316406,-130.80599975585938 C-142.5850067138672,-125.32099914550781 -149.3679962158203,-121.91300201416016 -156.3159942626953,-121.91300201416016 C-156.31700134277344,-121.91300201416016 -156.3159942626953,-121.91300201416016 -156.31700134277344,-121.91300201416016 C-165.61500549316406,-121.91300201416016 -173.177001953125,-127.58000183105469 -176.0500030517578,-136.7010040283203 C-180.06199645996094,-149.10899353027344 -187.47999572753906,-155.16799926757812 -199.36500549316406,-155.6840057373047 C-212.03700256347656,-155.48199462890625 -221.92999267578125,-146.2449951171875 -221.92999267578125,-134.56900024414062 C-221.92999267578125,-131.18499755859375 -221.68800354003906,-131.06199645996094 -219.80599975585938,-130.1060028076172 C-215.33299255371094,-127.83000183105469 -204.08900451660156,-126.6780014038086 -196.6490020751953,-125.91600036621094 C-196.6490020751953,-125.91600036621094 -194.0050048828125,-125.6500015258789 -194.0050048828125,-125.6500015258789 C-183.2010040283203,-124.5739974975586 -170.95599365234375,-123.35600280761719 -159.2480010986328,-117.73200225830078 C-142.65199279785156,-109.76100158691406 -133.51199340820312,-94.71099853515625 -133.51199340820312,-75.35600280761719 C-133.51199340820312,-47.88600158691406 -151.66299438476562,-23.7450008392334 -177.7050018310547,-15.151000022888184 C-177.70599365234375,-13.642000198364258 -177.7100067138672,-12.168000221252441 -177.7209930419922,-11.001999855041504 C-177.7209930419922,0.9309999942779541 -186.7689971923828,9.99899959564209 -198.76800537109375,9.99899959564209z"></path></g></g></g></svg>