<svg width="100%" viewBox="0 0 24 24" fill="currentColor" xmlns="http://www.w3.org/2000/svg">
<path fill-rule="evenodd" clip-rule="evenodd" d="M17.0091 2.28293C13.1813 1.24706 10.9347 1.24432 7.00309 2.28271C6.89624 2.31092 6.79638 2.36953 6.71951 2.44895C4.07993 5.17573 3.29116 7.46159 2.76634 9.79103C2.56073 10.5706 2.45117 11.3891 2.45117 12.2333C2.45117 17.507 6.72639 21.7822 12.0001 21.7822C17.2739 21.7822 21.5491 17.507 21.5491 12.2333C21.5491 11.6178 21.4909 11.0159 21.3796 10.4329C21.0677 7.59703 20.0562 5.25572 17.2854 2.44444C17.2099 2.3678 17.113 2.31103 17.0091 2.28293ZM12.0001 20.7344C16.5505 20.7344 20.2394 17.0456 20.2394 12.4952C20.2394 7.94478 16.5505 4.25595 12.0001 4.25595C7.44972 4.25595 3.76089 7.94478 3.76089 12.4952C3.76089 17.0456 7.44972 20.7344 12.0001 20.7344Z" fill="currentColor"></path>
<path opacity="0.4" d="M12 19.8682C11.4762 19.8682 11.043 20.295 11.043 20.8252C11.043 21.349 11.4698 21.7823 12 21.7823C12.5238 21.7823 12.9571 21.3555 12.9571 20.8252C12.9571 20.295 12.5303 19.8682 12 19.8682Z" fill="currentColor"></path>
<path opacity="0.4" d="M15.9893 18.5786C15.4655 18.5786 15.0322 19.0054 15.0322 19.5357C15.0322 20.0595 15.459 20.4928 15.9893 20.4928C16.5131 20.4928 16.9464 20.0659 16.9464 19.5357C16.9464 19.0054 16.5196 18.5786 15.9893 18.5786Z" fill="currentColor"></path>
<path opacity="0.4" d="M8.01077 18.5786C7.48697 18.5786 7.05371 19.0054 7.05371 19.5357C7.05371 20.0595 7.4805 20.4928 8.01077 20.4928C8.53458 20.4928 8.96786 20.0659 8.96786 19.5357C8.96786 19.0054 8.54105 18.5786 8.01077 18.5786Z" fill="currentColor"></path>
</svg>