<svg width="371" height="105" viewBox="0 0 371 105" fill="none" xmlns="http://www.w3.org/2000/svg">
<path d="M108.246 73.5531C110.537 74.7409 114.609 76.3529 118.512 76.2681C122.076 76.2681 123.942 74.3167 123.942 72.0259C123.942 69.7351 122.585 68.2079 118.767 66.002C114.016 63.287 110.452 59.469 110.452 54.4632C110.452 45.6394 118.003 39.361 129.033 39.361C133.869 39.361 137.602 40.2942 139.638 41.4821L136.754 50.3907C134.293 49.2877 131.663 48.6938 128.948 48.6938C125.385 48.6938 123.094 50.3059 123.094 52.8512C123.094 54.8874 124.706 56.3298 127.93 58.0266C132.851 60.8265 136.923 64.6445 136.923 70.0745C136.923 80.0861 128.778 85.7706 117.494 85.6858C112.319 85.6009 107.483 84.2434 105.107 82.5466C105.192 82.5466 108.246 73.5531 108.246 73.5531ZM139.469 85.3464L151.686 21.5437H164.243L159.407 46.2333L159.577 46.0637C162.971 42.076 167.298 39.2761 172.897 39.2761C179.43 39.2761 183.163 43.5183 183.163 50.5604C183.163 52.7663 182.824 56.2449 182.23 59.0448L177.309 85.2615H164.752L169.504 59.8084C169.843 58.1115 170.013 55.8207 170.013 54.1238C170.013 51.4088 168.91 49.3726 166.11 49.3726C162.122 49.3726 157.795 54.7177 156.183 63.0324L152.026 85.2615L139.469 85.3464ZM228.64 56.8388C228.64 72.4501 218.628 85.6858 203.78 85.6858C192.496 85.6858 186.472 77.8801 186.472 68.1231C186.472 52.936 196.484 39.2761 211.586 39.2761C223.379 39.2761 228.64 47.8454 228.64 56.8388ZM199.369 67.8685C199.369 72.4501 201.15 76.0984 205.477 76.0984C212.095 76.0984 215.828 64.2202 215.828 56.4995C215.828 52.7663 214.386 48.9483 209.889 48.9483C203.102 48.8635 199.369 60.6568 199.369 67.8685ZM225.67 103.079L234.409 57.0934C235.427 51.9179 236.445 45.2152 236.954 40.4639H248.069L247.305 47.5908H247.475C250.869 42.8396 255.79 39.7004 260.796 39.7004C269.959 39.7004 273.692 47.0818 273.692 55.4813C273.692 70.7532 264.02 85.8555 249.257 85.8555C246.202 85.8555 243.318 85.3464 241.875 84.1586H241.621L238.142 103.079H225.67ZM243.572 74.4015C244.93 75.5045 246.457 76.1833 248.748 76.1833C255.79 76.1833 260.626 64.6445 260.626 56.4995C260.626 53.1057 259.438 49.5422 255.62 49.5422C251.208 49.5422 247.136 54.7177 245.693 62.6082L243.572 74.4015ZM274.116 85.3464L282.601 40.4639H295.242L286.673 85.3464H274.116ZM290.406 35.7975C286.843 35.7975 284.467 32.7432 284.467 29.01C284.467 24.9375 287.691 21.4589 291.679 21.4589C295.497 21.4589 297.957 24.4284 297.957 28.0767C297.872 32.7431 294.479 35.7127 290.576 35.7127C290.576 35.7975 290.406 35.7975 290.406 35.7975ZM297.618 85.3464L304.236 49.8816H298.381L300.163 40.4639H306.017L306.357 38.1732C307.375 32.9128 309.326 27.4828 313.653 23.9194C317.047 21.0347 321.459 19.6772 325.956 19.6772C329.01 19.6772 331.301 20.1014 332.743 20.7801L330.283 30.622C329.01 30.1978 327.653 29.9433 326.295 29.9433C322.138 29.9433 319.592 33.931 318.829 38.258L318.405 40.5488H327.144L325.447 49.9665H316.793L310.175 85.4312L297.618 85.3464ZM342.84 40.4639L344.876 60.5719C345.3 64.1354 345.64 67.614 345.979 71.1774H346.149C347.167 68.8018 348.1 65.3232 349.882 60.4871L357.518 40.4639H370.669L355.312 73.2985C349.882 84.5828 344.537 92.8127 338.852 98.1578C334.355 102.315 329.095 104.436 326.55 104.945L323.071 94.255C325.192 93.4914 327.822 92.3884 330.198 90.6915C333.083 88.6553 335.543 85.9403 337.07 83.1404C337.41 82.4617 337.495 82.0375 337.325 81.189L329.774 40.3791C329.604 40.4639 342.84 40.4639 342.84 40.4639ZM62.1759 12.2957L59.1215 13.229C58.7822 11.9564 58.2731 10.7686 57.6792 9.58076C55.4732 5.42341 52.334 3.21746 48.516 3.21746C48.2615 3.21746 48.007 3.21744 47.7525 3.30229C47.6676 3.1326 47.4979 3.04775 47.4131 2.87807C45.7162 1.09634 43.5951 0.247925 41.0498 0.247925C36.044 0.417613 31.123 3.98105 27.1354 10.3443C24.3355 14.8411 22.1296 20.4408 21.5357 24.8527L11.7786 27.907C8.89393 28.8403 8.80908 28.9252 8.46971 31.6402C8.21517 33.6764 0.664062 91.9642 0.664062 91.9642L63.194 102.739V12.2109C62.685 12.2109 62.4305 12.2109 62.1759 12.2957ZM47.7525 16.7925L37.2318 20.1014C38.2499 16.1986 40.2013 12.2957 42.577 9.75043C43.4254 8.81715 44.6981 7.71417 46.1404 7.12026C47.4979 10.005 47.7525 13.9926 47.7525 16.7925ZM40.9649 3.64168C41.9831 3.55684 43.086 3.89621 43.9345 4.40527C42.4921 5.16887 41.2195 6.187 40.1165 7.37481C36.9773 10.7686 34.5168 16.0289 33.5835 21.1195L24.8446 23.8345C26.6263 15.8592 33.2441 3.89621 40.9649 3.64168ZM31.2927 49.118C31.6321 54.4632 45.6314 55.5662 46.395 68.0382C46.9889 77.8801 41.2195 84.5828 32.8199 85.0919C22.7235 85.7706 17.2086 79.8315 17.2086 79.8315L19.3297 70.7532C19.3297 70.7532 24.9294 74.9954 29.3413 74.656C32.226 74.4864 33.329 72.1107 33.1593 70.4139C32.7351 63.4566 21.366 63.8809 20.6024 52.5118C20.0085 42.9244 26.2869 33.1674 40.2013 32.3189C45.5465 31.9796 48.2615 33.3371 48.2615 33.3371L45.1223 45.2152C45.1223 45.2152 41.5588 43.6032 37.4015 43.8577C31.2927 44.2819 31.2079 48.1847 31.2927 49.118ZM51.0614 15.7744C51.0614 13.229 50.722 9.75043 49.5342 6.69604C53.2673 7.3748 55.1339 11.7019 55.9823 14.2472C55.8975 14.2472 51.0614 15.7744 51.0614 15.7744ZM64.9758 102.57L90.938 96.1216C90.938 96.1216 79.7386 20.6105 79.7386 20.1014C79.6538 19.6772 79.3144 19.3378 78.8053 19.253C78.466 19.253 71.1694 19.0833 71.1694 19.0833C71.1694 19.0833 66.7575 14.7562 65.0606 13.1442V102.57H64.9758Z" fill="white"/>
</svg>
