<svg viewBox="0 0 24 24" fill="none" xmlns="http://www.w3.org/2000/svg">
<g clip-path="url(#clip0_104_445)">
<path fill-rule="evenodd" clip-rule="evenodd" d="M3.34107 6.0116V12.9722H4.45476L2.22738 16.2019L0 12.9722H1.16937V6.0116C1.16937 3.28306 3.39675 1 6.18097 1H17.9304C20.6589 1 22.942 3.22738 22.942 6.0116H20.7703C20.7703 4.45244 19.4896 3.22738 17.9861 3.22738H6.12529C4.62181 3.17169 3.34107 4.45244 3.34107 6.0116ZM21.7726 7.51508L24 10.7448H22.8863V17.7053C22.8863 20.4339 20.6589 22.7169 17.8747 22.7169H6.12529C3.39675 22.7169 1.11369 20.4896 1.11369 17.7053H3.34107C3.34107 19.2645 4.62181 20.4896 6.12529 20.4896H17.8747C19.4339 20.4896 20.6589 19.2088 20.6589 17.7053V10.8005H19.5452L20.6589 9.18562L21.7726 7.51508ZM10.0789 16.8701H8.12993C7.90719 16.8701 7.68446 16.6473 7.68446 16.3689V10.6334C7.68446 10.4107 7.85151 10.1879 8.12993 10.1879H10.0789C10.3016 10.1879 10.5244 10.355 10.5244 10.6334V16.4246C10.5244 16.6473 10.3573 16.8701 10.0789 16.8701ZM13.9211 16.8701H15.8701C16.1485 16.8701 16.3155 16.6473 16.3155 16.4246V7.34803C16.3155 7.06961 16.0928 6.90256 15.8701 6.90256H13.9211C13.6427 6.90256 13.4756 7.12529 13.4756 7.34803V16.4246C13.4756 16.6473 13.6984 16.8701 13.9211 16.8701Z" fill="#fff"></path>
</g>
<defs>
<clipPath id="clip0_104_445">
<rect width="24" height="24" fill="#fff"></rect>
</clipPath>
</defs>
</svg>