<svg xmlns="http://www.w3.org/2000/svg" viewBox="0 0 1000 1000" width="1000" height="1000" preserveAspectRatio="xMidYMid meet" style="width: 100%; height: 100%; transform: translate3d(0px, 0px, 0px);"><defs><clipPath id="__lottie_element_6"><rect width="1000" height="1000" x="0" y="0"></rect></clipPath><filter id="__lottie_element_11" filterUnits="objectBoundingBox" x="0%" y="0%" width="100%" height="100%"><feComponentTransfer in="SourceGraphic"><feFuncA type="table" tableValues="1.0 0.0"></feFuncA></feComponentTransfer></filter><mask id="__lottie_element_10" mask-type="alpha"><g filter="url(#__lottie_element_11)"><rect width="1000" height="1000" x="0" y="0" fill="#ffffff" opacity="0"></rect><g transform="matrix(1,0,0,1,153.39910888671875,476.2738342285156)" opacity="1" style="display: block;"><path fill="rgb(255,0,0)" fill-opacity="1" d=" M242.6831512451172,81.00232696533203 C242.6831512451172,81.00232696533203 159.75355529785156,187.721435546875 52.019371032714844,191.4011993408203 C-16.29105567932129,159.4669189453125 -180.21966552734375,36.778709411621094 -180.21966552734375,36.778709411621094 C-180.21966552734375,36.778709411621094 -123.4142074584961,16.970687866210938 -55.021121978759766,-9.563128471374512 C-31.814207077026367,-18.32164192199707 242.6831512451172,81.00232696533203 242.6831512451172,81.00232696533203z"></path><g opacity="1" transform="matrix(1,0,0,1,0,0)"><path fill="rgb(255,255,255)" fill-opacity="1" d="M0 0"></path><path stroke-linecap="round" stroke-linejoin="round" fill-opacity="0" stroke="rgb(0,0,0)" stroke-opacity="1" stroke-width="50" d=" M242.6831512451172,81.00232696533203 C242.6831512451172,81.00232696533203 159.75355529785156,187.721435546875 52.019371032714844,191.4011993408203 C-16.29105567932129,159.4669189453125 -180.21966552734375,36.778709411621094 -180.21966552734375,36.778709411621094 C-180.21966552734375,36.778709411621094 -123.4142074584961,16.970687866210938 -55.021121978759766,-9.563128471374512 C-31.814207077026367,-18.32164192199707 242.6831512451172,81.00232696533203 242.6831512451172,81.00232696533203z"></path></g></g></g></mask><filter id="__lottie_element_90" filterUnits="objectBoundingBox" x="0%" y="0%" width="100%" height="100%"><feComponentTransfer in="SourceGraphic"><feFuncA type="table" tableValues="1.0 0.0"></feFuncA></feComponentTransfer></filter><mask id="__lottie_element_89" mask-type="alpha"><g filter="url(#__lottie_element_90)"><rect width="1000" height="1000" x="0" y="0" fill="#ffffff" opacity="0"></rect><g transform="matrix(1,0,0,1,164,789)" opacity="1" style="display: none;"><path fill="rgb(255,0,0)" fill-opacity="1" d=" M-233.50100708007812,247.08299255371094 C-233.50100708007812,247.08299255371094 -233.52699279785156,247 -233.52699279785156,247 C-233.52699279785156,247 -229.57400512695312,250.9530029296875 -229.57400512695312,250.9530029296875 C-229.57400512695312,250.9530029296875 -229.58399963378906,251 -229.58399963378906,251 C-229.58399963378906,251 -233.50100708007812,247.08299255371094 -233.50100708007812,247.08299255371094z"></path><g opacity="1" transform="matrix(1,0,0,1,0,0)"><path fill="rgb(255,255,255)" fill-opacity="1" d="M0 0"></path><path stroke-linecap="round" stroke-linejoin="round" fill-opacity="0" stroke="rgb(0,0,0)" stroke-opacity="1" stroke-width="50" d=" M-233.50100708007812,247.08299255371094 C-233.50100708007812,247.08299255371094 -233.52699279785156,247 -233.52699279785156,247 C-233.52699279785156,247 -229.57400512695312,250.9530029296875 -229.57400512695312,250.9530029296875 C-229.57400512695312,250.9530029296875 -229.58399963378906,251 -229.58399963378906,251 C-229.58399963378906,251 -233.50100708007812,247.08299255371094 -233.50100708007812,247.08299255371094z"></path></g></g></g></mask></defs><g clip-path="url(#__lottie_element_6)"><g mask="url(#__lottie_element_10)" style="display: block;"><g transform="matrix(0.9959799647331238,0.08957608789205551,-0.08957608789205551,0.9959799647331238,496.2799072265625,495.5706787109375)" opacity="1"><g opacity="1" transform="matrix(1,0,0,1,0,0)"><path stroke-linecap="round" stroke-linejoin="round" fill-opacity="0" stroke="rgb(0,0,0)" stroke-opacity="1" stroke-width="50" d=" M293.6610107421875,75.83515167236328 C293.6610107421875,75.83515167236328 157.2773895263672,212.21878051757812 157.2773895263672,212.21878051757812 C70.95358276367188,298.5426025390625 -71.38088989257812,297.4658203125 -159.01988220214844,209.8268280029297 C-159.01988220214844,209.8268280029297 -164.24151611328125,204.60618591308594 -164.24151611328125,204.60618591308594 C-251.88050842285156,116.96719360351562 -252.95628356933594,-25.36727523803711 -146.921875,-131.4016876220703 C-146.921875,-131.4016876220703 26.532094955444336,-304.8566589355469 26.532094955444336,-304.8566589355469 C26.532094955444336,-304.8566589355469 27.26129722595215,-305.5848693847656 27.26129722595215,-305.5848693847656 C99.29246520996094,-377.61602783203125 210.8970947265625,-382.798583984375 276.53668212890625,-317.15899658203125 C342.17626953125,-251.5194091796875 336.9947204589844,-139.91477966308594 264.9635314941406,-67.88359832763672 C264.9635314941406,-67.88359832763672 263.61932373046875,-66.53938293457031 263.61932373046875,-66.53938293457031 C263.61932373046875,-66.53938293457031 87.87257385253906,109.20735931396484 87.87257385253906,109.20735931396484 C47.10612487792969,149.9738006591797 -16.31981658935547,153.25624084472656 -53.07461166381836,116.50142669677734 C-53.07461166381836,116.50142669677734 -53.07461166381836,116.50142669677734 -53.07461166381836,116.50142669677734 C-89.82942199707031,79.74662780761719 -86.54698944091797,16.320690155029297 -45.78054428100586,-24.445755004882812 C-45.78054428100586,-24.445755004882812 143.58775329589844,-213.8140411376953 143.58775329589844,-213.8140411376953"></path></g></g></g><g transform="matrix(1,0,0,1,153.39910888671875,476.2738342285156)" opacity="1" style="display: block;"><g opacity="1" transform="matrix(1,0,0,1,0,0)"><path fill="rgb(255,255,255)" fill-opacity="1" d="M0 0"></path><path stroke-linecap="round" stroke-linejoin="round" fill-opacity="0" stroke="rgb(0,0,0)" stroke-opacity="1" stroke-width="50" d=" M242.6831512451172,81.00232696533203 C242.6831512451172,81.00232696533203 159.75355529785156,187.721435546875 52.019371032714844,191.4011993408203 C-16.29105567932129,159.4669189453125 -180.21966552734375,36.778709411621094 -180.21966552734375,36.778709411621094 C-180.21966552734375,36.778709411621094 -123.4142074584961,16.970687866210938 -55.021121978759766,-9.563128471374512 C-31.814207077026367,-18.32164192199707 242.6831512451172,81.00232696533203 242.6831512451172,81.00232696533203z"></path></g></g><g transform="matrix(1,0,0,1,499.9999694824219,500)" opacity="1" style="display: none;"><g opacity="1" transform="matrix(1,0,0,1,0,0)"><path stroke-linecap="round" stroke-linejoin="round" fill-opacity="0" stroke="rgb(0,0,0)" stroke-opacity="1" stroke-width="50" d=" M33.59160614013672,-352.5338439941406 C33.59160614013672,-352.5338439941406 34.42860412597656,-353.371826171875 34.42860412597656,-353.371826171875 C63.30043411254883,-382.1930236816406 97.63697052001953,-401.1501770019531 133.1188201904297,-409.5570373535156 C196.36575317382812,-424.5420837402344 262.7690124511719,-406.43798828125 311.0820007324219,-358.125 C386.4989929199219,-282.7080078125 380.5450134277344,-154.48097229003906 297.7850036621094,-71.72000122070312 C297.7850036621094,-71.72000122070312 296.2409973144531,-70.17500305175781 296.2409973144531,-70.17500305175781 C296.2409973144531,-70.17500305175781 94.31700134277344,131.74899291992188 94.31700134277344,131.74899291992188 C47.47800064086914,178.58799743652344 -25.395999908447266,182.35899353027344 -67.625,140.1300048828125 C-67.625,140.1300048828125 -67.625,140.1300048828125 -67.625,140.1300048828125 C-109.85399627685547,97.9010009765625 -106.08300018310547,25.027000427246094 -59.24399948120117,-21.812000274658203 C-59.24399948120117,-21.812000274658203 158.33099365234375,-239.38699340820312 158.33099365234375,-239.38699340820312"></path></g></g><g mask="url(#__lottie_element_89)" style="display: none;"><g transform="matrix(1,0,0,1,499.9999694824219,500)" opacity="1"><g opacity="1" transform="matrix(1,0,0,1,0,0)"><path stroke-linecap="round" stroke-linejoin="round" fill-opacity="0" stroke="rgb(0,0,0)" stroke-opacity="1" stroke-width="50" d=" M330.7569885253906,93.40599822998047 C330.7569885253906,93.40599822998047 174.0590057373047,250.10400390625 174.0590057373047,250.10400390625 C74.87699890136719,349.2860107421875 -88.65799713134766,348.04901123046875 -189.3509979248047,247.3560028076172 C-189.3509979248047,247.3560028076172 -195.35000610351562,241.35699462890625 -195.35000610351562,241.35699462890625 C-296.0429992675781,140.66400146484375 -297.2799987792969,-22.8700008392334 -175.4510040283203,-144.69900512695312 C-175.4510040283203,-144.69900512695312 23.84000015258789,-343.989990234375 23.84000015258789,-343.989990234375 C23.84000015258789,-343.989990234375 24.677000045776367,-344.8280029296875 24.677000045776367,-344.8280029296875 C107.43699645996094,-427.5880126953125 235.6649932861328,-433.5419921875 311.0820007324219,-358.125 C386.4989929199219,-282.7080078125 380.5450134277344,-154.47999572753906 297.7850036621094,-71.72000122070312 C297.7850036621094,-71.72000122070312 296.2409973144531,-70.17500305175781 296.2409973144531,-70.17500305175781 C296.2409973144531,-70.17500305175781 94.31700134277344,131.74899291992188 94.31700134277344,131.74899291992188 C47.47800064086914,178.58799743652344 -25.395999908447266,182.35899353027344 -67.625,140.1300048828125 C-67.625,140.1300048828125 -67.625,140.1300048828125 -67.625,140.1300048828125 C-109.85399627685547,97.9010009765625 -106.08300018310547,25.027000427246094 -59.24399948120117,-21.812000274658203 C-59.24399948120117,-21.812000274658203 158.33099365234375,-239.38699340820312 158.33099365234375,-239.38699340820312"></path></g></g></g><g transform="matrix(1,0,0,1,164,789)" opacity="1" style="display: none;"><g opacity="1" transform="matrix(1,0,0,1,0,0)"><path fill="rgb(255,255,255)" fill-opacity="1" d="M0 0"></path><path stroke-linecap="round" stroke-linejoin="round" fill-opacity="0" stroke="rgb(0,0,0)" stroke-opacity="1" stroke-width="50" d=" M-233.50100708007812,247.08299255371094 C-233.50100708007812,247.08299255371094 -233.52699279785156,247 -233.52699279785156,247 C-233.52699279785156,247 -229.57400512695312,250.9530029296875 -229.57400512695312,250.9530029296875 C-229.57400512695312,250.9530029296875 -229.58399963378906,251 -229.58399963378906,251 C-229.58399963378906,251 -233.50100708007812,247.08299255371094 -233.50100708007812,247.08299255371094z"></path></g></g><g transform="matrix(1,0,0,1,499.9999694824219,500)" opacity="1" style="display: none;"><g opacity="1" transform="matrix(1,0,0,1,0,0)"><path stroke-linecap="round" stroke-linejoin="round" fill-opacity="0" stroke="rgb(0,0,0)" stroke-opacity="1" stroke-width="50" d=" M32.06901550292969,-351.3046875 C32.06901550292969,-351.3046875 32.9060173034668,-352.1426696777344 32.9060173034668,-352.1426696777344 C62.649017333984375,-381.88568115234375 97.20164489746094,-400.76318359375 132.76620483398438,-409.24359130859375 C196.16055297851562,-424.35968017578125 262.7690124511719,-406.43798828125 311.0820007324219,-358.125 C386.4989929199219,-282.7080078125 380.5450134277344,-154.4809112548828 297.7850036621094,-71.72000122070312 C297.7850036621094,-71.72000122070312 296.2409973144531,-70.17500305175781 296.2409973144531,-70.17500305175781 C296.2409973144531,-70.17500305175781 94.31700134277344,131.74899291992188 94.31700134277344,131.74899291992188 C47.47800064086914,178.58799743652344 -25.395999908447266,182.35899353027344 -67.625,140.1300048828125 C-67.625,140.1300048828125 -67.625,140.1300048828125 -67.625,140.1300048828125 C-109.85399627685547,97.9010009765625 -106.08300018310547,25.027000427246094 -59.24399948120117,-21.812000274658203 C-59.24399948120117,-21.812000274658203 158.33099365234375,-239.38699340820312 158.33099365234375,-239.38699340820312"></path></g></g></g></svg>