<svg width="212" height="209" viewBox="0 0 212 209" fill="none" xmlns="http://www.w3.org/2000/svg">
<path d="M97.2611 5.36313L97.5651 7.97982L94.7334 8.30871L95.5953 15.7289C95.6481 16.1837 95.7572 16.5247 95.9224 16.7517C96.0932 16.9718 96.299 17.1121 96.5396 17.1725C96.7803 17.233 97.0408 17.2469 97.3211 17.2144C97.533 17.1898 97.7243 17.1518 97.8951 17.1003C98.0722 17.0482 98.206 17.0043 98.2965 16.9685L99.1738 19.547C99.0003 19.6303 98.7497 19.7289 98.422 19.8427C98.1005 19.9558 97.7006 20.0465 97.2223 20.1146C96.3779 20.238 95.5998 20.1989 94.8882 19.9974C94.1758 19.7897 93.5855 19.4099 93.1173 18.8582C92.6553 18.3056 92.3754 17.5804 92.2774 16.6826L91.3504 8.70164L89.3131 8.93827L89.0092 6.32158L91.0465 6.08495L90.647 2.64586L94.0301 2.25293L94.4295 5.69202L97.2611 5.36313Z" fill="white"/>
<path d="M79.7012 10.515L78.9165 8.00034L76.1952 8.84956L75.1638 5.54455L71.9127 6.55912L72.9441 9.86413L70.9862 10.4751L71.771 12.9898L73.7289 12.3788L76.1223 20.0486C76.3854 20.9126 76.7952 21.5732 77.3518 22.0303C77.9144 22.4855 78.5649 22.749 79.3035 22.8207C80.0402 22.8865 80.812 22.7803 81.6188 22.5023C82.0761 22.3464 82.4522 22.1831 82.7471 22.0122C83.048 21.8394 83.2759 21.696 83.4308 21.582L82.0898 19.2113C82.0075 19.2633 81.8842 19.3314 81.7199 19.4155C81.5616 19.4977 81.3806 19.5706 81.1771 19.6341C80.9076 19.7182 80.6491 19.7529 80.4014 19.7382C80.1537 19.7235 79.9255 19.6239 79.7168 19.4394C79.5122 19.247 79.3417 18.9322 79.2053 18.4952L76.98 11.3642L79.7012 10.515Z" fill="white"/>
<path d="M69.7961 15.7101L67.1332 17.3419C66.9199 17.0958 66.6551 16.8949 66.3387 16.7391C66.028 16.5805 65.6721 16.5024 65.2708 16.5046C64.8696 16.5068 64.4307 16.6203 63.9543 16.8453C63.3134 17.1479 62.8402 17.5412 62.5347 18.0253C62.2349 18.5068 62.1922 18.9674 62.4068 19.4071C62.5805 19.7898 62.8654 20.0333 63.2615 20.1376C63.6632 20.2392 64.232 20.2099 64.9679 20.0497L67.4218 19.4737C68.7841 19.1565 69.9025 19.1452 70.7768 19.4399C71.6568 19.7319 72.3206 20.3444 72.7681 21.2776C73.1508 22.1026 73.2525 22.9424 73.0733 23.7969C72.8971 24.6431 72.4724 25.4402 71.799 26.1881C71.1256 26.9361 70.2444 27.5672 69.1555 28.0814C67.556 28.8365 66.1106 29.1098 64.819 28.9011C63.5248 28.6868 62.5003 28.0226 61.7454 26.9086L64.612 25.2014C65.0266 25.727 65.5261 26.0356 66.1104 26.1273C66.6947 26.2191 67.3414 26.0976 68.0503 25.7628C68.782 25.4174 69.298 24.9899 69.5985 24.4804C69.9046 23.9683 69.9533 23.491 69.7444 23.0486C69.5676 22.6743 69.2771 22.4334 68.8727 22.3261C68.4739 22.2161 67.9432 22.2379 67.2804 22.3913L64.8305 22.9758C63.4538 23.3067 62.319 23.305 61.4259 22.9706C60.5301 22.6306 59.8601 21.9828 59.4159 21.0273C59.03 20.2246 58.9189 19.4239 59.0828 18.6252C59.2497 17.8181 59.6538 17.0654 60.2952 16.3672C60.9396 15.6607 61.7836 15.0611 62.8272 14.5683C64.3586 13.8453 65.7178 13.6023 66.9048 13.8395C68.0976 14.074 69.0613 14.6975 69.7961 15.7101Z" fill="white"/>
<path fill-rule="evenodd" clip-rule="evenodd" d="M53.1203 36.2985C54.3288 36.1876 55.5266 35.7168 56.7137 34.8861C57.6335 34.2423 58.3535 33.5318 58.8735 32.7544C59.39 31.9719 59.6989 31.1662 59.8002 30.3374C59.9031 29.4999 59.7958 28.6793 59.4783 27.8756L56.668 29.4061C56.7784 29.8264 56.792 30.2341 56.7087 30.6292C56.6255 31.0244 56.4607 31.3961 56.2146 31.7444C55.9648 32.0877 55.637 32.4013 55.231 32.6854C54.6246 33.1098 54.0054 33.3517 53.3734 33.4113C52.7378 33.4657 52.1233 33.3369 51.5298 33.0249C50.9529 32.7185 50.4298 32.2387 49.9604 31.5855L58.2076 25.8138L57.6088 24.9582C56.8824 23.9202 56.1127 23.1267 55.2999 22.5779C54.4835 22.0239 53.6527 21.679 52.8074 21.5432C51.9673 21.4039 51.14 21.447 50.3256 21.6725C49.5127 21.8892 48.7414 22.2529 48.0117 22.7636C46.8812 23.5548 46.0787 24.503 45.6043 25.6082C45.1264 26.7082 44.9772 27.8844 45.1569 29.1366C45.3382 30.3801 45.855 31.6108 46.7073 32.8286C47.574 34.0671 48.5586 34.9818 49.6613 35.5728C50.7603 36.1587 51.9133 36.4006 53.1203 36.2985ZM48.6494 29.701L54.2167 25.8049C53.8375 25.274 53.3892 24.8796 52.8718 24.6216C52.3508 24.3585 51.8028 24.2482 51.2279 24.2908C50.658 24.3298 50.1059 24.5363 49.5715 24.9103C49.0011 25.3095 48.5971 25.7989 48.3597 26.3784C48.1186 26.9529 48.0338 27.5481 48.1051 28.1642C48.1702 28.7061 48.3516 29.2184 48.6494 29.701Z" fill="white"/>
<path fill-rule="evenodd" clip-rule="evenodd" d="M40.4298 49.394L26.7559 35.8191L29.1553 33.4022L34.2697 38.4795L34.3691 38.3793C34.2436 38.0072 34.1533 37.5685 34.0982 37.0631C34.0387 36.5533 34.1011 36.0053 34.2852 35.4192C34.4649 34.8287 34.853 34.233 35.4496 33.6321C36.2361 32.8398 37.1479 32.3264 38.1849 32.092C39.2218 31.8488 40.3198 31.9313 41.4788 32.3395C42.6378 32.7389 43.7871 33.5042 44.9266 34.6355C46.0527 35.7534 46.8263 36.8882 47.2474 38.0398C47.6685 39.1914 47.77 40.291 47.5521 41.3384C47.3341 42.3859 46.8252 43.3125 46.0254 44.1181C45.4421 44.7057 44.8603 45.0958 44.28 45.2887C43.6997 45.4815 43.1545 45.5589 42.6443 45.5208C42.1341 45.4739 41.6903 45.3912 41.3129 45.2728L41.1737 45.413L42.7895 47.0171L40.4298 49.394ZM37.6551 41.9332C38.3184 42.5916 38.992 43.0748 39.6761 43.3828C40.3647 43.6863 41.0259 43.7992 41.6599 43.7215C42.2938 43.6349 42.8648 43.3357 43.373 42.8238C43.9032 42.2897 44.2049 41.701 44.278 41.0576C44.3466 40.4098 44.2222 39.7472 43.9049 39.0698C43.5875 38.3835 43.1083 37.7222 42.4673 37.0859C41.8308 36.454 41.1749 35.9841 40.4997 35.6761C39.8244 35.368 39.1676 35.2551 38.5293 35.3373C37.8909 35.4194 37.3044 35.7298 36.7697 36.2684C36.2571 36.7847 35.9576 37.3579 35.8712 37.988C35.7848 38.6181 35.8936 39.2697 36.1976 39.9427C36.5061 40.6113 36.9919 41.2748 37.6551 41.9332Z" fill="white"/>
<path fill-rule="evenodd" clip-rule="evenodd" d="M28.327 65.7264C29.2837 65.2473 30.0489 64.518 30.6227 63.5385C31.0412 62.8241 31.2693 62.1617 31.307 61.5514C31.3447 60.9411 31.2797 60.3942 31.1122 59.9108C30.9393 59.4243 30.7457 59.0165 30.5314 58.6874L30.636 58.5088L32.6005 59.6596L34.2934 56.7696L17.668 47.0307L15.9418 49.9775L22.1601 53.6201L22.0888 53.7418C21.6969 53.7158 21.2497 53.741 20.7471 53.8173C20.239 53.8904 19.7253 54.091 19.206 54.4192C18.6812 54.7442 18.2048 55.272 17.7769 56.0026C17.2157 56.9605 16.9531 57.9734 16.9891 59.0412C17.0197 60.1058 17.3792 61.1487 18.0676 62.1699C18.7538 63.1824 19.7896 64.0945 21.1751 64.9061C22.5443 65.7082 23.8394 66.1652 25.0605 66.2771C26.2815 66.3891 27.3704 66.2055 28.327 65.7264ZM29.1207 59.4203C29.1995 60.0552 29.0566 60.6838 28.692 61.3062C28.3147 61.9502 27.823 62.3927 27.2166 62.6336C26.6081 62.8659 25.9341 62.9181 25.1949 62.7904C24.4533 62.654 23.6929 62.3576 22.9136 61.9011C22.1397 61.4477 21.5174 60.9342 21.0466 60.3604C20.5759 59.7866 20.2984 59.1807 20.2143 58.5426C20.1301 57.9045 20.2798 57.258 20.6634 56.6032C21.0343 55.97 21.5117 55.5336 22.0954 55.294C22.6823 55.049 23.3384 54.99 24.0637 55.1168C24.7922 55.2382 25.5596 55.5351 26.366 56.0075C27.1724 56.4799 27.812 57.0072 28.285 57.5896C28.758 58.172 29.0366 58.7822 29.1207 59.4203Z" fill="white"/>
<path d="M9.81175 62.7445L27.5855 70.184L26.2705 73.3257L8.49676 65.8862L9.81175 62.7445Z" fill="white"/>
<path d="M10.2763 75.4133L24.0215 79.8742L25.0728 76.6347L11.3276 72.1739L10.2763 75.4133Z" fill="white"/>
<path d="M7.91412 74.3104C8.37421 74.0508 8.68751 73.6646 8.85402 73.1515C9.02247 72.6325 8.99572 72.1358 8.77377 71.6616C8.54779 71.1794 8.19319 70.8599 7.70996 70.7031C7.22077 70.5443 6.74612 70.5947 6.28603 70.8542C5.82191 71.1058 5.50563 71.4911 5.33718 72.0101C5.17067 72.5232 5.20041 73.0208 5.42638 73.503C5.64639 73.9832 6.001 74.3027 6.49019 74.4615C6.97342 74.6183 7.44806 74.568 7.91412 74.3104Z" fill="white"/>
<path d="M16.573 84.3814L8.34206 82.844L8.96737 79.4961L23.1727 82.1494L22.5664 85.3955L20.0416 84.9239L20.014 85.0719C20.7494 85.5411 21.3014 86.1897 21.6699 87.0178C22.0396 87.8398 22.1249 88.7841 21.9256 89.8507C21.7518 90.7817 21.3915 91.5662 20.8448 92.2043C20.2931 92.835 19.5822 93.2764 18.712 93.5286C17.8356 93.7797 16.8302 93.7993 15.6958 93.5874L6.65098 91.898L7.27628 88.5502L15.8032 90.1428C16.7033 90.3109 17.4646 90.1979 18.0869 89.8037C18.7093 89.4095 19.0953 88.8116 19.245 88.0101C19.3372 87.5169 19.3062 87.0166 19.1521 86.5093C18.998 86.0019 18.7112 85.556 18.2918 85.1714C17.8673 84.7794 17.2944 84.5161 16.573 84.3814Z" fill="white"/>
<path fill-rule="evenodd" clip-rule="evenodd" d="M0.728638 111.047L19.996 111.196L20.0219 107.847L17.7451 107.829L17.7467 107.631C18.0993 107.452 18.4744 107.201 18.8721 106.878C19.2635 106.549 19.5993 106.112 19.8795 105.569C20.1597 105.025 20.303 104.339 20.3093 103.512C20.3181 102.376 20.0343 101.358 19.4579 100.457C18.8816 99.5552 18.0403 98.8399 16.9342 98.3108C15.8281 97.7817 14.4817 97.511 12.8949 97.4987C11.2893 97.4863 9.93246 97.7424 8.82449 98.267C7.71029 98.7853 6.86747 99.4938 6.29602 100.393C5.71835 101.285 5.42521 102.29 5.41659 103.406C5.41005 104.253 5.54893 104.95 5.83323 105.498C6.11125 106.046 6.44973 106.481 6.84866 106.804C7.24132 107.127 7.61259 107.378 7.96246 107.556L7.96137 107.697L0.754931 107.641L0.728638 111.047ZM15.255 107.424C14.5505 107.682 13.731 107.807 12.7965 107.8C11.862 107.793 11.0508 107.658 10.3629 107.396C9.67498 107.127 9.14171 106.737 8.76304 106.226C8.38437 105.715 8.19785 105.096 8.20347 104.368C8.20933 103.609 8.41178 102.977 8.81084 102.472C9.20989 101.968 9.7585 101.589 10.4567 101.337C11.1548 101.086 11.9524 100.963 12.8493 100.97C13.7524 100.977 14.5573 101.115 15.264 101.384C15.9645 101.646 16.5166 102.033 16.9204 102.545C17.3178 103.056 17.5137 103.688 17.5079 104.44C17.5023 105.161 17.3031 105.775 16.9103 106.28C16.5113 106.778 15.9596 107.16 15.255 107.424Z" fill="white"/>
<path d="M211.271 107.02L191.426 109.666L190.937 113.075L203.771 118.822L203.749 118.971L189.819 120.869L189.33 124.278L207.63 132.397L208.163 128.681L194.631 123.233L194.655 123.065L209.208 121.399L209.693 118.018L196.204 112.338L196.229 112.161L210.738 110.736L211.271 107.02Z" fill="white"/>
<path fill-rule="evenodd" clip-rule="evenodd" d="M187.043 133.143C186.097 133.904 185.36 134.958 184.831 136.307C184.42 137.352 184.214 138.343 184.211 139.278C184.213 140.215 184.402 141.057 184.776 141.804C185.153 142.559 185.697 143.183 186.406 143.677L187.9 140.847C187.576 140.558 187.339 140.226 187.19 139.851C187.04 139.475 186.972 139.075 186.984 138.648C187.002 138.224 187.102 137.781 187.283 137.32C187.553 136.631 187.935 136.087 188.429 135.688C188.928 135.291 189.512 135.058 190.178 134.99C190.829 134.926 191.53 135.036 192.282 135.321L188.605 144.691L189.577 145.073C190.756 145.536 191.837 145.771 192.817 145.778C193.804 145.788 194.687 145.616 195.466 145.261C196.243 144.913 196.908 144.419 197.462 143.781C198.019 143.15 198.461 142.421 198.786 141.592C199.29 140.307 199.434 139.073 199.218 137.89C199.007 136.709 198.481 135.647 197.638 134.703C196.8 133.768 195.688 133.029 194.304 132.485C192.897 131.933 191.571 131.716 190.326 131.834C189.086 131.954 187.992 132.39 187.043 133.143ZM194.417 136.165L191.934 142.491C192.544 142.723 193.136 142.804 193.709 142.733C194.289 142.664 194.806 142.452 195.262 142.099C195.715 141.751 196.061 141.273 196.299 140.666C196.553 140.018 196.619 139.387 196.496 138.773C196.379 138.161 196.121 137.618 195.72 137.144C195.366 136.729 194.932 136.403 194.417 136.165Z" fill="white"/>
<path d="M197.377 155.647L195.69 154.732C195.204 154.469 194.751 154.102 194.328 153.63C193.909 153.168 193.548 152.648 193.248 152.071C192.952 151.497 192.747 150.915 192.632 150.324L194.286 149.424C194.58 149.975 194.93 150.507 195.337 151.02C195.749 151.536 196.291 151.976 196.964 152.341L198.668 153.265L197.377 155.647Z" fill="white"/>
<path d="M190.108 157.486L178.09 149.462L176.198 152.294L183.264 157.012C183.775 157.353 184.148 157.771 184.383 158.267C184.617 158.763 184.708 159.288 184.656 159.841C184.605 160.403 184.407 160.942 184.062 161.458C183.902 161.698 183.718 161.934 183.511 162.165C183.306 162.405 183.142 162.571 183.02 162.663L185.626 164.403C185.739 164.29 185.867 164.138 186.01 163.946C186.154 163.764 186.279 163.594 186.383 163.438C186.843 162.749 187.062 162.009 187.04 161.218C187.019 160.435 186.735 159.702 186.188 159.02L186.271 158.895L188.275 160.232L190.108 157.486Z" fill="white"/>
<path fill-rule="evenodd" clip-rule="evenodd" d="M169.152 161.308C170.119 160.229 171.178 159.498 172.33 159.115C173.482 158.742 174.66 158.715 175.863 159.036C177.071 159.361 178.238 160.028 179.364 161.037C180.471 162.029 181.253 163.11 181.713 164.28C182.172 165.458 182.294 166.638 182.079 167.818C181.868 169.002 181.302 170.107 180.381 171.135C179.787 171.798 179.118 172.328 178.376 172.723C177.634 173.128 176.838 173.358 175.988 173.413C175.134 173.473 174.247 173.326 173.326 172.972C172.41 172.623 171.48 172.025 170.536 171.179L169.759 170.482L176.478 162.987C175.873 162.457 175.254 162.109 174.623 161.942C173.974 161.773 173.346 161.787 172.74 161.985C172.138 162.186 171.59 162.563 171.096 163.114C170.765 163.483 170.517 163.863 170.352 164.254C170.191 164.649 170.115 165.048 170.124 165.452C170.133 165.856 170.238 166.25 170.442 166.634L168.053 168.763C167.561 168.052 167.27 167.278 167.18 166.439C167.09 165.609 167.208 164.754 167.533 163.874C167.863 162.999 168.402 162.144 169.152 161.308ZM173.647 169.584L178.183 164.524C178.583 164.926 178.876 165.384 179.063 165.897C179.272 166.481 179.325 167.08 179.221 167.694C179.121 168.312 178.839 168.881 178.374 169.399C177.939 169.885 177.448 170.211 176.902 170.379C176.352 170.551 175.793 170.568 175.226 170.43C174.663 170.297 174.137 170.014 173.647 169.584Z" fill="white"/>
<path fill-rule="evenodd" clip-rule="evenodd" d="M156.951 174.603C155.746 174.67 154.56 175.1 153.392 175.892C152.224 176.684 151.386 177.627 150.878 178.722C150.37 179.817 150.196 180.985 150.355 182.226C150.51 183.47 151.006 184.71 151.844 185.945C152.682 187.181 153.652 188.103 154.755 188.712C155.852 189.324 157.003 189.596 158.208 189.529C159.413 189.462 160.6 189.033 161.768 188.241C162.936 187.449 163.773 186.505 164.281 185.41C164.789 184.315 164.964 183.143 164.807 181.894C164.643 180.648 164.143 179.407 163.305 178.172C162.467 176.936 161.501 176.015 160.407 175.408C159.308 174.804 158.156 174.536 156.951 174.603ZM153.673 179.759C153.863 179.123 154.275 178.59 154.908 178.16C155.557 177.72 156.214 177.528 156.881 177.584C157.546 177.648 158.186 177.904 158.8 178.351C159.409 178.802 159.96 179.391 160.453 180.118C160.949 180.849 161.294 181.582 161.488 182.314C161.68 183.056 161.683 183.747 161.497 184.389C161.305 185.034 160.885 185.577 160.236 186.017C159.603 186.446 158.954 186.629 158.289 186.564C157.624 186.5 156.985 186.24 156.373 185.784C155.758 185.337 155.203 184.747 154.707 184.015C154.214 183.288 153.873 182.557 153.685 181.821C153.491 181.088 153.487 180.401 153.673 179.759Z" fill="white"/>
<path d="M146.649 189.751L143.177 182.029L146.283 180.632L152.209 193.812L149.24 195.147L148.233 192.908L148.078 192.977C148.107 193.851 147.887 194.655 147.419 195.388C146.945 196.124 146.216 196.713 145.232 197.155C144.323 197.564 143.443 197.726 142.593 197.64C141.738 197.557 140.958 197.231 140.254 196.66C139.545 196.092 138.957 195.28 138.489 194.225L134.716 185.833L137.822 184.436L141.379 192.348C141.775 193.229 142.314 193.815 142.995 194.107C143.671 194.401 144.409 194.369 145.21 194.009C145.754 193.764 146.183 193.427 146.498 192.996C146.811 192.574 146.986 192.086 147.026 191.531C147.06 190.98 146.934 190.386 146.649 189.751Z" fill="white"/>
<path fill-rule="evenodd" clip-rule="evenodd" d="M124.563 188.437C123.782 188.251 122.941 188.242 122.041 188.41C121.301 188.548 120.676 188.771 120.165 189.077C119.649 189.39 119.241 189.75 118.941 190.157C118.636 190.571 118.418 190.995 118.288 191.427L118.177 191.448L117.813 189.497L114.594 190.098L116.37 199.605C116.546 200.548 116.866 201.302 117.328 201.867C117.785 202.432 118.328 202.844 118.957 203.103C119.587 203.369 120.256 203.518 120.964 203.552C121.672 203.585 122.369 203.538 123.053 203.41C124.046 203.225 124.924 202.908 125.689 202.459C126.455 202.016 127.067 201.448 127.525 200.757C127.984 200.071 128.256 199.274 128.341 198.365L125.132 198.504C125.057 199.023 124.815 199.505 124.407 199.951C123.993 200.399 123.376 200.699 122.556 200.852C121.779 200.997 121.149 200.917 120.664 200.612C120.18 200.307 119.872 199.806 119.742 199.109L119.732 199.054C119.672 198.733 119.748 198.473 119.959 198.274C120.166 198.083 120.521 197.901 121.026 197.731C121.531 197.566 122.191 197.363 123.008 197.121C123.684 196.918 124.331 196.673 124.947 196.386C125.558 196.106 126.091 195.76 126.544 195.35C126.997 194.94 127.322 194.446 127.52 193.866C127.718 193.287 127.742 192.597 127.593 191.795C127.419 190.864 127.066 190.12 126.534 189.562C125.997 189.005 125.339 188.63 124.563 188.437ZM119.958 191.757C120.401 191.4 120.959 191.158 121.631 191.033C122.328 190.903 122.931 190.953 123.44 191.183C123.948 191.413 124.26 191.837 124.375 192.453C124.456 192.885 124.408 193.258 124.23 193.572C124.054 193.892 123.783 194.166 123.417 194.394C123.051 194.621 122.625 194.816 122.138 194.977C121.922 195.049 121.667 195.135 121.373 195.235C121.079 195.334 120.783 195.441 120.485 195.554C120.187 195.667 119.922 195.783 119.689 195.903C119.45 196.025 119.286 196.138 119.197 196.244L118.885 194.57C118.787 194.046 118.832 193.537 119.02 193.042C119.203 192.549 119.515 192.12 119.958 191.757Z" fill="white"/>
<path d="M107.112 190.978L105.721 205.362L102.481 205.048L102.717 202.604L102.549 202.588C102.169 203.383 101.611 203.978 100.873 204.373C100.135 204.774 99.2851 204.928 98.3237 204.835C97.3498 204.741 96.5518 204.425 95.9296 203.885C95.3007 203.352 94.8881 202.666 94.6919 201.828L94.542 201.814C94.1464 202.582 93.5479 203.167 92.7466 203.568C91.9385 203.975 91.0131 204.128 89.9705 204.028C88.647 203.9 87.6074 203.377 86.8518 202.459C86.0961 201.542 85.7958 200.281 85.951 198.677L86.8846 189.022L90.2839 189.351L89.401 198.481C89.3147 199.374 89.4888 200.049 89.9235 200.507C90.3575 200.971 90.9179 201.236 91.6046 201.303C92.4224 201.382 93.0871 201.188 93.5986 200.72C94.1032 200.259 94.3948 199.622 94.4732 198.811L95.3407 189.839L98.6651 190.161L97.7686 199.432C97.6968 200.175 97.8642 200.79 98.2708 201.276C98.6712 201.762 99.2304 202.04 99.9483 202.11C100.435 202.157 100.891 202.075 101.314 201.864C101.737 201.659 102.089 201.343 102.37 200.916C102.65 200.496 102.819 199.989 102.876 199.396L103.722 190.65L107.112 190.978Z" fill="white"/>
<path d="M81.5762 201.57L85.356 187.622L82.0688 186.732L78.289 200.679L81.5762 201.57Z" fill="white"/>
<path d="M80.5907 203.984C80.3089 203.537 79.9077 203.243 79.3871 203.102C78.8604 202.959 78.3656 203.01 77.9029 203.255C77.4324 203.505 77.1307 203.875 76.9978 204.365C76.8633 204.861 76.9369 205.333 77.2188 205.78C77.4929 206.231 77.8933 206.528 78.42 206.671C78.9406 206.812 79.4361 206.758 79.9066 206.508C80.3755 206.265 80.6771 205.895 80.8117 205.399C80.9446 204.908 80.8709 204.437 80.5907 203.984Z" fill="white"/>
<path d="M64.2151 191.101L67.2195 191.954C67.1831 192.278 67.2147 192.609 67.3145 192.947C67.4084 193.283 67.5921 193.597 67.8656 193.891C68.1391 194.185 68.52 194.43 69.0082 194.628C69.6651 194.895 70.275 194.976 70.838 194.873C71.3952 194.767 71.7629 194.486 71.9409 194.031C72.1046 193.644 72.0906 193.269 71.899 192.907C71.7015 192.543 71.2946 192.144 70.6781 191.712L68.5918 190.297C67.4354 189.51 66.6693 188.695 66.2936 187.853C65.912 187.008 65.9128 186.105 66.2958 185.143C66.6433 184.303 67.192 183.659 67.9419 183.212C68.6836 182.768 69.5576 182.54 70.5639 182.529C71.5703 182.517 72.6315 182.737 73.7475 183.19C75.3866 183.854 76.567 184.732 77.2887 185.824C78.008 186.921 78.2138 188.124 77.906 189.434L74.708 188.483C74.8136 187.822 74.7022 187.245 74.3737 186.753C74.0452 186.261 73.5177 185.868 72.7912 185.574C72.0414 185.27 71.3773 185.18 70.799 185.304C70.2149 185.426 69.831 185.714 69.6471 186.167C69.4916 186.55 69.5114 186.927 69.7065 187.298C69.8958 187.665 70.2714 188.041 70.8333 188.424L72.9232 189.83C74.0994 190.618 74.8671 191.454 75.2263 192.337C75.5832 193.227 75.5608 194.158 75.1591 195.132C74.8302 195.96 74.3166 196.584 73.6181 197.005C72.9115 197.429 72.0841 197.642 71.136 197.643C70.1798 197.648 69.1669 197.434 68.0974 197C66.528 196.364 65.4283 195.529 64.7984 194.495C64.1627 193.459 63.9682 192.328 64.2151 191.101Z" fill="white"/>
<path d="M52.9873 184.974L50.1611 183.645C49.7184 184.815 49.7266 185.963 50.1856 187.088C50.6393 188.211 51.5888 189.213 53.034 190.096C54.0189 190.697 54.9836 191.073 55.9279 191.224C56.8636 191.376 57.7146 191.301 58.4807 190.997C59.2382 190.695 59.8464 190.163 60.3053 189.4C60.8599 188.504 61.0333 187.588 60.8255 186.653C60.6145 185.723 59.9927 184.773 58.9601 183.804L57.1262 182.078C56.634 181.608 56.3244 181.177 56.1973 180.783C56.0649 180.386 56.1066 180.011 56.3224 179.658C56.5774 179.24 57.0029 179.019 57.5991 178.993C58.1899 178.965 58.8305 179.161 59.521 179.583C60.1901 179.992 60.6467 180.465 60.891 181.004C61.1352 181.543 61.1516 182.13 60.94 182.765L63.941 184.223C64.4575 182.98 64.4499 181.759 63.9183 180.56C63.3834 179.366 62.3612 178.308 60.8517 177.386C59.824 176.758 58.8127 176.369 57.8178 176.217C56.8229 176.065 55.9235 176.147 55.1196 176.465C54.3071 176.784 53.6612 177.331 53.1818 178.104C52.6477 178.99 52.5003 179.881 52.7396 180.777C52.9735 181.669 53.5971 182.598 54.6103 183.562L56.4393 185.296C56.9773 185.824 57.3141 186.283 57.4498 186.674C57.5801 187.063 57.5331 187.434 57.3087 187.79C57.0591 188.211 56.6507 188.428 56.0837 188.442C55.5114 188.452 54.9228 188.273 54.3179 187.903C53.8683 187.629 53.5324 187.324 53.3102 186.99C53.088 186.656 52.9579 186.316 52.9197 185.969C52.8762 185.619 52.8987 185.287 52.9873 184.974Z" fill="white"/>
<path d="M53.799 172.582L44.8363 183.918L42.1647 181.805L51.1274 170.469L53.799 172.582Z" fill="white"/>
<path d="M42.221 184.464C42.6442 184.799 42.8974 185.227 42.9807 185.749C43.0601 186.275 42.9423 186.738 42.6272 187.136C42.3082 187.54 41.8853 187.761 41.3585 187.8C40.8279 187.844 40.351 187.699 39.9278 187.365C39.4998 187.026 39.2485 186.596 39.174 186.073C39.0907 185.551 39.2086 185.089 39.5275 184.686C39.8426 184.287 40.2655 184.066 40.7962 184.021C41.318 183.978 41.793 184.126 42.221 184.464Z" fill="white"/>
<path fill-rule="evenodd" clip-rule="evenodd" d="M46.3006 167.338C46.0207 166.164 45.3872 165.073 44.4003 164.064C43.4133 163.055 42.3361 162.398 41.1685 162.093C40.0009 161.787 38.8207 161.823 37.6279 162.201C36.4307 162.574 35.2987 163.282 34.2317 164.326C33.1647 165.37 32.4296 166.488 32.0262 167.682C31.6185 168.87 31.5547 170.052 31.8346 171.225C32.1145 172.399 32.748 173.491 33.7349 174.5C34.7219 175.508 35.7991 176.165 36.9667 176.471C38.1343 176.776 39.319 176.74 40.5206 176.363C41.7179 175.981 42.85 175.269 43.917 174.225C44.984 173.181 45.7191 172.067 46.1223 170.882C46.5211 169.694 46.5805 168.512 46.3006 167.338ZM40.6442 165.028C41.3042 165.102 41.9018 165.412 42.437 165.959C42.9853 166.519 43.2913 167.132 43.355 167.798C43.4098 168.464 43.2716 169.139 42.9404 169.823C42.6048 170.502 42.1231 171.149 41.4955 171.763C40.8634 172.382 40.2041 172.851 39.5175 173.172C38.8221 173.493 38.1421 173.618 37.4776 173.549C36.8087 173.475 36.2001 173.158 35.6517 172.598C35.1166 172.051 34.8216 171.444 34.7668 170.778C34.7119 170.113 34.8546 169.438 35.1947 168.754C35.5259 168.07 36.0076 167.419 36.6397 166.8C37.2673 166.186 37.9266 165.721 38.6175 165.405C39.3041 165.084 39.9796 164.958 40.6442 165.028Z" fill="white"/>
<path d="M29.368 159.631L36.3406 154.827L38.2729 157.631L26.3731 165.83L24.5262 163.15L26.5482 161.757L26.4521 161.617C25.5973 161.802 24.7672 161.731 23.9618 161.402C23.1529 161.068 22.4425 160.457 21.8304 159.569C21.2646 158.748 20.9473 157.911 20.8786 157.06C20.8064 156.203 20.9877 155.378 21.4227 154.583C21.8541 153.783 22.5467 153.058 23.5006 152.408L31.0775 147.188L33.0098 149.993L25.8668 154.914C25.0714 155.462 24.5914 156.097 24.4267 156.82C24.2585 157.538 24.4235 158.258 24.9217 158.981C25.2597 159.472 25.6689 159.834 26.1492 160.066C26.6207 160.298 27.1326 160.383 27.6849 160.322C28.2337 160.256 28.7947 160.026 29.368 159.631Z" fill="white"/>
<path d="M14.1543 138.009L11.7168 139.008L12.7978 141.646L9.59414 142.959L10.8856 146.11L14.0892 144.797L14.867 146.695L17.3045 145.696L16.5268 143.799L23.9613 140.752C24.7994 140.415 25.4221 139.95 25.8294 139.356C26.2344 138.756 26.4407 138.085 26.4484 137.343C26.4503 136.604 26.2779 135.844 25.9313 135.064C25.7365 134.622 25.5413 134.261 25.3456 133.982C25.1475 133.697 24.985 133.483 24.858 133.338L22.6119 134.879C22.6708 134.956 22.7493 135.073 22.8473 135.23C22.9429 135.38 23.0311 135.554 23.112 135.752C23.219 136.013 23.2759 136.268 23.2826 136.516C23.2894 136.764 23.2099 137 23.044 137.223C22.87 137.444 22.5712 137.641 22.1475 137.814L15.2353 140.647L14.1543 138.009Z" fill="white"/>
<path fill-rule="evenodd" clip-rule="evenodd" d="M22.3185 125.274C22.6565 126.644 22.648 127.906 22.293 129.059C21.938 130.213 21.2869 131.2 20.3396 132.022C19.3909 132.837 18.1918 133.424 16.7425 133.781C15.2932 134.139 13.9559 134.178 12.7307 133.899C11.504 133.614 10.4652 133.043 9.6145 132.187C8.76378 131.331 8.16942 130.218 7.83143 128.848C7.49345 127.477 7.50196 126.216 7.85697 125.062C8.21198 123.909 8.8669 122.923 9.82174 122.107C10.7751 121.283 11.9764 120.693 13.4257 120.336C14.875 119.978 16.21 119.943 17.4307 120.23C18.6498 120.51 19.6847 121.079 20.5355 121.935C21.3862 122.791 21.9805 123.904 22.3185 125.274ZM19.6651 125.909C19.4818 125.166 19.1246 124.595 18.5934 124.197C18.0561 123.8 17.4103 123.565 16.656 123.492C15.9002 123.414 15.0961 123.48 14.2435 123.69C13.3849 123.902 12.6393 124.218 12.0067 124.639C11.3664 125.056 10.9009 125.565 10.61 126.166C10.319 126.768 10.2652 127.44 10.4485 128.183C10.6363 128.944 10.9995 129.526 11.5383 129.929C12.0756 130.327 12.7251 130.564 13.487 130.641C14.2413 130.713 15.0478 130.643 15.9064 130.431C16.759 130.221 17.5023 129.909 18.1364 129.494C18.769 129.073 19.2308 128.562 19.5217 127.96C19.805 127.354 19.8528 126.67 19.6651 125.909Z" fill="white"/>
<path fill-rule="evenodd" clip-rule="evenodd" d="M104.582 18.5178C105.617 19.1521 106.858 19.4917 108.307 19.5364C109.429 19.5711 110.431 19.4326 111.313 19.121C112.195 18.8031 112.924 18.3424 113.501 17.739C114.085 17.1295 114.49 16.4079 114.717 15.574L111.549 15.1185C111.386 15.5213 111.153 15.8561 110.85 16.1229C110.547 16.3896 110.192 16.5889 109.787 16.7207C109.381 16.8462 108.931 16.9013 108.435 16.886C107.696 16.8632 107.055 16.6865 106.513 16.356C105.971 16.0192 105.556 15.5483 105.267 14.9433C104.988 14.3526 104.856 13.6551 104.871 12.8508L114.932 13.1616L114.965 12.1178C115.004 10.8514 114.862 9.75519 114.539 8.82905C114.216 7.89665 113.757 7.12317 113.161 6.50863C112.571 5.89428 111.883 5.43376 111.095 5.12706C110.314 4.81428 109.479 4.64414 108.589 4.61665C107.209 4.57405 105.999 4.85356 104.958 5.45518C103.916 6.05053 103.093 6.90361 102.488 8.01444C101.889 9.11918 101.566 10.4144 101.521 11.9002C101.474 13.4111 101.715 14.7332 102.245 15.8665C102.775 16.9936 103.554 17.8773 104.582 18.5178ZM104.948 10.5565C104.998 9.99166 105.16 9.47267 105.432 8.99957C105.743 8.46325 106.167 8.0371 106.704 7.7211C107.241 7.39883 107.858 7.24844 108.554 7.26994C109.206 7.29008 109.772 7.45502 110.251 7.76477C110.738 8.07472 111.111 8.49099 111.371 9.01357C111.631 9.52989 111.754 10.1141 111.74 10.7663L104.948 10.5565Z" fill="white"/>
<path fill-rule="evenodd" clip-rule="evenodd" d="M120.065 20.9328C119.166 20.7543 118.389 20.4337 117.733 19.9708C117.084 19.503 116.613 18.9107 116.321 18.1939C116.035 17.4784 115.984 16.6562 116.168 15.7272C116.327 14.9275 116.606 14.2955 117.006 13.8312C117.405 13.367 117.891 13.0287 118.464 12.8164C119.037 12.6041 119.659 12.4815 120.33 12.4487C121.009 12.4109 121.701 12.4236 122.404 12.4866C123.252 12.5655 123.941 12.6224 124.471 12.6574C125.003 12.6863 125.4 12.6501 125.663 12.5489C125.933 12.4428 126.1 12.2297 126.164 11.9098L126.175 11.8545C126.313 11.1593 126.214 10.5801 125.878 10.1168C125.541 9.65347 124.985 9.34482 124.21 9.19083C123.392 9.02828 122.708 9.07774 122.157 9.33922C121.612 9.60192 121.209 9.95977 120.946 10.4128L117.915 9.35019C118.332 8.53781 118.881 7.8987 119.562 7.43287C120.244 6.96088 121.023 6.66159 121.899 6.53501C122.775 6.40227 123.709 6.43428 124.7 6.63105C125.382 6.76672 126.046 6.98174 126.691 7.27613C127.336 7.57052 127.902 7.95788 128.388 8.43821C128.876 8.91239 129.227 9.49684 129.441 10.1916C129.66 10.8875 129.677 11.7061 129.49 12.6473L127.605 22.1335L124.394 21.4955L124.781 19.5485L124.67 19.5265C124.389 19.8799 124.029 20.1921 123.592 20.4633C123.162 20.7296 122.649 20.9123 122.054 21.0114C121.466 21.1057 120.803 21.0795 120.065 20.9328ZM121.42 18.6505C122.09 18.7837 122.698 18.767 123.243 18.6002C123.788 18.4273 124.238 18.1457 124.59 17.7553C124.949 17.3661 125.18 16.9101 125.284 16.3872L125.616 14.7169C125.494 14.7823 125.3 14.8268 125.033 14.8505C124.772 14.8755 124.483 14.8851 124.164 14.8793C123.845 14.8736 123.531 14.8623 123.221 14.8455C122.911 14.8286 122.642 14.8136 122.415 14.8004C121.903 14.769 121.435 14.7912 121.011 14.8667C120.586 14.9423 120.233 15.0959 119.95 15.3275C119.669 15.553 119.486 15.881 119.4 16.3117C119.278 16.9269 119.41 17.4359 119.797 17.8389C120.184 18.2419 120.724 18.5124 121.42 18.6505Z" fill="white"/>
<path d="M135.13 8.94412L129.401 22.2111L132.528 23.5612L136.011 15.4939C136.247 14.9469 136.563 14.5162 136.959 14.2018C137.356 13.8817 137.788 13.6889 138.254 13.6235C138.722 13.5523 139.18 13.6137 139.629 13.8076C140.291 14.0935 140.739 14.5292 140.971 15.1146C141.209 15.7024 141.18 16.339 140.884 17.0242L137.192 25.5752L140.258 26.8992L143.831 18.6246C144.154 17.876 144.627 17.3593 145.249 17.0743C145.879 16.7862 146.571 16.8049 147.325 17.1306C147.959 17.4041 148.411 17.8283 148.682 18.403C148.955 18.9721 148.914 19.6683 148.559 20.4917L144.922 28.9131L148.058 30.267L151.903 21.3618C152.542 19.882 152.642 18.5896 152.204 17.4849C151.765 16.3801 150.936 15.5641 149.715 15.037C148.753 14.6218 147.826 14.4842 146.932 14.6243C146.046 14.761 145.297 15.1346 144.685 15.7448L144.547 15.6851C144.617 14.8272 144.434 14.048 143.999 13.3476C143.572 12.6439 142.909 12.0981 142.011 11.7103C141.124 11.3274 140.268 11.2139 139.442 11.3697C138.619 11.5199 137.905 11.9153 137.3 12.556L137.145 12.4889L138.118 10.2346L135.13 8.94412Z" fill="white"/>
<path fill-rule="evenodd" clip-rule="evenodd" d="M159.441 39.4077C158.324 38.4845 157.552 37.4551 157.123 36.3196C156.704 35.1833 156.63 34.0075 156.902 32.7922C157.179 31.5721 157.798 30.3795 158.762 29.2146C159.709 28.0689 160.758 27.2433 161.908 26.7378C163.067 26.2314 164.241 26.0622 165.428 26.2303C166.62 26.3935 167.748 26.9148 168.811 27.794C169.497 28.3616 170.053 29.0083 170.478 29.7342C170.912 30.4593 171.174 31.2453 171.263 32.0922C171.357 32.9431 171.246 33.8357 170.929 34.7701C170.616 35.6997 170.056 36.6527 169.249 37.6291L168.583 38.434L160.826 32.0197C160.321 32.6459 159.997 33.2779 159.856 33.9155C159.713 34.5706 159.752 35.1972 159.974 35.7954C160.199 36.3888 160.597 36.9213 161.168 37.3929C161.549 37.7087 161.939 37.9413 162.336 38.0907C162.738 38.2353 163.14 38.2952 163.543 38.2703C163.946 38.2455 164.335 38.1239 164.711 37.9057L166.934 40.2075C166.244 40.7273 165.481 41.0491 164.647 41.1728C163.821 41.2956 162.962 41.2122 162.07 40.9225C161.182 40.628 160.306 40.1231 159.441 39.4077ZM167.53 34.5845L162.293 30.2546C162.679 29.8391 163.125 29.5279 163.63 29.321C164.205 29.0883 164.801 29.0117 165.419 29.0912C166.041 29.1659 166.62 29.4251 167.157 29.8687C167.659 30.2844 168.005 30.7617 168.195 31.3006C168.389 31.8435 168.428 32.4011 168.313 32.9733C168.202 33.5407 167.941 34.0778 167.53 34.5845Z" fill="white"/>
<path d="M171.986 50.758L186.285 45.2024L183.917 42.4619L173.617 46.9613L173.519 46.8474L179.469 37.3155L177.094 34.5678L169.526 47.9107L171.986 50.758Z" fill="white"/>
<path fill-rule="evenodd" clip-rule="evenodd" d="M178.608 60.3976C177.853 59.1611 177.458 57.9363 177.422 56.7232C177.395 55.5122 177.709 54.3765 178.362 53.3161C179.02 52.2524 179.995 51.3267 181.285 50.5388C182.553 49.764 183.814 49.3248 185.066 49.2214C186.327 49.12 187.492 49.3421 188.56 49.8877C189.633 50.43 190.53 51.2899 191.249 52.4675C191.713 53.2276 192.028 54.0201 192.194 54.8449C192.368 55.6718 192.36 56.5001 192.168 57.3299C191.98 58.1651 191.584 58.9728 190.98 59.7531C190.382 60.5302 189.542 61.2489 188.461 61.9093L187.57 62.4537L182.323 53.863C181.642 54.2908 181.13 54.7831 180.788 55.3397C180.44 55.9126 180.273 56.5179 180.288 57.1557C180.308 57.7902 180.511 58.4232 180.897 59.0549C181.155 59.4777 181.448 59.8245 181.775 60.0951C182.107 60.3625 182.468 60.5501 182.857 60.6578C183.246 60.7655 183.654 60.7774 184.08 60.6933L185.433 63.5935C184.611 63.8603 183.785 63.9163 182.956 63.7615C182.135 63.6087 181.35 63.2503 180.601 62.686C179.858 62.1186 179.193 61.3557 178.608 60.3976ZM184.285 52.6719L187.827 58.471C188.381 58.1257 188.802 57.7028 189.092 57.2025C189.387 56.6989 189.531 56.1588 189.524 55.5823C189.521 55.0112 189.349 54.4472 189.009 53.8906C188.646 53.2964 188.183 52.8628 187.62 52.5897C187.061 52.3133 186.472 52.1916 185.853 52.2244C185.308 52.2556 184.786 52.4048 184.285 52.6719Z" fill="white"/>
<path d="M196.518 62.2997L183.208 67.9291L184.535 71.0658L192.359 67.7563C192.925 67.5169 193.48 67.4355 194.023 67.5122C194.566 67.5889 195.055 67.8013 195.488 68.1492C195.929 68.5005 196.271 68.9621 196.513 69.534C196.625 69.7997 196.721 70.0826 196.8 70.3828C196.888 70.6863 196.937 70.9143 196.947 71.0667L199.832 69.8462C199.8 69.6896 199.743 69.4991 199.662 69.2747C199.589 69.0536 199.516 68.8564 199.442 68.6831C199.12 67.9206 198.622 67.331 197.948 66.9144C197.283 66.5011 196.515 66.3356 195.644 66.418L195.586 66.2793L197.804 65.3411L196.518 62.2997Z" fill="white"/>
<path d="M186.679 74.7992C186.337 75.2585 186.206 75.7708 186.285 76.336C186.336 76.7025 186.473 77.0254 186.696 77.3047C186.925 77.5892 187.209 77.803 187.545 77.946C187.883 78.0953 188.241 78.1465 188.621 78.0999C189.179 78.0156 189.629 77.7408 189.969 77.2753C190.31 76.816 190.443 76.3131 190.366 75.7664C190.287 75.2011 190.021 74.7443 189.567 74.3961C189.113 74.0478 188.607 73.9158 188.049 74C187.477 74.0736 187.02 74.34 186.679 74.7992Z" fill="white"/>
</svg>
