<svg width="100%" viewBox="0 0 24 24" fill="currentColor" xmlns="http://www.w3.org/2000/svg">
<path opacity="0.4" fill-rule="evenodd" clip-rule="evenodd" d="M7.2308 16.6076C7.31386 16.1615 7.01955 15.7325 6.57343 15.6494V15.6494C6.12732 15.5664 5.69834 15.8607 5.61527 16.3068L4.97344 19.7541C4.88593 20.2241 4.43393 20.5342 3.96389 20.4467L3.76549 20.4098C3.40501 20.3426 3.05838 20.5805 2.99127 20.9409V20.9409C2.92415 21.3014 3.16196 21.648 3.52244 21.7151L7.2369 22.4067C7.59738 22.4738 7.94401 22.236 8.01113 21.8756V21.8756C8.07824 21.5151 7.84043 21.1685 7.47995 21.1013L7.28158 21.0644C6.81155 20.9769 6.50145 20.5249 6.58897 20.0549L7.2308 16.6076Z" fill="currentColor"></path>
<path opacity="0.4" d="M11.1705 11.3282C7.82098 12.688 6.21393 12.4074 3.85196 9.96555L5.75961 3.48407C5.90439 2.99213 6.39783 2.68944 6.90196 2.78331L10.9659 3.53996C11.4732 3.63441 11.8253 4.09936 11.7788 4.61328L11.1705 11.3282Z" fill="currentColor"></path>
<path d="M3.85193 9.96547C7.39476 11.1826 9.62093 9.74897 11.1703 11.328L11.0222 12.9648C10.9977 13.2347 10.9256 13.4981 10.8091 13.7428L10.7598 13.8465C9.99765 15.448 8.25373 16.3367 6.51013 16.012C4.79843 15.6933 3.5032 14.282 3.33221 12.5493L3.31629 12.388C3.28688 12.0899 3.31523 11.789 3.3998 11.5016L3.85193 9.96547Z" fill="currentColor"></path>
<path opacity="0.4" fill-rule="evenodd" clip-rule="evenodd" d="M18.6199 15.6768C18.5304 15.232 18.0973 14.9438 17.6524 15.0333V15.0333C17.2075 15.1228 16.9194 15.5559 17.0089 16.0008L17.7001 19.4385C17.7944 19.9072 17.4908 20.3636 17.0221 20.4579L16.8242 20.4977C16.4647 20.5699 16.2319 20.92 16.3042 21.2794V21.2794C16.3765 21.6389 16.7265 21.8717 17.086 21.7994L20.7901 21.0546C21.1496 20.9823 21.3824 20.6323 21.3101 20.2728V20.2728C21.2378 19.9133 20.8878 19.6805 20.5284 19.7528L20.3305 19.7926C19.8618 19.8868 19.4054 19.5833 19.3112 19.1145L18.6199 15.6768Z" fill="currentColor"></path>
<path opacity="0.4" d="M20.3041 9.30825C17.9672 11.8296 16.3885 12.1948 13.0059 10.7758L12.3565 4.05071C12.3072 3.54029 12.652 3.0753 13.1547 2.9742L17.2073 2.15928C17.7132 2.05755 18.2135 2.35747 18.3621 2.85162L20.3041 9.30825Z" fill="currentColor"></path>
<path d="M13.0061 10.7757C15.9902 10.7279 17.341 8.63288 20.3042 9.30821L20.7777 10.8819C20.8557 11.1415 20.8871 11.4127 20.8704 11.6832L20.8634 11.7979C20.7541 13.5681 19.4679 15.0435 17.7291 15.3931C16.0222 15.7363 14.2938 14.9105 13.4884 13.3668L13.4134 13.2231C13.2749 12.9576 13.1889 12.6678 13.1601 12.3696L13.0061 10.7757Z" fill="currentColor"></path>
</svg>