<svg width="100%" style="" viewBox="0 0 17 16" fill="none" xmlns="http://www.w3.org/2000/svg">
<path d="M4.85666 3.70581V11.7278C5.8771 12.598 6.79092 13.6423 7.53721 14.8448C7.73688 10.9863 6.29253 7.32814 4.85666 3.70581Z" fill="#EA6C00"></path>
<path d="M8.46626 6.34816V3.70581H4.85666C4.85666 10.0506 7.32398 14.5283 8.17689 15.9998V8.48418C7.01938 8.13609 7.26306 6.34816 8.46626 6.34816Z" fill="#FDAD00"></path>
<path d="M7.56523 14.9122C6.72756 13.5831 5.96868 12.8027 4.85686 11.7268C5.92299 12.5021 6.9469 13.802 7.56523 14.9122Z" fill="#EA5300"></path>
<path d="M4.85671 3.70581C4.84148 11.0791 8.17694 15.9998 8.17694 15.9998C8.17694 15.9998 4.85671 10.2088 4.85671 3.70581Z" fill="#FDD231"></path>
<path d="M12.0878 3.70581V11.7278C11.0521 12.598 10.1383 13.6423 9.39201 14.8448C9.64011 9.29284 10.681 7.31077 12.0878 3.70581Z" fill="#FDAD00"></path>
<path d="M8.46371 6.34816V3.70581H12.0886C12.0886 10.0506 9.61774 14.5284 8.76484 15.9998L8.76832 8.48418C9.9106 8.13609 9.68215 6.34816 8.46371 6.34816Z" fill="#FDD231"></path>
<path d="M9.36549 14.9122C10.2032 13.5831 10.9908 12.7869 12.0874 11.7268C11.0213 12.5021 9.99318 13.7509 9.36549 14.9122Z" fill="#EA6C00"></path>
<path d="M12.0757 3.70581C12.0909 11.0791 8.76482 15.9998 8.76482 15.9998C8.76482 15.9998 12.0757 10.2088 12.0757 3.70581Z" fill="#FDF395"></path>
<path d="M4.44109 0.66626L4.85231 3.70416C7.18256 3.70416 8.29438 3.70416 12.102 3.70416L12.5589 0.66626H4.44109Z" fill="black"></path>
</svg>