<svg width="24" height="24" viewBox="0 0 24 24" fill="none" xmlns="http://www.w3.org/2000/svg">
<path fill-rule="evenodd" clip-rule="evenodd" d="M11.9999 21.6C14.546 21.6 16.9878 20.5886 18.7881 18.7882C20.5885 16.9879 21.5999 14.5461 21.5999 12C21.5999 9.45392 20.5885 7.01213 18.7881 5.21178C16.9878 3.41143 14.546 2.4 11.9999 2.4C9.45382 2.4 7.01203 3.41143 5.21168 5.21178C3.41133 7.01213 2.3999 9.45392 2.3999 12C2.3999 14.5461 3.41133 16.9879 5.21168 18.7882C7.01203 20.5886 9.45382 21.6 11.9999 21.6V21.6ZM16.4483 10.4484C16.6669 10.2221 16.7878 9.91896 16.7851 9.60432C16.7824 9.28968 16.6562 8.98871 16.4337 8.76622C16.2112 8.54373 15.9102 8.41753 15.5956 8.41479C15.2809 8.41206 14.9778 8.53301 14.7515 8.7516L10.7999 12.7032L9.2483 11.1516C9.02198 10.933 8.71886 10.8121 8.40422 10.8148C8.08958 10.8175 7.78861 10.9437 7.56612 11.1662C7.34363 11.3887 7.21743 11.6897 7.21469 12.0043C7.21196 12.319 7.33291 12.6221 7.5515 12.8484L9.9515 15.2484C10.1765 15.4734 10.4817 15.5997 10.7999 15.5997C11.1181 15.5997 11.4233 15.4734 11.6483 15.2484L16.4483 10.4484V10.4484Z" fill="black"/>
</svg>
