<svg xmlns="http://www.w3.org/2000/svg" viewBox="0 0 934 906" width="934" height="906" preserveAspectRatio="xMidYMid meet" style="width: 100%; height: 100%; transform: translate3d(0px, 0px, 0px);"><defs><clipPath id="__lottie_element_45"><rect width="934" height="906" x="0" y="0"></rect></clipPath><filter id="__lottie_element_50" filterUnits="objectBoundingBox" x="0%" y="0%" width="100%" height="100%"><feComponentTransfer in="SourceGraphic"><feFuncA type="table" tableValues="1.0 0.0"></feFuncA></feComponentTransfer></filter><mask id="__lottie_element_49" mask-type="alpha"><g filter="url(#__lottie_element_50)"><rect width="934" height="906" x="0" y="0" fill="#ffffff" opacity="0"></rect><g transform="matrix(0.9079743027687073,-0.41902580857276917,0.41902580857276917,0.9079743027687073,196.91616821289062,646.6858520507812)" opacity="1" style="display: block;"><path fill="rgb(255,0,0)" fill-opacity="1" d=" M26.624000549316406,-100.25399780273438 C62.323001861572266,-92.9489974975586 85.2509994506836,-71.05400085449219 96.85299682617188,-37.125999450683594 M101.85199737548828,-35 C101.85199737548828,-35 -9.779999732971191,9.333000183105469 -9.779999732971191,9.333000183105469 C-9.779999732971191,9.333000183105469 25.886999130249023,-102.33300018310547 25.886999130249023,-102.33300018310547 C25.886999130249023,-102.33300018310547 343.7879943847656,-431.0820007324219 343.7879943847656,-431.0820007324219 C353.6400146484375,-440.135986328125 366.78399658203125,-445.66400146484375 381.2200012207031,-445.66400146484375 C411.781005859375,-445.66400146484375 436.5570068359375,-420.8890075683594 436.5570068359375,-390.3280029296875 C436.5570068359375,-376.2099914550781 431.2699890136719,-363.3269958496094 422.5679931640625,-353.5509948730469 C422.5679931640625,-353.5509948730469 101.85199737548828,-35 101.85199737548828,-35"></path><g opacity="1" transform="matrix(1,0,0,1,0,0)"><path stroke-linecap="round" stroke-linejoin="round" fill-opacity="0" stroke="rgb(0,0,0)" stroke-opacity="1" stroke-width="50" d=" M26.624000549316406,-100.25399780273438 C62.323001861572266,-92.9489974975586 85.2509994506836,-71.05400085449219 96.85299682617188,-37.125999450683594"></path></g><g opacity="1" transform="matrix(1,0,0,1,0,0)"><path stroke-linecap="round" stroke-linejoin="round" fill-opacity="0" stroke="rgb(0,0,0)" stroke-opacity="1" stroke-width="50" d=" M101.85199737548828,-35 C101.85199737548828,-35 -9.779999732971191,9.333000183105469 -9.779999732971191,9.333000183105469 C-9.779999732971191,9.333000183105469 25.886999130249023,-102.33300018310547 25.886999130249023,-102.33300018310547 C25.886999130249023,-102.33300018310547 343.7879943847656,-431.0820007324219 343.7879943847656,-431.0820007324219 C353.6400146484375,-440.135986328125 366.78399658203125,-445.66400146484375 381.2200012207031,-445.66400146484375 C411.781005859375,-445.66400146484375 436.5570068359375,-420.8890075683594 436.5570068359375,-390.3280029296875 C436.5570068359375,-376.2099914550781 431.2699890136719,-363.3269958496094 422.5679931640625,-353.5509948730469 C422.5679931640625,-353.5509948730469 101.85199737548828,-35 101.85199737548828,-35"></path></g></g></g></mask></defs><g clip-path="url(#__lottie_element_45)"><g mask="url(#__lottie_element_49)" style="display: block;"><g transform="matrix(0.9965564608573914,-0.08291708678007126,0.08291708678007126,0.9965564608573914,448.2764892578125,479.1060791015625)" opacity="1"><g opacity="1" transform="matrix(1,0,0,1,0,0)"><path stroke-linecap="round" stroke-linejoin="round" fill-opacity="0" stroke="rgb(0,0,0)" stroke-opacity="1" stroke-width="50" d=" M242.52000427246094,-309.3479919433594 C292.927001953125,-280.4389953613281 327.0740051269531,-226.05599975585938 327.0740051269531,-164.0850067138672 C327.0740051269531,-164.0850067138672 327.0740051269531,202.69200134277344 327.0740051269531,202.69200134277344 C327.0740051269531,294.71099853515625 251.78500366210938,370 159.76600646972656,370 C159.76600646972656,370 159.76600646972656,370 159.76600646972656,370 C159.76600646972656,370 -231.17300415039062,370 -231.17300415039062,370 C-323.1919860839844,370 -398.4809875488281,294.71099853515625 -398.4809875488281,202.69200134277344 C-398.4809875488281,202.69200134277344 -398.4809875488281,-164.0850067138672 -398.4809875488281,-164.0850067138672 C-398.4809875488281,-256.10400390625 -323.1919860839844,-331.39300537109375 -231.17300415039062,-331.39300537109375 C-231.17300415039062,-331.39300537109375 159.76600646972656,-331.39300537109375 159.76600646972656,-331.39300537109375 C189.81399536132812,-331.39300537109375 218.07899475097656,-323.364990234375 242.52000427246094,-309.3479919433594"></path></g></g></g><g transform="matrix(0.9079743027687073,-0.41902580857276917,0.41902580857276917,0.9079743027687073,196.91616821289062,646.6858520507812)" opacity="1" style="display: block;"><g opacity="1" transform="matrix(1,0,0,1,0,0)"><path stroke-linecap="round" stroke-linejoin="round" fill-opacity="0" stroke="rgb(0,0,0)" stroke-opacity="1" stroke-width="50" d=" M26.624000549316406,-100.25399780273438 C62.323001861572266,-92.9489974975586 85.2509994506836,-71.05400085449219 96.85299682617188,-37.125999450683594"></path></g><g opacity="1" transform="matrix(1,0,0,1,0,0)"><path stroke-linecap="round" stroke-linejoin="round" fill-opacity="0" stroke="rgb(0,0,0)" stroke-opacity="1" stroke-width="50" d=" M101.85199737548828,-35 C101.85199737548828,-35 -9.779999732971191,9.333000183105469 -9.779999732971191,9.333000183105469 C-9.779999732971191,9.333000183105469 25.886999130249023,-102.33300018310547 25.886999130249023,-102.33300018310547 C25.886999130249023,-102.33300018310547 343.7879943847656,-431.0820007324219 343.7879943847656,-431.0820007324219 C353.6400146484375,-440.135986328125 366.78399658203125,-445.66400146484375 381.2200012207031,-445.66400146484375 C411.781005859375,-445.66400146484375 436.5570068359375,-420.8890075683594 436.5570068359375,-390.3280029296875 C436.5570068359375,-376.2099914550781 431.2699890136719,-363.3269958496094 422.5679931640625,-353.5509948730469 C422.5679931640625,-353.5509948730469 101.85199737548828,-35 101.85199737548828,-35"></path></g></g></g></svg>