<svg width="120" height="72" viewBox="0 0 120 72" fill="none" xmlns="http://www.w3.org/2000/svg">
<path fill-rule="evenodd" clip-rule="evenodd" d="M51.702 56.7169C51.2165 56.3187 50.9776 55.7833 50.9776 55.1097C50.9776 54.4284 51.2165 53.8925 51.702 53.4943C52.1877 53.0964 52.8426 52.8976 53.6673 52.8976C54.4919 52.8976 55.1394 53.0964 55.6252 53.4943C56.1104 53.8925 56.3572 54.4284 56.3572 55.1097C56.3572 55.7833 56.1104 56.3187 55.6252 56.7169C55.1394 57.1151 54.4919 57.3142 53.6673 57.3142C52.8426 57.3142 52.1877 57.1151 51.702 56.7169ZM55.093 55.1097C55.093 54.3673 54.538 53.8925 53.6673 53.8925C52.7965 53.8925 52.2415 54.3673 52.2415 55.1097C52.2415 55.8518 52.7965 56.3187 53.6673 56.3187C54.538 56.3187 55.093 55.8518 55.093 55.1097Z" fill="#424143"/>
<path fill-rule="evenodd" clip-rule="evenodd" d="M61.0141 53.0044H62.247V57.2066H61.0451V56.5562C60.7598 57.0231 60.1894 57.3144 59.4494 57.3144C58.8099 57.3144 58.34 57.1534 57.9776 56.8084C57.6 56.4419 57.4456 55.9518 57.4456 55.0556V53.0044H58.6866V55.087C58.6866 55.6071 58.8022 55.9136 59.0564 56.0898C59.272 56.2199 59.4574 56.2731 59.7578 56.2731C60.3127 56.2731 60.7444 55.99 60.9292 55.5231C60.9833 55.3933 61.0141 55.2092 61.0141 54.9874V53.0044Z" fill="#424143"/>
<path fill-rule="evenodd" clip-rule="evenodd" d="M66.8248 56.2119V57.2068H65.276C64.4204 57.2068 64.0659 56.87 64.0659 56.0737V53.9843H63.2797V53.0044H64.0659V51.8797H65.3068V53.0044H66.8248V53.9843H65.3068V55.7985C65.3068 56.1121 65.4147 56.2119 65.792 56.2119H66.8248Z" fill="#424143"/>
<path fill-rule="evenodd" clip-rule="evenodd" d="M70.8495 56.7169C70.3643 56.3187 70.1251 55.7833 70.1251 55.1097C70.1251 54.4284 70.3643 53.8925 70.8495 53.4943C71.3353 53.0964 71.9902 52.8976 72.8148 52.8976C73.6394 52.8976 74.2869 53.0964 74.7724 53.4943C75.2582 53.8925 75.5048 54.4284 75.5048 55.1097C75.5048 55.7833 75.2582 56.3187 74.7724 56.7169C74.2869 57.1151 73.6394 57.3142 72.8148 57.3142C71.9902 57.3142 71.3353 57.1151 70.8495 56.7169ZM74.2408 55.1097C74.2408 54.3673 73.6856 53.8925 72.8148 53.8925C71.9441 53.8925 71.3894 54.3673 71.3894 55.1097C71.3894 55.8518 71.9441 56.3187 72.8148 56.3187C73.6856 56.3187 74.2408 55.8518 74.2408 55.1097Z" fill="#424143"/>
<path fill-rule="evenodd" clip-rule="evenodd" d="M79.4108 52.431H78.6328C78.3165 52.431 78.1932 52.5147 78.1932 52.7365V53.0046H79.4108V53.9842H78.1932V57.207H76.9528V53.9842H76.2589V53.0046H76.9528V52.6833C76.9528 51.8643 77.4845 51.4817 78.5711 51.4817H79.4108V52.431Z" fill="#424143"/>
<path fill-rule="evenodd" clip-rule="evenodd" d="M86.1103 56.2119V57.2068H84.5616C83.7059 57.2068 83.3514 56.87 83.3514 56.0737V53.9843H82.5652V53.0044H83.3514V51.8797H84.592V53.0044H86.1103V53.9843H84.592V55.7985C84.592 56.1121 84.7 56.2119 85.0775 56.2119H86.1103Z" fill="#424143"/>
<path fill-rule="evenodd" clip-rule="evenodd" d="M87.3346 57.2067V51.4813H88.5755V53.602C88.891 53.1659 89.4767 52.8976 90.1937 52.8976C90.8102 52.8976 91.2957 53.0658 91.6656 53.4027C92.0432 53.7624 92.2049 54.2675 92.2049 55.1555V57.2067H90.9645V55.1252C90.9645 54.6428 90.8563 54.3518 90.6174 54.1685C90.4247 54.0155 90.1624 53.9389 89.8774 53.9389C89.2919 53.9389 88.8295 54.2293 88.6524 54.6959C88.5983 54.8421 88.5755 55.0175 88.5755 55.2321V57.2067H87.3346Z" fill="#424143"/>
<path fill-rule="evenodd" clip-rule="evenodd" d="M94.0219 56.7321C93.5444 56.3418 93.3055 55.8064 93.3055 55.1172C93.3055 54.4668 93.5518 53.9309 94.0527 53.5174C94.5538 53.1042 95.1936 52.8975 95.987 52.8975C96.7657 52.8975 97.3899 53.0811 97.8677 53.449C98.3532 53.8161 98.5921 54.2909 98.5921 54.865C98.5921 54.9184 98.5921 54.964 98.5841 55.0177C98.5841 55.0717 98.5767 55.1857 98.569 55.3772H94.5769C94.6617 55.9668 95.2398 56.3115 96.1416 56.3115C96.7891 56.3115 97.4281 56.1048 97.8216 55.7682L98.4842 56.5103C98.0294 57.0081 97.0969 57.3143 96.0257 57.3143C95.1703 57.3143 94.5077 57.1232 94.0219 56.7321ZM94.6156 54.6042H97.2822C97.1974 54.1223 96.7196 53.824 96.0023 53.824C95.2705 53.824 94.7466 54.1142 94.6156 54.6042Z" fill="#424143"/>
<path fill-rule="evenodd" clip-rule="evenodd" d="M102.156 57.2067V51.4813H103.396V53.5025C103.805 53.1043 104.391 52.8976 105.069 52.8976C105.785 52.8976 106.363 53.1043 106.818 53.5096C107.272 53.9159 107.496 54.451 107.496 55.1102C107.496 55.7601 107.272 56.2966 106.818 56.7016C106.363 57.1079 105.785 57.3147 105.069 57.3147C104.367 57.3147 103.767 57.0919 103.365 56.6937V57.2067H102.156ZM106.232 55.1102C106.232 54.3826 105.67 53.9007 104.838 53.9007C103.975 53.9007 103.396 54.3826 103.396 55.1102C103.396 55.837 103.975 56.3116 104.838 56.3116C105.678 56.3116 106.232 55.837 106.232 55.1102Z" fill="#424143"/>
<path fill-rule="evenodd" clip-rule="evenodd" d="M109.154 56.7169C108.668 56.3187 108.429 55.7833 108.429 55.1097C108.429 54.4284 108.668 53.8925 109.154 53.4943C109.64 53.0964 110.295 52.8976 111.119 52.8976C111.944 52.8976 112.591 53.0964 113.077 53.4943C113.562 53.8925 113.809 54.4284 113.809 55.1097C113.809 55.7833 113.562 56.3187 113.077 56.7169C112.591 57.1151 111.944 57.3142 111.119 57.3142C110.295 57.3142 109.64 57.1151 109.154 56.7169ZM112.545 55.1097C112.545 54.3673 111.99 53.8925 111.119 53.8925C110.248 53.8925 109.694 54.3673 109.694 55.1097C109.694 55.8518 110.248 56.3187 111.119 56.3187C111.99 56.3187 112.545 55.8518 112.545 55.1097Z" fill="#424143"/>
<path fill-rule="evenodd" clip-rule="evenodd" d="M119.791 57.2067H118.141L116.947 55.8449L115.744 57.2067H114.203L116.192 55.087L114.242 53.0048H115.868L117.016 54.2825L118.157 53.0048H119.698L117.772 55.0407L119.791 57.2067Z" fill="#424143"/>
<path fill-rule="evenodd" clip-rule="evenodd" d="M63.8317 46.0414H60.5186V36.5854C60.5186 34.5942 59.6347 33.5224 58.0294 33.3988C57.0288 33.3214 55.4429 33.5559 54.2921 33.8123V46.0414H50.9777V31.4704C50.9777 31.4704 55.0077 30.5783 58.6475 30.581C60.2218 30.5827 61.48 31.1385 62.4197 32.0747C63.3605 33.0107 63.8317 34.3149 63.8317 35.987V46.0414Z" fill="#424143"/>
<path fill-rule="evenodd" clip-rule="evenodd" d="M119.719 46.1418C119.175 46.2795 118.609 46.3482 118.024 46.3482C116.156 46.3482 114.923 45.9356 114.322 45.1106C113.842 44.462 113.603 43.2329 113.603 41.4236V26.2591H116.874V30.5472H119.777V33.2006H116.874V41.2171C116.874 42.0828 116.984 42.6536 117.207 42.929C117.468 43.282 118.024 43.4587 118.873 43.4587C119.115 43.4587 119.397 43.4396 119.719 43.4V46.1418Z" fill="#424143"/>
<path fill-rule="evenodd" clip-rule="evenodd" d="M17.3328 36.1712C17.3328 36.1712 13.4532 37.6609 8.66642 37.6609C3.88015 37.6609 5.53131e-05 36.1712 5.53131e-05 36.1712C5.53131e-05 36.1712 3.88015 34.6819 8.66642 34.6819C13.4532 34.6819 17.3328 36.1712 17.3328 36.1712Z" fill="#FFCB04"/>
<mask id="mask0" mask-type="alpha" maskUnits="userSpaceOnUse" x="19" y="0" width="11" height="15">
<path d="M19.6239 0.272728H29.3162V14.2637H19.6239V0.272728Z" fill="white"/>
</mask>
<g mask="url(#mask0)">
<path fill-rule="evenodd" clip-rule="evenodd" d="M29.3162 14.2637C29.3162 14.2637 25.8785 11.9644 23.2017 8.1009C20.5257 4.23745 19.6239 0.272537 19.6239 0.272537C19.6239 0.272537 23.0614 2.5719 25.7384 6.43508C28.4147 10.2991 29.3162 14.2637 29.3162 14.2637Z" fill="#FFCB04"/>
</g>
<path fill-rule="evenodd" clip-rule="evenodd" d="M20.5392 23.7169C20.5392 23.7169 16.3955 23.2584 12.1694 21.0701C7.94331 18.8825 5.23576 15.7939 5.23576 15.7939C5.23576 15.7939 9.37947 16.2523 13.6056 18.4404C17.8316 20.6282 20.5392 23.7169 20.5392 23.7169Z" fill="#FFCB04"/>
<path fill-rule="evenodd" clip-rule="evenodd" d="M28.9014 43.3437C31.3612 43.3205 34.328 41.3967 34.328 41.3967C34.328 41.3967 27.4487 39.3289 27.8818 33.2007C29.2383 23.1433 37.437 15.2473 47.7007 13.9767C46.6122 13.8275 45.5006 13.7495 44.3687 13.7542C31.674 13.81 21.4287 23.8769 21.4856 36.2383C21.5426 48.5991 31.8808 58.5747 44.5758 58.5193C45.6346 58.5147 46.6745 58.4342 47.6947 58.2946C38.6867 57.1767 31.3549 50.9923 28.7248 42.8192" fill="#FFCB04"/>
<mask id="mask1" mask-type="alpha" maskUnits="userSpaceOnUse" x="19" y="57" width="11" height="15">
<path d="M19.6239 57.9934H29.3162V71.9853H19.6239V57.9934Z" fill="white"/>
</mask>
<g mask="url(#mask1)">
<path fill-rule="evenodd" clip-rule="evenodd" d="M29.3162 57.9934C29.3162 57.9934 25.8785 60.2931 23.2017 64.1571C20.5257 68.02 19.6239 71.9854 19.6239 71.9854C19.6239 71.9854 23.0614 69.6858 25.7384 65.8223C28.4147 61.9589 29.3162 57.9934 29.3162 57.9934Z" fill="#FFCB04"/>
</g>
<path fill-rule="evenodd" clip-rule="evenodd" d="M20.5392 48.5409C20.5392 48.5409 16.3955 48.9994 12.1694 51.1877C7.94331 53.375 5.23576 56.4637 5.23576 56.4637C5.23576 56.4637 9.37947 56.0052 13.6056 53.8174C17.8316 51.6293 20.5392 48.5409 20.5392 48.5409Z" fill="#FFCB04"/>
<mask id="mask2" mask-type="alpha" maskUnits="userSpaceOnUse" x="0" y="0" width="120" height="72">
<path d="M0 71.9853H119.791V0.272728H0V71.9853Z" fill="white"/>
</mask>
<g mask="url(#mask2)">
<path fill-rule="evenodd" clip-rule="evenodd" d="M44.322 46.0252H47.7007V26.2429H44.322V46.0252Z" fill="#424143"/>
<path fill-rule="evenodd" clip-rule="evenodd" d="M78.1958 33.0033C78.1958 30.605 77.0142 29.4063 74.6535 29.4063H70.4873V36.5422H74.5915C75.7225 36.5422 76.6062 36.233 77.2419 35.6133C77.8773 34.9942 78.1958 34.1242 78.1958 33.0033ZM81.6099 33.0033C81.6099 35.0281 80.9778 36.6551 79.7185 37.8841C78.4556 39.1124 76.744 39.7263 74.5838 39.7263H70.4873V45.9775H67.1086V26.1917H74.3416C76.6831 26.1917 78.4806 26.7971 79.7325 28.0061C80.9836 29.2149 81.6099 30.8807 81.6099 33.0033Z" fill="#424143"/>
<path fill-rule="evenodd" clip-rule="evenodd" d="M93.8286 38.201C93.8286 36.7111 93.4796 35.5307 92.7848 34.6585C92.0865 33.7869 91.1636 33.35 90.0119 33.35C88.8624 33.35 87.9379 33.7918 87.2409 34.673C86.5462 35.5555 86.198 36.7304 86.198 38.201C86.198 39.6898 86.5462 40.8704 87.2409 41.7426C87.9379 42.6154 88.8624 43.0512 90.0119 43.0512C91.1636 43.0512 92.0865 42.6154 92.7848 41.7426C93.4796 40.8704 93.8286 39.6898 93.8286 38.201ZM97.2498 38.1857C97.2498 40.5644 96.579 42.4814 95.2359 43.9359C93.892 45.3909 92.153 46.1174 90.0119 46.1174C87.8739 46.1174 86.131 45.3909 84.7893 43.9359C83.4457 42.4814 82.7754 40.5644 82.7754 38.1857C82.7754 35.8084 83.4457 33.8957 84.7893 32.4505C86.131 31.0064 87.8739 30.2837 90.0119 30.2837C92.1725 30.2837 93.9189 31.0064 95.2515 32.4505C96.5834 33.8957 97.2498 35.8084 97.2498 38.1857Z" fill="#424143"/>
<path fill-rule="evenodd" clip-rule="evenodd" d="M111.642 40.9277C111.642 42.4223 111.057 43.6504 109.885 44.6142C108.715 45.578 107.169 46.0577 105.253 46.0577C102.264 46.0577 99.9531 45.1736 98.3173 43.4041L100.83 41.3112C102.083 42.5314 103.547 43.1396 105.222 43.1396C106.152 43.1396 106.888 42.9576 107.434 42.5941C107.978 42.2303 108.251 41.7743 108.251 41.2231C108.251 40.5945 107.937 40.1614 107.312 39.9257C106.949 39.7883 105.98 39.6017 104.405 39.365C102.507 39.0906 101.155 38.6775 100.346 38.1268C99.3971 37.4592 98.9242 36.4561 98.9242 35.1203C98.9242 33.7632 99.4987 32.6284 100.649 31.7131C101.8 30.7997 103.334 30.3421 105.253 30.3421C107.573 30.3421 109.552 31.0997 111.188 32.6131L109.219 34.6771C108.028 33.6364 106.675 33.1141 105.161 33.1141C103.223 33.1141 102.255 33.6557 102.255 34.7366C102.255 35.3649 102.698 35.798 103.587 36.0342C104.838 36.2295 106.08 36.4365 107.312 36.6522C110.198 37.1835 111.642 38.6085 111.642 40.9277Z" fill="#424143"/>
</g>
</svg>
