<svg width="236" height="234" viewBox="0 0 236 234" fill="none" xmlns="http://www.w3.org/2000/svg">
<rect width="234.942" height="233.215" transform="translate(0.500977 0.611572)" fill="white"/>
<path d="M128.254 64.5315V88.1961H100.645V139.469H76.9805V72.4197C76.9866 70.3295 77.8197 68.3267 79.2977 66.8487C80.7756 65.3707 82.7785 64.5376 84.8687 64.5315H128.254Z" fill="#FFBA00"/>
<path d="M128.25 64.53V88.1946H151.915L128.25 64.53Z" fill="#EA4335"/>
<path d="M151.915 88.1946H128.25V143.412H151.915V88.1946Z" fill="#4285F4"/>
<path d="M128.25 163.133V139.468H100.642V163.133H128.25Z" fill="#00AC47"/>
<path d="M144.028 163.132H128.251V139.468H151.916V155.244C151.916 157.336 151.085 159.343 149.606 160.822C148.126 162.301 146.12 163.132 144.028 163.132V163.132Z" fill="#0066DA"/>
<path d="M76.9785 139.468H100.643V163.133H84.8667C82.7746 163.133 80.7682 162.302 79.2889 160.822C77.8096 159.343 76.9785 157.337 76.9785 155.245V139.468Z" fill="#188038"/>
</svg>
