<svg width="234" height="234" viewBox="0 0 234 234" fill="none" xmlns="http://www.w3.org/2000/svg">
<rect width="233.215" height="233.215" transform="translate(0.583008)" fill="white"/>
<path d="M154.35 94.0089C157.886 100.461 159.898 107.865 159.898 115.741C159.898 132.454 150.841 147.045 137.373 154.897L151.209 114.893C153.794 108.43 154.654 103.262 154.654 98.6673C154.654 96.9995 154.544 95.4516 154.35 94.0089ZM120.842 94.502C123.569 94.3586 126.026 94.0718 126.026 94.0718C128.467 93.7828 128.179 90.1955 125.737 90.3384C125.737 90.3384 118.4 90.9143 113.663 90.9143C109.212 90.9143 101.732 90.3384 101.732 90.3384C99.2893 90.1955 99.003 93.9273 101.445 94.0718C101.445 94.0718 103.756 94.3586 106.197 94.502L113.254 113.84L103.339 143.572L86.8432 94.502C89.5726 94.3586 92.0273 94.0718 92.0273 94.0718C94.4666 93.7828 94.1787 90.1955 91.7378 90.3384C91.7378 90.3384 84.4018 90.9143 79.6645 90.9143C78.8146 90.9143 77.8127 90.8935 76.749 90.8594C84.8491 78.562 98.7715 70.4412 114.599 70.4412C126.391 70.4412 137.13 74.9503 145.189 82.3348C144.994 82.3231 144.803 82.2986 144.602 82.2986C140.152 82.2986 136.995 86.1748 136.995 90.3384C136.995 94.0718 139.149 97.2303 141.445 100.963C143.167 103.98 145.18 107.856 145.18 113.457C145.18 117.333 143.688 121.833 141.733 128.101L137.213 143.198L120.842 94.502ZM114.599 161.045C110.152 161.045 105.86 160.393 101.801 159.199L115.394 119.704L129.318 157.853C129.409 158.077 129.522 158.283 129.642 158.477C124.933 160.135 119.874 161.045 114.599 161.045V161.045ZM69.2983 115.741C69.2983 109.174 70.707 102.939 73.2209 97.3055L94.8303 156.511C79.7172 149.169 69.2983 133.672 69.2983 115.741ZM114.599 65.3573C86.816 65.3573 64.2134 87.9594 64.2134 115.741C64.2134 143.524 86.816 166.129 114.599 166.129C142.38 166.129 164.984 143.524 164.984 115.741C164.984 87.9594 142.38 65.3573 114.599 65.3573" fill="black"/>
</svg>
