<svg width="234" height="235" viewBox="0 0 234 235" fill="none" xmlns="http://www.w3.org/2000/svg">
<rect width="233.215" height="233.215" transform="translate(0.473145 0.793945)" fill="white"/>
<g clip-path="url(#clip0_2362_35129)">
<path d="M170.213 86.1803C164.83 76.8581 157.089 69.1171 147.766 63.735C138.444 58.3529 127.869 55.5195 117.104 55.5195C106.34 55.5195 95.7646 58.3529 86.4421 63.735C77.1196 69.1171 69.3779 76.8581 63.9951 86.1803L67.6747 152.413L170.213 86.1803Z" fill="url(#paint0_linear_2362_35129)"/>
<path d="M90.5618 132.176L64.0073 86.1809C58.6248 95.5037 55.7911 106.079 55.791 116.844C55.7909 127.609 58.6245 138.184 64.0069 147.507C69.3892 156.83 77.1308 164.572 86.4534 169.954C95.7761 175.337 106.351 178.171 117.116 178.171L177.217 116.844L90.5618 132.176Z" fill="url(#paint1_linear_2362_35129)"/>
<path d="M143.671 132.176L117.116 178.171C127.88 178.169 138.454 175.333 147.775 169.95C157.096 164.566 164.836 156.824 170.216 147.502C175.597 138.179 178.43 127.605 178.429 116.841C178.429 106.077 175.595 95.5028 170.213 86.1809H117.116L143.671 132.176Z" fill="url(#paint2_linear_2362_35129)"/>
<path d="M117.117 147.508C121.143 147.508 125.131 146.715 128.851 145.174C132.571 143.633 135.952 141.374 138.799 138.527C141.646 135.679 143.905 132.299 145.446 128.579C146.987 124.858 147.78 120.871 147.78 116.844C147.78 112.818 146.987 108.83 145.446 105.11C143.905 101.39 141.646 98.0094 138.799 95.162C135.952 92.3147 132.571 90.056 128.851 88.515C125.131 86.974 121.143 86.1809 117.117 86.1809C108.984 86.1809 101.185 89.4115 95.4342 95.162C89.6837 100.913 86.4531 108.712 86.4531 116.844C86.4531 124.977 89.6837 132.776 95.4342 138.527C101.185 144.277 108.984 147.508 117.117 147.508Z" fill="white"/>
<path d="M117.116 141.129C120.306 141.129 123.464 140.5 126.41 139.28C129.357 138.059 132.034 136.271 134.289 134.015C136.544 131.76 138.333 129.083 139.553 126.137C140.774 123.19 141.402 120.032 141.402 116.843C141.402 113.654 140.774 110.496 139.553 107.549C138.333 104.603 136.544 101.926 134.289 99.6707C132.034 97.4155 129.357 95.6267 126.41 94.4062C123.464 93.1858 120.306 92.5576 117.116 92.5576C110.676 92.5576 104.498 95.1163 99.9441 99.6707C95.3897 104.225 92.8311 110.402 92.8311 116.843C92.8311 123.284 95.3897 129.461 99.9441 134.015C104.498 138.57 110.676 141.129 117.116 141.129V141.129Z" fill="#1A73E8"/>
</g>
<defs>
<linearGradient id="paint0_linear_2362_35129" x1="64.0074" y1="93.8461" x2="170.213" y2="93.8461" gradientUnits="userSpaceOnUse">
<stop stop-color="#D93025"/>
<stop offset="1" stop-color="#EA4335"/>
</linearGradient>
<linearGradient id="paint1_linear_2362_35129" x1="123.752" y1="174.332" x2="70.6428" y2="82.3418" gradientUnits="userSpaceOnUse">
<stop stop-color="#1E8E3E"/>
<stop offset="1" stop-color="#34A853"/>
</linearGradient>
<linearGradient id="paint2_linear_2362_35129" x1="108.162" y1="178.171" x2="161.272" y2="86.3404" gradientUnits="userSpaceOnUse">
<stop stop-color="#FCC934"/>
<stop offset="1" stop-color="#FBBC04"/>
</linearGradient>
<clipPath id="clip0_2362_35129">
<rect width="122.654" height="122.654" fill="white" transform="translate(55.7896 55.5164)"/>
</clipPath>
</defs>
</svg>
