<svg width="236" height="234" viewBox="0 0 236 234" fill="none" xmlns="http://www.w3.org/2000/svg">
<rect width="234.942" height="233.215" transform="translate(0.217773 0.396729)" fill="white"/>
<g clip-path="url(#clip0_2362_35119)">
<path d="M164.29 147.065C162.622 147.932 160.902 148.694 159.14 149.349C153.56 151.425 147.652 152.479 141.698 152.458C118.716 152.458 98.6987 136.667 98.6987 116.358C98.7285 113.639 99.4825 110.976 100.883 108.645C102.284 106.314 104.28 104.398 106.667 103.094C85.8719 103.969 80.5273 125.638 80.5273 138.319C80.5273 174.273 113.615 177.869 120.757 177.869C124.595 177.869 130.377 176.751 133.875 175.634L134.507 175.439C147.894 170.813 159.307 161.765 166.865 149.786C167.085 149.422 167.179 148.996 167.134 148.573C167.088 148.151 166.905 147.754 166.613 147.446C166.321 147.137 165.935 146.932 165.516 146.864C165.096 146.795 164.666 146.866 164.29 147.065V147.065Z" fill="url(#paint0_linear_2362_35119)"/>
<path opacity="0.35" d="M164.29 147.065C162.622 147.932 160.902 148.694 159.14 149.349C153.56 151.425 147.652 152.479 141.698 152.458C118.716 152.458 98.6987 136.667 98.6987 116.358C98.7285 113.639 99.4825 110.976 100.883 108.645C102.284 106.314 104.28 104.398 106.667 103.094C85.8719 103.969 80.5273 125.638 80.5273 138.319C80.5273 174.273 113.615 177.869 120.757 177.869C124.595 177.869 130.377 176.751 133.875 175.634L134.507 175.439C147.894 170.813 159.307 161.765 166.865 149.786C167.085 149.422 167.179 148.996 167.134 148.573C167.088 148.151 166.905 147.754 166.613 147.446C166.321 147.137 165.935 146.932 165.516 146.864C165.096 146.795 164.666 146.866 164.29 147.065V147.065Z" fill="url(#paint1_radial_2362_35119)"/>
<path d="M103.363 171.747C99.0383 169.061 95.2895 165.543 92.334 161.398C88.9588 156.778 86.6356 151.476 85.5273 145.863C84.4189 140.25 84.5523 134.463 85.9181 128.907C87.2839 123.351 89.849 118.162 93.4334 113.703C97.0178 109.243 101.535 105.623 106.667 103.094C108.222 102.365 110.797 101.102 114.246 101.151C116.674 101.17 119.064 101.75 121.23 102.845C123.396 103.941 125.28 105.523 126.733 107.467C128.688 110.096 129.76 113.277 129.794 116.553C129.794 116.456 141.698 77.8779 90.9249 77.8779C69.5955 77.8779 52.0558 98.0899 52.0558 115.873C51.971 125.266 53.9792 134.56 57.9348 143.081C64.4127 156.875 75.7297 167.81 89.7377 173.811C103.746 179.812 119.469 180.46 133.924 175.634C128.86 177.233 123.509 177.714 118.241 177.043C112.973 176.372 107.913 174.565 103.412 171.747H103.363Z" fill="url(#paint2_linear_2362_35119)"/>
<path opacity="0.41" d="M103.363 171.747C99.0383 169.061 95.2895 165.543 92.334 161.398C88.9588 156.778 86.6356 151.476 85.5273 145.863C84.4189 140.25 84.5523 134.463 85.9181 128.907C87.2839 123.351 89.849 118.162 93.4334 113.703C97.0178 109.243 101.535 105.623 106.667 103.094C108.222 102.365 110.797 101.102 114.246 101.151C116.674 101.17 119.064 101.75 121.23 102.845C123.396 103.941 125.28 105.523 126.733 107.467C128.688 110.096 129.76 113.277 129.794 116.553C129.794 116.456 141.698 77.8779 90.9249 77.8779C69.5955 77.8779 52.0558 98.0899 52.0558 115.873C51.971 125.266 53.9792 134.56 57.9348 143.081C64.4127 156.875 75.7297 167.81 89.7377 173.811C103.746 179.812 119.469 180.46 133.924 175.634C128.86 177.233 123.509 177.714 118.241 177.043C112.973 176.372 107.913 174.565 103.412 171.747H103.363Z" fill="url(#paint3_radial_2362_35119)"/>
<path d="M126.053 126.804C125.616 127.29 124.401 128.019 124.401 129.525C124.401 130.788 125.227 132.052 126.733 133.072C133.681 137.93 146.848 137.25 146.897 137.25C152.076 137.247 157.16 135.854 161.618 133.218C166.107 130.592 169.831 126.839 172.422 122.331C175.013 117.823 176.38 112.715 176.389 107.515C176.534 96.632 172.502 89.3926 170.898 86.1859C160.549 66.0711 138.345 54.5076 114.198 54.5076C97.8544 54.506 82.1671 60.938 70.5289 72.4125C58.8907 83.887 52.2372 99.4817 52.0073 115.824C52.2503 98.0896 69.8871 83.7566 90.8765 83.7566C92.577 83.7566 102.294 83.9024 111.283 88.6152C117.598 91.7532 122.827 96.7118 126.296 102.851C129.26 108.001 129.794 114.56 129.794 117.184C129.794 119.808 128.482 123.646 126.004 126.853L126.053 126.804Z" fill="url(#paint4_radial_2362_35119)"/>
<path d="M126.053 126.804C125.616 127.29 124.401 128.019 124.401 129.525C124.401 130.788 125.227 132.052 126.733 133.072C133.681 137.93 146.848 137.25 146.897 137.25C152.076 137.247 157.16 135.854 161.618 133.218C166.107 130.592 169.831 126.839 172.422 122.331C175.013 117.823 176.38 112.715 176.389 107.515C176.534 96.632 172.502 89.3926 170.898 86.1859C160.549 66.0711 138.345 54.5076 114.198 54.5076C97.8544 54.506 82.1671 60.938 70.5289 72.4125C58.8907 83.887 52.2372 99.4817 52.0073 115.824C52.2503 98.0896 69.8871 83.7566 90.8765 83.7566C92.577 83.7566 102.294 83.9024 111.283 88.6152C117.598 91.7532 122.827 96.7118 126.296 102.851C129.26 108.001 129.794 114.56 129.794 117.184C129.794 119.808 128.482 123.646 126.004 126.853L126.053 126.804Z" fill="url(#paint5_radial_2362_35119)"/>
</g>
<defs>
<linearGradient id="paint0_linear_2362_35119" x1="80.5273" y1="140.506" x2="167.206" y2="140.506" gradientUnits="userSpaceOnUse">
<stop stop-color="#0C59A4"/>
<stop offset="1" stop-color="#114A8B"/>
</linearGradient>
<radialGradient id="paint1_radial_2362_35119" cx="0" cy="0" r="1" gradientUnits="userSpaceOnUse" gradientTransform="translate(128.385 141.159) scale(46.3515 44.0339)">
<stop offset="0.7" stop-opacity="0"/>
<stop offset="0.9" stop-opacity="0.5"/>
<stop offset="1"/>
</radialGradient>
<linearGradient id="paint2_linear_2362_35119" x1="126.199" y1="102.9" x2="72.122" y2="161.835" gradientUnits="userSpaceOnUse">
<stop stop-color="#1B9DE2"/>
<stop offset="0.2" stop-color="#1595DF"/>
<stop offset="0.7" stop-color="#0680D7"/>
<stop offset="1" stop-color="#0078D4"/>
</linearGradient>
<radialGradient id="paint3_radial_2362_35119" cx="0" cy="0" r="1" gradientUnits="userSpaceOnUse" gradientTransform="translate(86.2874 151.164) rotate(-81.3844) scale(69.6662 56.2832)">
<stop offset="0.8" stop-opacity="0"/>
<stop offset="0.9" stop-opacity="0.5"/>
<stop offset="1"/>
</radialGradient>
<radialGradient id="paint4_radial_2362_35119" cx="0" cy="0" r="1" gradientUnits="userSpaceOnUse" gradientTransform="translate(64.5863 77.4967) rotate(92.2906) scale(98.4176 209.609)">
<stop stop-color="#35C1F1"/>
<stop offset="0.1" stop-color="#34C1ED"/>
<stop offset="0.2" stop-color="#2FC2DF"/>
<stop offset="0.3" stop-color="#2BC3D2"/>
<stop offset="0.7" stop-color="#36C752"/>
</radialGradient>
<radialGradient id="paint5_radial_2362_35119" cx="0" cy="0" r="1" gradientUnits="userSpaceOnUse" gradientTransform="translate(168.644 92.0649) rotate(73.7398) scale(47.2746 38.4437)">
<stop stop-color="#66EB6E"/>
<stop offset="1" stop-color="#66EB6E" stop-opacity="0"/>
</radialGradient>
<clipPath id="clip0_2362_35119">
<rect width="124.381" height="124.381" fill="white" transform="translate(52.0073 54.5076)"/>
</clipPath>
</defs>
</svg>
