<svg xmlns="http://www.w3.org/2000/svg" viewBox="0 0 1000 856" width="1000" height="856" preserveAspectRatio="xMidYMid meet" style="width: 100%; height: 100%; transform: translate3d(0px, 0px, 0px);"><defs><clipPath id="__lottie_element_31"><rect width="1000" height="856" x="0" y="0"></rect></clipPath></defs><g clip-path="url(#__lottie_element_31)"><g transform="matrix(1,0,0,1,250.84579467773438,566.17138671875)" opacity="1" style="display: block;"><g opacity="1" transform="matrix(1,0,0,1,0,0)"><path stroke-linecap="round" stroke-linejoin="miter" fill-opacity="0" stroke-miterlimit="10" stroke="rgb(0,0,0)" stroke-opacity="1" stroke-width="50" d=" M-157.98599243164062,167.79400634765625 C-157.98599243164062,80.53700256347656 -87.25,9.800999641418457 0.007000000216066837,9.800999641418457 C50.88100051879883,9.800999641418457 96.13899993896484,33.84600067138672 125.03600311279297,71.19200134277344"></path></g><g opacity="1" transform="matrix(1,0,0,1,0,0)"><path stroke-linecap="round" stroke-linejoin="miter" fill-opacity="0" stroke-miterlimit="10" stroke="rgb(0,0,0)" stroke-opacity="1" stroke-width="50" d=" M81.01200103759766,-108.8499984741211 C83.197998046875,-155.2449951171875 47.36000061035156,-194.6280059814453 0.9649999737739563,-196.81399536132812 C-45.43000030517578,-199 -84.81199645996094,-163.16200256347656 -86.99800109863281,-116.76699829101562 C-89.18399810791016,-70.37200164794922 -53.34600067138672,-30.98900032043457 -6.951000213623047,-28.80299949645996 C39.444000244140625,-26.617000579833984 78.82599639892578,-62.45500183105469 81.01200103759766,-108.8499984741211z"></path></g></g><g transform="matrix(1,0,0,1,915.9573974609375,350.5552062988281)" opacity="1" style="display: block;"><g opacity="1" transform="matrix(1,0,0,1,0,1)"><path stroke-linecap="round" stroke-linejoin="miter" fill-opacity="0" stroke-miterlimit="10" stroke="rgb(0,0,0)" stroke-opacity="1" stroke-width="50" d=" M-436.1499938964844,-44.4370002746582 C-407.8559875488281,-81.197998046875 -365.1369934082031,-105.6510009765625 -320.70599365234375,-105.17900085449219 C-233.68800354003906,-104.25499725341797 -179.9669952392578,-54.96099853515625 -163.6199951171875,9.022000312805176"></path></g><g opacity="1" transform="matrix(1,0,0,1,0,0)"><path stroke-linecap="round" stroke-linejoin="miter" fill-opacity="0" stroke-miterlimit="10" stroke="rgb(0,0,0)" stroke-opacity="1" stroke-width="50" d=" M-399.3489990234375,-225.7429962158203 C-399.3489990234375,-178.83399963378906 -361.3210144042969,-140.80599975585938 -314.4119873046875,-140.80599975585938 C-267.50299072265625,-140.80599975585938 -229.47500610351562,-178.83399963378906 -229.47500610351562,-225.7429962158203 C-229.47500610351562,-272.6520080566406 -267.50299072265625,-310.67999267578125 -314.4119873046875,-310.67999267578125 C-361.3210144042969,-310.67999267578125 -399.3489990234375,-272.6520080566406 -399.3489990234375,-225.7429962158203z"></path></g></g><g transform="matrix(1,0,0,1,302.78961181640625,764.9551391601562)" opacity="1" style="display: block;"><g opacity="1" transform="matrix(1,0,0,1,0,0)"><path stroke-linecap="round" stroke-linejoin="miter" fill-opacity="0" stroke-miterlimit="10" stroke="rgb(0,0,0)" stroke-opacity="1" stroke-width="50" d=" M472.5524597167969,53.2307243347168 C472.5524597167969,-30.38996696472168 402.738037109375,-106.24858093261719 319.1429443359375,-104.17864990234375 C238.38099670410156,-102.1780014038086 188.00900268554688,-57.566001892089844 172.6999969482422,4.769000053405762"></path></g><g opacity="1" transform="matrix(1,0,0,1,0,0)"><path stroke-linecap="round" stroke-linejoin="miter" fill-opacity="0" stroke-miterlimit="10" stroke="rgb(0,0,0)" stroke-opacity="1" stroke-width="50" d=" M398.5377197265625,-225.7449188232422 C398.5377197265625,-178.83457946777344 360.50860595703125,-140.80548095703125 313.5982666015625,-140.80548095703125 C266.68792724609375,-140.80548095703125 228.65884399414062,-178.83457946777344 228.65884399414062,-225.7449188232422 C228.65884399414062,-272.6552429199219 266.68792724609375,-310.6843566894531 313.5982666015625,-310.6843566894531 C360.50860595703125,-310.6843566894531 398.5377197265625,-272.6552429199219 398.5377197265625,-225.7449188232422z"></path></g></g></g></svg>