<svg width="234" height="234" viewBox="0 0 234 234" fill="none" xmlns="http://www.w3.org/2000/svg">
<rect width="233.215" height="233.215" transform="translate(0 0.396729)" fill="white"/>
<path d="M68.2063 119.678V82.7193C68.2063 74.4405 74.9821 67.6401 82.9363 67.9357L145.686 67.9357C153.64 67.9357 160.416 74.4405 160.416 82.7193H171.905C171.905 67.9357 159.827 56.1089 145.391 56.1089L83.2309 56.1089C68.5009 56.1089 56.7169 68.2314 56.7169 82.7193V119.678H50.5303L62.3143 136.827L74.0983 119.678H68.2063Z" fill="url(#paint0_linear_2362_35114)"/>
<path d="M177.503 107.851L165.719 90.7024L159.827 99.5726L153.935 108.147H159.827V144.81C159.827 152.793 153.346 159.594 145.097 159.594H82.9363C74.9821 159.594 68.2063 153.089 68.2063 144.81H56.4223C56.4223 159.594 68.5009 171.421 82.9363 171.421H145.097C159.827 171.421 171.611 159.298 171.611 144.81V107.851H177.503Z" fill="url(#paint1_linear_2362_35114)"/>
<path d="M99.9349 105.532C101.366 104.141 101.402 101.849 100.016 100.413C98.6297 98.9771 96.3462 98.9407 94.9154 100.332L83.3731 111.554C82.6718 112.236 82.2759 113.174 82.2759 114.154C82.2759 115.134 82.6718 116.072 83.3731 116.754L94.9154 127.977C96.3462 129.368 98.6297 129.331 100.016 127.895C101.402 126.459 101.366 124.167 99.9349 122.776L91.0668 114.154L99.9349 105.532Z" fill="black"/>
<path d="M128.019 100.413C126.633 101.849 126.669 104.141 128.1 105.532L136.968 114.154L128.1 122.776C126.669 124.167 126.633 126.459 128.019 127.895C129.405 129.331 131.688 129.368 133.119 127.977L144.661 116.754C145.363 116.072 145.759 115.134 145.759 114.154C145.759 113.174 145.363 112.236 144.661 111.554L133.119 100.332C131.688 98.9407 129.405 98.9771 128.019 100.413Z" fill="black"/>
<path d="M123.088 103.669C123.892 101.84 123.067 99.7031 121.244 98.8961C119.422 98.0891 117.292 98.9177 116.488 100.747L105.667 125.364C104.863 127.193 105.689 129.33 107.511 130.137C109.334 130.944 111.463 130.115 112.267 128.286L123.088 103.669Z" fill="black"/>
<defs>
<linearGradient id="paint0_linear_2362_35114" x1="50.5303" y1="171.421" x2="195.045" y2="141.856" gradientUnits="userSpaceOnUse">
<stop stop-color="#FF4087"/>
<stop offset="1" stop-color="#FFC056"/>
</linearGradient>
<linearGradient id="paint1_linear_2362_35114" x1="50.5303" y1="171.421" x2="195.045" y2="141.856" gradientUnits="userSpaceOnUse">
<stop stop-color="#FF4087"/>
<stop offset="1" stop-color="#FFC056"/>
</linearGradient>
</defs>
</svg>
