<svg width="236" height="234" viewBox="0 0 236 234" fill="none" xmlns="http://www.w3.org/2000/svg">
<rect width="234.942" height="233.215" transform="translate(0.245117 0.396729)" fill="white"/>
<path d="M160.638 117.259C160.638 119.621 159.439 120.007 156.465 120.007C153.299 120.007 152.723 119.477 152.387 117.066C151.764 110.943 147.639 105.736 140.731 105.157C138.525 104.964 137.997 104.145 137.997 101.396C137.997 98.841 138.381 97.6356 140.347 97.6356C152.339 97.6838 160.638 107.375 160.638 117.259ZM178.099 117.259C178.099 98.8892 165.723 79.4587 137.133 79.4587H80.3388C79.1875 79.4587 78.468 80.0373 78.468 81.098C78.468 81.6766 78.8997 82.207 79.2835 82.4963C81.3461 84.1355 84.4161 85.9677 88.4454 87.9927C92.3789 89.9695 95.4488 91.2713 98.5188 92.5249C99.814 93.0552 100.294 93.6338 100.294 94.357C100.294 95.3695 99.5741 95.9963 98.183 95.9963H53.0927C51.7496 95.9963 51.126 96.8642 51.126 97.732C51.126 98.4552 51.3658 99.082 51.9894 99.7088C55.635 103.566 61.4872 108.195 69.9776 113.546C77.4127 118.223 86.6226 123.286 93.9618 126.805C95.209 127.384 95.5927 128.059 95.5927 128.782C95.5448 129.602 94.9212 130.277 93.4821 130.277H72.8077C71.6565 130.277 70.9849 130.904 70.9849 131.868C70.9849 132.398 71.4166 133.073 71.9923 133.604C76.6932 137.895 84.2242 142.571 94.2496 146.863C107.633 152.6 121.208 156.023 136.462 156.023C165.387 156.023 178.099 134.279 178.099 117.259ZM140.347 143.343C126.149 143.343 114.3 131.723 114.3 117.259C114.3 102.987 126.149 91.5606 140.347 91.5606C154.93 91.5606 166.298 102.987 166.298 117.259C166.25 131.723 154.882 143.343 140.347 143.343Z" fill="white"/>
<path d="M160.638 117.259C160.638 119.621 159.439 120.007 156.465 120.007C153.299 120.007 152.723 119.477 152.387 117.066C151.764 110.943 147.639 105.736 140.731 105.157C138.525 104.964 137.997 104.145 137.997 101.396C137.997 98.841 138.381 97.6356 140.347 97.6356C152.339 97.6838 160.638 107.375 160.638 117.259ZM178.099 117.259C178.099 98.8892 165.723 79.4587 137.133 79.4587H80.3388C79.1875 79.4587 78.468 80.0373 78.468 81.098C78.468 81.6766 78.8997 82.207 79.2835 82.4963C81.3461 84.1355 84.4161 85.9677 88.4454 87.9927C92.3789 89.9695 95.4488 91.2713 98.5188 92.5249C99.814 93.0552 100.294 93.6338 100.294 94.357C100.294 95.3695 99.5741 95.9963 98.183 95.9963H53.0927C51.7496 95.9963 51.126 96.8642 51.126 97.732C51.126 98.4552 51.3658 99.082 51.9894 99.7088C55.635 103.566 61.4872 108.195 69.9776 113.546C77.4127 118.223 86.6226 123.286 93.9618 126.805C95.209 127.384 95.5927 128.059 95.5927 128.782C95.5448 129.602 94.9212 130.277 93.4821 130.277H72.8077C71.6565 130.277 70.9849 130.904 70.9849 131.868C70.9849 132.398 71.4166 133.073 71.9923 133.604C76.6932 137.895 84.2242 142.571 94.2496 146.863C107.633 152.6 121.208 156.023 136.462 156.023C165.387 156.023 178.099 134.279 178.099 117.259ZM140.347 143.343C126.149 143.343 114.3 131.723 114.3 117.259C114.3 102.987 126.149 91.5606 140.347 91.5606C154.93 91.5606 166.298 102.987 166.298 117.259C166.25 131.723 154.882 143.343 140.347 143.343Z" fill="#FF642D"/>
</svg>
