<svg width="274" height="80" viewBox="0 0 274 80" fill="none" xmlns="http://www.w3.org/2000/svg">
<path fill-rule="evenodd" clip-rule="evenodd" d="M269.666 77.7819C268.775 77.7783 267.92 77.4225 267.29 76.7919C266.659 76.1614 266.303 75.3071 266.3 74.4153C266.339 73.5485 266.71 72.7302 267.337 72.1305C267.965 71.5309 268.799 71.1963 269.666 71.1963C270.534 71.1963 271.368 71.5309 271.995 72.1305C272.623 72.7302 272.994 73.5485 273.033 74.4153C273.033 76.2595 271.528 77.7819 269.666 77.7819V77.7819ZM269.666 70.4351C267.46 70.4351 265.669 72.2056 265.669 74.4153C265.669 76.6285 267.46 78.3587 269.666 78.3587C271.88 78.3587 273.667 76.625 273.667 74.4153C273.667 72.2056 271.876 70.4351 269.666 70.4351ZM268.912 74.1169V72.8394H269.65C270.072 72.8394 270.545 72.9662 270.545 73.4528C270.545 73.9965 270.019 74.1169 269.563 74.1169H268.912ZM271.35 73.4668C271.35 72.5074 270.529 72.1524 269.687 72.1524H268.111V76.639H268.912V74.7645H269.492L270.545 76.6423H271.528L270.314 74.6773C270.951 74.5405 271.349 74.1172 271.349 73.4708L271.35 73.4668ZM246.178 16.5804C247.265 16.6024 248.346 16.4072 249.356 16.0064C250.367 15.6057 251.288 15.0072 252.064 14.2463C252.841 13.4853 253.458 12.5771 253.88 11.5747C254.301 10.5723 254.518 9.49603 254.518 8.4087C254.518 7.32137 254.302 6.24484 253.881 5.24229C253.46 4.23974 252.843 3.33124 252.067 2.56996C251.29 1.80868 250.37 1.21003 249.359 0.808844C248.349 0.407662 247.268 0.211998 246.181 0.233537C244.042 0.276358 242.005 1.1563 240.507 2.68444C239.009 4.21259 238.17 6.26714 238.17 8.40696C238.17 10.5468 239.009 12.6013 240.507 14.1295C242.005 15.6576 244.042 16.5376 246.181 16.5804H246.178ZM224.248 23.6386V35.6295H239.411V77.7857H252.941V35.6295H268.108V23.6386H224.248ZM106.207 16.5804C107.28 16.5807 108.343 16.3695 109.335 15.9589C110.327 15.5482 111.228 14.9461 111.987 14.1871C112.747 13.4281 113.349 12.5271 113.76 11.5353C114.17 10.5435 114.382 9.48048 114.382 8.40696C114.382 7.33344 114.17 6.27042 113.76 5.27864C113.349 4.28687 112.747 3.38581 111.987 2.62682C111.228 1.86782 110.327 1.26569 109.335 0.855062C108.343 0.444431 107.28 0.23327 106.207 0.233537C104.067 0.276358 102.03 1.1563 100.532 2.68444C99.0341 4.21259 98.1951 6.26714 98.1951 8.40696C98.1951 10.5468 99.0341 12.6013 100.532 14.1295C102.03 15.6576 104.067 16.5376 106.207 16.5804ZM84.2735 35.6262H99.4399V77.7857H112.967V35.6295H128.136V23.6386H84.2769V35.6295L84.2735 35.6262ZM201.235 77.7857H214.769V23.6722H201.239V77.7857H201.235ZM173.86 53.4349C173.86 60.651 169.796 68.0883 161.232 68.0883C152.551 68.0883 151.085 60.0876 151.085 53.6596V23.6722H137.555V57.4924C137.555 68.5443 143.417 79.3651 157.513 79.3651C165.514 79.3651 171.942 74.5163 174.309 69.1043H174.534V77.7857H187.386V23.6722H173.86L173.86 53.4349ZM57.4281 22.0929C49.4241 22.0929 42.9994 26.9416 40.632 32.3537H40.4039V23.6722H27.5546V77.7857H41.0813V48.0229C41.0813 40.8069 45.142 33.3662 53.7093 33.3662C62.3873 33.3662 63.856 41.3703 63.856 47.7984V77.7857H77.3826V43.959C77.3826 32.9136 71.5247 22.0896 57.4279 22.0896L57.4281 22.0929ZM0.166016 77.7857H13.6927V23.6722H0.166016V77.7857Z" fill="white"/>
</svg>
