<svg width="100%" style="" viewBox="0 0 17 16" fill="none" xmlns="http://www.w3.org/2000/svg">
<path opacity="0.4" d="M6.5 1.33325C4.75334 1.33325 3.33334 2.75325 3.33334 4.49992C3.33334 6.21325 4.67334 7.59992 6.42 7.65992C6.47334 7.65325 6.52667 7.65325 6.56667 7.65992C6.58 7.65992 6.58667 7.65992 6.6 7.65992C6.60667 7.65992 6.60667 7.65992 6.61334 7.65992C8.32 7.59992 9.66 6.21325 9.66667 4.49992C9.66667 2.75325 8.24667 1.33325 6.5 1.33325Z" fill="#4299E1"></path>
<path d="M9.88664 9.43317C8.02664 8.19317 4.99331 8.19317 3.11997 9.43317C2.27331 9.99984 1.80664 10.7665 1.80664 11.5865C1.80664 12.4065 2.27331 13.1665 3.11331 13.7265C4.04664 14.3532 5.27331 14.6665 6.49997 14.6665C7.72664 14.6665 8.95331 14.3532 9.88664 13.7265C10.7266 13.1598 11.1933 12.3998 11.1933 11.5732C11.1866 10.7532 10.7266 9.99317 9.88664 9.43317Z" fill="#4299E1"></path>
<path opacity="0.4" d="M13.8267 4.89332C13.9333 6.18665 13.0133 7.31999 11.74 7.47332C11.7333 7.47332 11.7333 7.47332 11.7267 7.47332H11.7067C11.6667 7.47332 11.6267 7.47332 11.5933 7.48665C10.9467 7.51998 10.3533 7.31332 9.90665 6.93332C10.5933 6.31998 10.9867 5.39999 10.9067 4.39999C10.86 3.85998 10.6733 3.36665 10.3933 2.94665C10.6467 2.81999 10.94 2.73999 11.24 2.71332C12.5467 2.59999 13.7133 3.57332 13.8267 4.89332Z" fill="#4299E1"></path>
<path d="M15.16 11.0599C15.1067 11.7066 14.6933 12.2666 14 12.6466C13.3333 13.0133 12.4933 13.1866 11.66 13.1666C12.14 12.7333 12.42 12.1933 12.4733 11.6199C12.54 10.7933 12.1467 9.99994 11.36 9.36661C10.9133 9.01327 10.3933 8.73327 9.82666 8.52661C11.3 8.09994 13.1533 8.38661 14.2933 9.30661C14.9067 9.79994 15.22 10.4199 15.16 11.0599Z" fill="#4299E1"></path>
</svg>