<svg width="100%" viewBox="0 0 24 24" fill="currentColor" xmlns="http://www.w3.org/2000/svg">
<path d="M12 6.75072C13.8351 6.75072 15.3228 5.26307 15.3228 3.42796C15.3228 3.38428 15.3219 3.34079 15.3203 3.29752H18.3093C18.5745 3.29752 18.8288 3.40286 19.0163 3.59039L23.2926 7.86642C23.6832 8.25694 23.6832 8.89012 23.2927 9.28065L20.5341 12.0392C20.3076 12.2657 19.9404 12.2657 19.7139 12.0392C19.3485 11.6739 18.7238 11.9326 18.7238 12.4493V19.4113H5.27587V12.4493C5.27587 11.9326 4.65115 11.6739 4.28578 12.0392C4.05929 12.2657 3.69206 12.2657 3.46557 12.0392L0.706956 9.28063C0.316431 8.8901 0.316432 8.25694 0.706956 7.86641L4.98311 3.59026C5.17066 3.40271 5.42504 3.29735 5.69027 3.29736L8.67976 3.29752C8.67809 3.34079 8.67725 3.38428 8.67725 3.42796C8.67725 5.26307 10.1649 6.75072 12 6.75072Z" fill="currentColor"></path>
<path opacity="0.4" d="M5.29736 19.4111H18.7293V19.8491C18.7293 20.4014 18.2828 20.8491 17.7319 20.8491H6.29478C5.74392 20.8491 5.29736 20.4014 5.29736 19.8491V19.4111Z" fill="currentColor"></path>
</svg>