<svg width="274" height="125" viewBox="0 0 274 125" fill="none" xmlns="http://www.w3.org/2000/svg">
<path opacity="0.5" fill-rule="evenodd" clip-rule="evenodd" d="M197.572 28.7802V45.5609H172.54V60.9616H197.572V78.4479L219.673 53.6159L197.572 28.7802ZM197.572 78.4503V78.4504H154.143V0.20459H197.572V17.6457H172.54V28.7779H197.57L197.57 28.7778H220.89L231.838 40.8439L242.379 28.7778H264.886L242.89 53.5129L265.188 78.4503H241.772L230.927 66.2886L220.18 78.4503H197.572Z" fill="white"/>
<path d="M135.82 0.20459V32.2265H135.618C131.559 27.5647 126.493 25.9434 120.614 25.9434C108.57 25.9434 99.4968 34.1345 96.3129 44.958C92.6769 33.0316 83.3094 25.7191 69.4197 25.7191C58.1404 25.7191 49.2324 30.7816 44.5853 39.0316V28.7779H21.2693V17.6457H46.714V0.20459H0.486328V78.4504H21.2693V45.5609H41.9861C41.3684 47.9764 41.0375 50.5646 41.0375 53.2962C41.0375 69.6159 53.5081 81.0717 69.4197 81.0717C82.802 81.0717 91.6218 74.7887 96.2835 63.3366H78.4711C76.0631 66.7814 74.2359 67.7998 69.4197 67.7998C63.8352 67.7998 59.0191 62.9285 59.0191 57.1528H95.2872C96.8607 70.1159 106.96 81.296 120.816 81.296C126.794 81.296 132.269 78.3548 135.614 73.3916H135.816V78.4578H154.136V0.20459H135.82ZM59.5999 45.7925C60.7543 40.822 64.6109 37.5757 69.4234 37.5757C74.7212 37.5757 78.3792 40.7227 79.3425 45.7925C79.7469 45.7925 59.5999 45.7925 59.5999 45.7925ZM124.699 66.5387C117.945 66.5387 113.747 60.2447 113.747 53.6748C113.747 46.6528 117.397 39.8992 124.699 39.8992C132.269 39.8992 135.283 46.6528 135.283 53.6748C135.283 60.3329 132.088 66.5387 124.699 66.5387Z" fill="white"/>
<path d="M154.143 117.575V89.5349H169.638V91.6267H156.699V101.965H169.085V104.057H156.699V115.476H170.213V117.571L154.143 117.575Z" fill="white"/>
<path d="M172.065 117.575L179.619 107.505L172.453 97.9797H175.361L181.206 105.763L186.943 97.9797H189.844L182.563 107.505L190.153 117.575H187.209L180.933 109.244L174.973 117.575H172.065Z" fill="white"/>
<path fill-rule="evenodd" clip-rule="evenodd" d="M192.702 124.928H195.072V114.745C196.465 116.994 198.59 118.039 201.305 118.039C207.343 118.039 209.936 113.046 209.936 107.774C209.936 102.509 207.343 97.5166 201.305 97.5166C198.396 97.5166 196.458 98.5972 194.993 100.925L194.914 97.9797H192.587C192.638 98.8768 192.666 99.7798 192.681 100.683C192.702 101.735 192.702 102.787 192.702 103.829V124.928ZM201.032 99.4872C205.677 99.4872 207.422 103.594 207.422 107.774C207.422 111.958 205.677 116.06 201.032 116.06C196.659 116.06 195.072 112.461 195.072 107.774C195.072 103.09 196.659 99.4872 201.032 99.4872Z" fill="white"/>
<path d="M222.078 99.7959C218.172 99.7959 216.807 103.09 216.807 106.495V117.575H214.445V103.744C214.445 101.847 214.409 99.9171 214.33 97.9797H216.664L216.815 100.807C217.971 98.5645 219.917 97.5166 222.509 97.5166L222.782 97.5228L223.062 97.5412L223.593 97.5937V99.9575L223.421 99.9297L222.889 99.8511C222.624 99.8179 222.372 99.7959 222.078 99.7959Z" fill="white"/>
<path fill-rule="evenodd" clip-rule="evenodd" d="M232.87 116.252C228.576 116.252 226.487 112.612 226.487 108.2H240.769C240.769 102.972 239.103 97.5166 232.87 97.5166C226.709 97.5166 223.959 102.513 223.959 108.127C223.959 113.623 226.594 118.039 232.562 118.039C237.013 118.039 239.527 115.943 240.575 111.84H238.328C237.753 114.046 236.195 116.252 232.87 116.252ZM238.256 106.421H226.559C227.018 101.847 229.352 99.2924 232.719 99.296C236.439 99.296 238.256 102.586 238.256 106.421Z" fill="white"/>
<path d="M249.989 118.039C245.96 118.039 242.945 116.138 242.945 111.84H245.307C245.307 113.296 245.781 114.392 246.607 115.127C247.454 115.877 248.668 116.252 250.111 116.252C252.782 116.252 254.872 114.973 254.872 112.348C254.872 110.061 252.588 109.405 250.14 108.699L249.881 108.627C246.786 107.737 243.411 106.766 243.411 102.972C243.411 98.7557 246.937 97.5166 250.226 97.5166C254.017 97.5166 256.846 98.9836 256.961 103.05H254.599C254.484 100.73 252.818 99.4136 250.305 99.4136C249.163 99.4136 247.878 99.6716 246.994 100.383C246.348 100.902 245.925 101.663 245.925 102.741C245.925 103.972 246.6 104.736 247.612 105.285C248.51 105.775 249.68 106.094 250.879 106.421C253.988 107.27 257.392 108.2 257.392 111.998C257.385 116.41 253.981 118.039 249.989 118.039Z" fill="white"/>
<path d="M259.323 111.84C259.323 116.138 262.339 118.039 266.375 118.039C270.36 118.039 273.771 116.41 273.778 111.998C273.778 108.2 270.367 107.27 267.265 106.421C264.709 105.726 262.311 105.068 262.311 102.741C262.311 100.185 264.709 99.4136 266.684 99.4136C268.134 99.4136 269.297 99.8484 270.051 100.659C270.604 101.259 270.934 102.063 270.985 103.05H273.347C273.232 98.9836 270.403 97.5166 266.612 97.5166C263.316 97.5166 259.797 98.7557 259.797 102.972C259.797 106.766 263.165 107.737 266.26 108.627L266.518 108.699C268.967 109.405 271.25 110.061 271.25 112.348C271.25 114.973 269.168 116.252 266.49 116.252C264.292 116.252 262.641 115.387 261.995 113.658C261.794 113.132 261.686 112.526 261.686 111.84H259.323Z" fill="white"/>
</svg>
