<svg width="155" height="38" viewBox="0 0 155 38" fill="none" xmlns="http://www.w3.org/2000/svg">
<path d="M14.1 2.30005C6.3 2.30005 0 8.60005 0 16.4V35.7001H19.3C27.1 35.7001 33.4 29.4001 33.4 21.6V2.30005H14.1ZM25.5 8.20005C25.5 10.8 23.4 12.8 20.9 12.8H15.9V16.8H22.6V21.4H16V31H10.5V7.00005H15.9V11.3C16.1 8.90005 18.1 7.00005 20.5 7.00005H25.5V8.20005Z" fill="#0075DD"/>
<path d="M52.2 14.6V27.1H55.5V20.3C55.5 19.9 55.5 18.7 56 18.2C56.5 17.6 57.2 17.3 58 17.4H58.0999V14.3H58C57 14.2 56.1 14.6 55.7 15L55.5 15.2C55.4 15.3 55.3 15.4 55.2 15.5V14.7L52.2 14.6Z" fill="black"/>
<path d="M85.2 27.1999V20.2999C85.2 18.3999 86.1 17.2999 87.6 17.2999C88.2 17.2999 88.7 17.4999 89.1 17.8999C89.6 18.3999 89.9 19.1999 89.9 20.1999V27.0999H93.1V19.2999C93.1 16.5999 91.2 14.3999 88.7 14.1999C87.3 14.0999 86.1 14.3999 85.2 15.2999V10.3999H82V27.0999H85.2V27.1999Z" fill="black"/>
<path d="M103.2 17.9999H103.1L103.2 17.8999C104.5 17.0999 104.9 15.3999 104.7 14.1999C104.2 11.7999 102.3 10.3999 99.3 10.3999H94.9V27.0999H99.6C103.1 27.0999 105.2 25.5999 105.8 22.7999C106 21.1999 105 18.6999 103.2 17.9999V17.9999ZM98.1 13.6999H99.5C100.1 13.6999 101.3 13.7999 101.4 15.0999C101.4 15.4999 101.3 15.8999 101 16.1999C100.5 16.6999 99.7 16.7999 99 16.7999H98L98.1 13.6999ZM102 23.1999C101.5 23.6999 100.6 23.9999 99.2 23.9999H98.1V19.9999H99.9C101 19.9999 102.3 20.4999 102.4 21.7999C102.5 22.2999 102.3 22.7999 102 23.1999Z" fill="black"/>
<path d="M117.5 16.2C116.3 15 114.6 14.3 112.8 14.3C109.1 14.4 106.2 17.4 106.3 21.1C106.4 24.6 109.2 27.5 112.7 27.6H112.8C114.5 27.6 116.2 26.9 117.4 25.7C120 23.2 120.1 19 117.6 16.4C117.7 16.3 117.6 16.2 117.5 16.2ZM113 24.5C112.1 24.5 111.2 24.2 110.6 23.5C109.9 22.8 109.5 21.9 109.5 20.9C109.5 19 111 17.5 112.9 17.4H113C114.9 17.4 116.4 18.9 116.5 20.8C116.4 22.7 115 24.4 113 24.5V24.5Z" fill="black"/>
<path d="M131.6 16.2C130.4 15 128.7 14.3 126.9 14.3C123.2 14.4 120.3 17.4 120.4 21.1C120.5 24.6 123.3 27.5 126.8 27.6H126.9C128.6 27.6 130.3 26.9 131.5 25.7C134.1 23.2 134.2 19 131.7 16.4C131.7 16.3 131.6 16.2 131.6 16.2ZM129.5 23.3C128.9 24 128 24.4 127.1 24.4C126.2 24.4 125.3 24.1 124.7 23.4C124 22.7 123.6 21.8 123.6 20.8C123.6 18.9 125.1 17.4 127 17.3H127.1C129 17.3 130.5 18.8 130.5 20.7C130.4 21.8 130.1 22.7 129.5 23.3Z" fill="black"/>
<path d="M137.6 21.4999L137.8 21.1999H138.1L141.7 27.1999H145.2L140.3 18.9999L145.2 14.5999H140.8L137.6 17.4999V10.3999H134.5V27.1999H137.6V21.4999Z" fill="black"/>
<path d="M154.4 23.4C154.4 20.7 152.2 20 150.5 19.5V19.6V19.5C149.4 19.2 148.5 18.9 148.5 18.2C148.5 17.7 148.9 17.4 149.6 17.4C150 17.4 150.4 17.5 150.7 17.8L150.8 17.9L152.9 15.8L152.8 15.7C152 14.9 150.8 14.5 149.7 14.5C147.1 14.5 145.5 16 145.5 18.3C145.5 21 147.6 21.6 149.3 22.1C150.5 22.4 151.4 22.7 151.4 23.5C151.4 24.2 150.7 24.7 149.7 24.7C148.7 24.7 148.1 24.2 148.1 23.4V23.2H144.9V23.4C144.9 25.8 146.9 27.6 149.7 27.6C152.4 27.6 154.4 25.8 154.4 23.4V23.4Z" fill="black"/>
<path d="M45 13.8V17.4H50.5V20.6H45.1V27.2H41.8V10.5H50.8V13.8H45Z" fill="black"/>
<path d="M71.3001 20.9999C71.3001 16.8999 69.0001 14.3999 65.3001 14.3999C61.5001 14.3999 58.8 17.0999 58.8 20.7999C58.8 24.6999 61.6 27.5999 65.2 27.5999C67.1 27.5999 69.0001 26.7999 70.3001 25.3999L70.4001 25.2999L68.1 23.2999L68 23.3999C67.3 24.2999 66.2 24.7999 65.1 24.7999C63.4 24.7999 62.1 23.6999 61.8 21.8999V21.5999H71.2L71.3001 20.9999ZM62.1 18.7999L62.2001 18.5999C62.8001 17.5999 63.8 17.0999 65.1 17.0999C66.5 17.0999 67.6001 17.6999 67.9001 18.7999H62.1Z" fill="black"/>
<path d="M77.3 19.4999C76.2 19.1999 75.3 18.8999 75.3 18.0999C75.3 17.5999 75.7 17.2999 76.4 17.2999C76.8 17.2999 77.2 17.3999 77.5 17.6999L77.6 17.7999L79.7 15.6999L79.6 15.5999C78.8 14.7999 77.6 14.3999 76.5 14.3999C73.9 14.3999 72.3 15.8999 72.3 18.1999C72.3 20.8999 74.4 21.4999 76.1 21.9999C77.3 22.2999 78.2 22.5999 78.2 23.3999C78.2 24.0999 77.5 24.5999 76.5 24.5999C75.5 24.5999 74.9 24.0999 74.9 23.2999V23.0999H71.7V23.2999C71.7 25.6999 73.7 27.4999 76.5 27.4999C79.3 27.4999 81.3 25.6999 81.3 23.2999C81.2 20.6999 79 20.0999 77.3 19.4999V19.4999Z" fill="black"/>
</svg>
