<svg width="120" height="70" viewBox="0 0 120 70" fill="#fff" xmlns="http://www.w3.org/2000/svg" >
  <path
    d="M25.7971 0L30.9542 7.96192L36.1114 0H38.6165V15.8334H35.9078V5.20239L30.9542 12.7346L26.012 5.20239V15.8334H23.2977V0H25.7971Z"
    fill="#fff" />
  <path
    d="M41.6757 18.0953C42.0647 18.4727 42.5639 18.7163 43.1007 18.7909C44.0281 18.7909 44.4126 18.5194 44.9329 17.2075L45.3626 16.1049L40.1489 5.08936H43.146L46.765 12.9382L49.5924 5.08936H52.5103L47.3079 18.2028C46.3805 20.5552 44.865 21.279 43.2817 21.279C42.2249 21.2324 41.2139 20.8343 40.409 20.148L41.6757 18.0953Z"
    fill="#fff" />
  <path
    d="M18.4572 34.4035L21.1715 37.0839C20.0294 38.3725 18.6229 39.3997 17.0479 40.0955C15.4729 40.7912 13.7664 41.1392 12.0447 41.1157C5.19108 41.1157 0 35.8624 0 28.8392C0 21.816 5.19108 16.557 12.0447 16.557C13.6879 16.5372 15.3174 16.8587 16.83 17.5011C18.3426 18.1435 19.7054 19.0929 20.8322 20.2892L18.0953 22.9695C17.3236 22.1376 16.387 21.4755 15.3453 21.0257C14.3035 20.5759 13.1794 20.3482 12.0447 20.357C7.36252 20.357 4.12799 24.2588 4.12799 28.8392C4.12799 33.4196 7.35121 37.3214 12.0447 37.3214C13.2602 37.3229 14.4618 37.0631 15.5682 36.5597C16.6746 36.0562 17.6598 35.3209 18.4572 34.4035Z"
    fill="#fff" />
  <path
    d="M39.3912 32.6734C39.4181 34.3766 38.9377 36.0494 38.011 37.4788C37.0843 38.9081 35.7533 40.0294 34.1873 40.7C32.6214 41.3706 30.8913 41.56 29.2173 41.2443C27.5434 40.9286 26.0012 40.1219 24.7871 38.927C23.573 37.7321 22.7419 36.203 22.3995 34.5343C22.0572 32.8655 22.219 31.1327 22.8646 29.5563C23.5101 27.9798 24.61 26.6311 26.0245 25.6817C27.4389 24.7324 29.1038 24.2253 30.8072 24.2251C31.9278 24.2079 33.0407 24.4136 34.0811 24.8304C35.1214 25.2472 36.0685 25.8666 36.8673 26.6528C37.6661 27.4389 38.3005 28.376 38.7338 29.4096C39.1671 30.4432 39.3906 31.5526 39.3912 32.6734ZM35.2519 32.6734C35.2519 30.1626 33.5555 28.0251 30.8072 28.0251C28.059 28.0251 26.3626 30.1626 26.3626 32.6734C26.3626 35.1841 28.059 37.3216 30.8072 37.3216C33.5555 37.3216 35.2519 35.1841 35.2519 32.6734Z"
    fill="#fff" />
  <path
    d="M56.3894 30.2984V40.7145H52.318V31.3162C52.318 29.0091 50.893 28.0252 49.1287 28.0252C47.0251 28.0252 45.9394 30.0948 45.9394 30.0948V40.7145H41.8453V24.6323H45.6453V26.9734C46.1375 26.1335 46.8415 25.4377 47.687 24.9554C48.5325 24.4731 49.4898 24.2213 50.4632 24.2251C53.6073 24.2251 56.3894 26.4305 56.3894 30.2984Z"
    fill="#fff" />
  <path
    d="M58.6626 24.6321H61.818V19.8481H65.8894V24.6321H70.7412V28.2738H65.8894V34.7768C65.8894 36.7446 66.9073 37.3214 67.993 37.3214C68.6005 37.2967 69.1886 37.1006 69.6894 36.7559L71.1823 40.0809C70.007 40.7812 68.6597 41.1395 67.2918 41.1158C64.1704 41.1158 61.7954 38.8538 61.7954 35.4214V28.2738H58.64L58.6626 24.6321Z"
    fill="#fff" />
  <path
    d="M88.6556 32.6055C88.6556 32.9108 88.6556 33.5216 88.6217 34.1323H76.6109C76.9033 35.0962 77.5045 35.9373 78.322 36.5259C79.1395 37.1145 80.1278 37.4179 81.1347 37.3894C82.7571 37.4184 84.3312 36.8372 85.5455 35.7608L87.5812 38.8144C85.757 40.293 83.4829 41.1049 81.1347 41.1159C80.0087 41.1431 78.8887 40.9448 77.8405 40.5327C76.7923 40.1207 75.837 39.5032 75.0309 38.7166C74.2248 37.93 73.5841 36.9901 73.1465 35.9523C72.709 34.9145 72.4833 33.7996 72.4829 32.6733C72.4829 27.9572 75.9097 24.2251 80.5579 24.2251C84.9574 24.2251 88.6556 27.6519 88.6556 32.6055ZM84.5841 31.1805C84.5163 29.7894 83.227 27.9233 80.5466 27.9233C77.8663 27.9233 76.7466 29.7555 76.5883 31.1805H84.5841Z"
    fill="#fff" />
  <path
    d="M105.654 30.2984V40.7145H101.582V31.3162C101.582 29.0091 100.157 28.0252 98.3931 28.0252C96.2895 28.0252 95.2038 30.0948 95.2038 30.0948V40.7145H91.1324V24.6323H94.9324V26.9734C95.4245 26.1335 96.1286 25.4377 96.9741 24.9554C97.8196 24.4731 98.7769 24.2213 99.7503 24.2251C102.872 24.2251 105.654 26.4305 105.654 30.2984Z"
    fill="#fff" />
  <path d="M107.845 24.6321H111V19.8481H115V24.6321H119.918V28.2738H115V40.997H111V28.2738H107.845V24.6321Z"
    fill="#fff" />
  <path
    d="M74.6883 44.5483H82.7633C87.4794 44.5483 90.6347 47.8055 90.6347 52.1484C90.6347 56.4912 87.4794 59.7484 82.7633 59.7484H78.7597V68.2984H74.6883V44.5483ZM86.5181 52.1484C86.5181 49.8864 85.0591 48.4162 82.277 48.4162H78.7823V55.8805H82.277C85.0365 55.8805 86.5181 54.3876 86.5181 52.1484Z"
    fill="#F97316" />
  <path
    d="M107.022 57.8145V68.2984H103.256V66.2627C102.625 67.0533 101.817 67.6858 100.899 68.1098C99.9798 68.5339 98.9748 68.7378 97.9633 68.7056C94.9437 68.7056 92.1729 66.7264 92.1729 63.3335C92.1729 60.246 95.0002 58.0067 98.4836 58.0067C101.435 58.0067 102.962 59.1377 102.962 59.1377V58.2442C102.962 56.1406 100.926 55.4621 99.5014 55.4621C97.8343 55.5462 96.1988 55.9493 94.6836 56.6496L93.3604 53.2906C95.3555 52.3823 97.5135 51.886 99.705 51.8317C104.308 51.8091 107.022 54.1502 107.022 57.8145ZM102.951 63.4692V61.8067C101.81 61.2532 100.555 60.9744 99.2866 60.9924C98.0312 60.9924 96.3008 61.5579 96.3008 63.2544C96.3008 64.9508 97.9633 65.324 99.2187 65.324C99.9425 65.315 100.655 65.1412 101.301 64.8159C101.948 64.4906 102.512 64.0224 102.951 63.4466V63.4692Z"
    fill="#F97316" />
  <path d="M111 43H115V68H111V43Z" fill="#F97316" />
</svg>